#N canvas 0 72 1150 616 10;
#X text 136 -13 init bang;
#X text 701 -17 start/stop;
#X text 703 -3 list;
#X obj 54 367 throw~ voice;
#X obj 391 411 throw~ voice;
#X obj 522 643 pack f f f f;
#X obj 482 412 t b f;
#X obj 518 689 outlet;
#X text 569 688 list of playing positions;
#X obj 746 418 throw~ voice;
#X obj 880 419 t b f;
#X obj 1093 409 throw~ voice;
#X obj 1191 410 t b f;
#X obj 591 29 route 1 2 3 4;
#X obj 592 -11 inlet start-stop;
#X obj 25 -12 inlet init-bang;
#X obj 925 74 inlet track-speed;
#X obj 926 106 route 1 2 3 4;
#X obj 242 -7 inlet player-numbers;
#X obj 240 53 unpack f f f f;
#X obj 400 -7 inlet file-names-stream;
#X obj 23 77 s \$0-init-bang;
#X obj 42 188 r \$0-init-bang;
#X obj 240 80 s \$0-player-number-1;
#X obj 266 104 s \$0-player-number-2;
#X obj 297 127 s \$0-player-number-3;
#X obj 330 156 s \$0-player-number-4;
#X obj 399 23 s \$0-file-names-stream;
#X obj 103 215 r \$0-player-number-1;
#X obj 408 269 r \$0-init-bang;
#X obj 805 277 r \$0-init-bang;
#X obj 1117 265 r \$0-init-bang;
#X obj 164 238 r \$0-file-names-stream;
#X obj 530 320 r \$0-file-names-stream;
#X obj 927 327 r \$0-file-names-stream;
#X obj 1239 315 r \$0-file-names-stream;
#X obj 561 375 print player2 file-name;
#X obj 945 383 print player3 file-name;
#X obj 1229 369 print player4 file-name;
#X obj 242 24 list;
#X obj 41 264 file-name-selector;
#X obj 407 345 file-name-selector;
#X obj 804 353 file-name-selector;
#X obj 1116 341 file-name-selector;
#X obj 469 296 r \$0-player-number-2;
#X obj 866 304 r \$0-player-number-3;
#X obj 1178 292 r \$0-player-number-4;
#X obj 189 291 print player1 file-name;
#X obj 190 351 s \$0-track-duration-1;
#X obj 559 421 s \$0-track-duration-2;
#X obj 940 421 s \$0-track-duration-3;
#X obj 1249 409 s \$0-track-duration-4;
#N canvas 171 75 929 538 pack-track-durations 0;
#X obj 287 484 outlet;
#X obj 66 33 inlet first;
#X obj 213 32 inlet second;
#X obj 340 32 inlet third;
#X obj 488 30 inlet fourth;
#X obj 664 34 inlet init-bang;
#X obj 663 178 bang;
#X obj 665 206 float;
#X msg 845 171 0;
#X obj 723 206 + 1;
#X obj 72 248 float;
#X obj 192 248 float;
#X obj 333 248 float;
#X obj 475 243 float;
#X obj 633 318 t b b b b;
#X obj 637 245 float;
#X obj 65 66 t b f b;
#X obj 286 447 pack f f f f;
#X obj 213 65 t b f b;
#X obj 340 64 t b f b;
#X obj 488 61 t b f b;
#X obj 710 251 print counter;
#X obj 639 274 select 3;
#X connect 1 0 16 0;
#X connect 2 0 18 0;
#X connect 3 0 19 0;
#X connect 4 0 20 0;
#X connect 5 0 8 0;
#X connect 6 0 7 0;
#X connect 7 0 9 0;
#X connect 7 0 15 1;
#X connect 7 0 21 0;
#X connect 8 0 7 1;
#X connect 8 0 15 1;
#X connect 9 0 7 1;
#X connect 10 0 17 0;
#X connect 11 0 17 1;
#X connect 12 0 17 2;
#X connect 13 0 17 3;
#X connect 14 0 10 0;
#X connect 14 1 11 0;
#X connect 14 2 12 0;
#X connect 14 3 13 0;
#X connect 15 0 22 0;
#X connect 16 0 15 0;
#X connect 16 1 10 1;
#X connect 16 2 6 0;
#X connect 17 0 0 0;
#X connect 18 0 15 0;
#X connect 18 1 11 1;
#X connect 18 2 6 0;
#X connect 19 0 15 0;
#X connect 19 1 12 1;
#X connect 19 2 6 0;
#X connect 20 0 15 0;
#X connect 20 1 13 1;
#X connect 20 2 6 0;
#X connect 22 0 14 0;
#X restore 1112 619 pd pack-track-durations;
#X obj 1111 476 r \$0-track-duration-1;
#X obj 1112 668 outlet track-durations;
#X obj 26 23 t b b;
#X obj 54 52 s \$0-durations-init;
#X obj 1247 577 r \$0-durations-init;
#X obj 1147 497 r \$0-track-duration-2;
#X obj 1181 520 r \$0-track-duration-3;
#X obj 1214 548 r \$0-track-duration-4;
#X obj 1184 38 inlet track-delay;
#X obj 1185 89 route 1 2 3 4;
#X obj 55 327 sample-player-vline;
#X obj 406 376 sample-player-vline;
#X obj 804 383 sample-player-vline;
#X obj 1115 374 sample-player-vline;
#X connect 5 0 7 0;
#X connect 6 0 5 0;
#X connect 6 1 5 1;
#X connect 10 0 5 0;
#X connect 10 1 5 2;
#X connect 12 0 5 0;
#X connect 12 1 5 3;
#X connect 13 0 63 1;
#X connect 13 1 64 1;
#X connect 13 2 65 1;
#X connect 13 3 66 1;
#X connect 14 0 13 0;
#X connect 15 0 55 0;
#X connect 16 0 17 0;
#X connect 17 0 63 2;
#X connect 17 1 64 2;
#X connect 17 2 65 2;
#X connect 17 3 66 2;
#X connect 18 0 39 0;
#X connect 19 0 23 0;
#X connect 19 1 24 0;
#X connect 19 2 25 0;
#X connect 19 3 26 0;
#X connect 20 0 27 0;
#X connect 22 0 40 0;
#X connect 28 0 40 1;
#X connect 29 0 41 0;
#X connect 30 0 42 0;
#X connect 31 0 43 0;
#X connect 32 0 40 2;
#X connect 33 0 41 2;
#X connect 34 0 42 2;
#X connect 35 0 43 2;
#X connect 39 0 19 0;
#X connect 40 0 47 0;
#X connect 40 0 63 0;
#X connect 41 0 36 0;
#X connect 41 0 64 0;
#X connect 42 0 37 0;
#X connect 42 0 65 0;
#X connect 43 0 38 0;
#X connect 43 0 66 0;
#X connect 44 0 41 1;
#X connect 45 0 42 1;
#X connect 46 0 43 1;
#X connect 52 0 54 0;
#X connect 53 0 52 0;
#X connect 55 0 21 0;
#X connect 55 1 56 0;
#X connect 57 0 52 4;
#X connect 58 0 52 1;
#X connect 59 0 52 2;
#X connect 60 0 52 3;
#X connect 61 0 62 0;
#X connect 62 0 63 3;
#X connect 62 1 64 3;
#X connect 62 2 65 3;
#X connect 62 3 66 3;
#X connect 63 0 3 0;
#X connect 63 1 5 0;
#X connect 63 2 48 0;
#X connect 64 0 4 0;
#X connect 64 1 6 0;
#X connect 64 2 49 0;
#X connect 65 0 9 0;
#X connect 65 1 10 0;
#X connect 65 2 50 0;
#X connect 66 0 11 0;
#X connect 66 1 12 0;
#X connect 66 2 51 0;
