#N canvas -25 72 1150 616 10;
#X text 136 -13 init bang;
#X text 701 -17 start/stop;
#X text 703 -3 list;
#X obj 41 293 sample-player;
#X obj 40 333 throw~ voice;
#X obj 391 411 throw~ voice;
#X obj 522 643 pack f f f f;
#X obj 482 412 t b f;
#X obj 518 689 outlet;
#X text 569 688 list of playing positions;
#X obj 782 418 throw~ voice;
#X obj 880 419 t b f;
#X obj 1093 409 throw~ voice;
#X obj 1191 410 t b f;
#X obj 591 29 route 1 2 3 4;
#X obj 592 -11 inlet start-stop;
#X obj 25 -12 inlet init-bang;
#X obj 925 74 inlet track-speed;
#X obj 926 106 route 1 2 3 4;
#X obj 406 376 sample-player;
#X obj 804 383 sample-player;
#X obj 1115 374 sample-player;
#X obj 242 -7 inlet player-numbers;
#X obj 240 53 unpack f f f f;
#X obj 400 -7 inlet file-names-stream;
#X obj 25 16 s \$0-init-bang;
#X obj 42 188 r \$0-init-bang;
#X obj 240 80 s \$0-player-number-1;
#X obj 266 104 s \$0-player-number-2;
#X obj 297 127 s \$0-player-number-3;
#X obj 330 156 s \$0-player-number-4;
#X obj 399 23 s \$0-file-names-stream;
#X obj 103 215 r \$0-player-number-1;
#X obj 408 269 r \$0-init-bang;
#X obj 805 277 r \$0-init-bang;
#X obj 1117 265 r \$0-init-bang;
#X obj 181 298 print player1 file-name;
#X obj 242 333 print player1 number;
#X obj 164 238 r \$0-file-names-stream;
#X obj 530 320 r \$0-file-names-stream;
#X obj 927 327 r \$0-file-names-stream;
#X obj 1239 315 r \$0-file-names-stream;
#X obj 561 375 print player2 file-name;
#X obj 945 383 print player3 file-name;
#X obj 1229 369 print player4 file-name;
#X obj 242 24 list;
#X obj 41 264 file-name-selector;
#X obj 407 345 file-name-selector;
#X obj 804 353 file-name-selector;
#X obj 1116 341 file-name-selector;
#X obj 469 296 r \$0-player-number-2;
#X obj 866 304 r \$0-player-number-3;
#X obj 1178 292 r \$0-player-number-4;
#X connect 3 0 4 0;
#X connect 3 1 6 0;
#X connect 6 0 8 0;
#X connect 7 0 6 0;
#X connect 7 1 6 1;
#X connect 11 0 6 0;
#X connect 11 1 6 2;
#X connect 13 0 6 0;
#X connect 13 1 6 3;
#X connect 14 0 3 1;
#X connect 14 1 19 1;
#X connect 14 2 20 1;
#X connect 14 3 21 1;
#X connect 15 0 14 0;
#X connect 16 0 25 0;
#X connect 17 0 18 0;
#X connect 18 0 3 2;
#X connect 18 1 19 2;
#X connect 18 2 20 2;
#X connect 18 3 21 2;
#X connect 19 0 5 0;
#X connect 19 1 7 0;
#X connect 20 0 10 0;
#X connect 20 1 11 0;
#X connect 21 0 12 0;
#X connect 21 1 13 0;
#X connect 22 0 45 0;
#X connect 23 0 27 0;
#X connect 23 1 28 0;
#X connect 23 2 29 0;
#X connect 23 3 30 0;
#X connect 24 0 31 0;
#X connect 26 0 46 0;
#X connect 32 0 37 0;
#X connect 32 0 46 1;
#X connect 33 0 47 0;
#X connect 34 0 48 0;
#X connect 35 0 49 0;
#X connect 38 0 46 2;
#X connect 39 0 47 2;
#X connect 40 0 48 2;
#X connect 41 0 49 2;
#X connect 45 0 23 0;
#X connect 46 0 3 0;
#X connect 46 0 36 0;
#X connect 47 0 19 0;
#X connect 47 0 42 0;
#X connect 48 0 20 0;
#X connect 48 0 43 0;
#X connect 49 0 21 0;
#X connect 49 0 44 0;
#X connect 50 0 47 1;
#X connect 51 0 48 1;
#X connect 52 0 49 1;
