#N canvas -35 22 1257 738 10;
#X obj 177 165 metro;
#X obj 164 132 tgl 15 0 empty empty empty 17 7 0 10 -262144 -1 -1 0
1;
#X floatatom 225 78 5 0 0 0 - - -;
#X obj 220 135 * 1000;
#X obj 176 206 float;
#X obj 242 205 + 1;
#X obj 160 307 bng 15 250 50 0 empty empty empty 17 7 0 10 -262144
-1 -1;
#X obj 192 306 bng 15 250 50 0 empty empty empty 17 7 0 10 -262144
-1 -1;
#X obj 221 307 bng 15 250 50 0 empty empty empty 17 7 0 10 -262144
-1 -1;
#X obj 248 307 bng 15 250 50 0 empty empty empty 17 7 0 10 -262144
-1 -1;
#X obj 279 307 bng 15 250 50 0 empty empty empty 17 7 0 10 -262144
-1 -1;
#X obj 131 194 bng 15 250 50 0 empty empty empty 17 7 0 10 -262144
-1 -1;
#X obj 225 105 / 6;
#X obj 319 307 bng 15 250 50 0 empty empty empty 17 7 0 10 -262144
-1 -1;
#X obj 175 232 % 6;
#N canvas 451 194 771 442 player 0;
#X obj 281 144 openpanel;
#X msg 282 109 bang;
#X obj 117 130 hsl 128 15 0 1 0 0 empty empty playing_position -2 -8
0 10 -262144 -1 -1 9069 1;
#X floatatom 609 255 5 0 0 0 track_duration - -;
#X obj 384 311 throw~ voice;
#X obj 393 225 sample-player-vline-no-repeat;
#X obj 271 55 inlet init-bang;
#X obj 466 58 inlet start-stop;
#X connect 0 0 5 0;
#X connect 1 0 0 0;
#X connect 5 0 4 0;
#X connect 5 1 2 0;
#X connect 5 2 3 0;
#X connect 6 0 1 0;
#X connect 7 0 5 1;
#X coords 0 -1 1 1 160 60 1 100 100;
#X restore 512 225 pd player;
#X obj 501 401 catch~ voice;
#X obj 501 430 output~;
#X obj 40 417 s ctrl-bus;
#X msg 392 24 bang;
#X obj 385 60 s \$0-init-bang;
#X obj 512 199 r \$0-init-bang;
#N canvas 522 145 671 470 track-step-control 0;
#X obj 107 115 tgl 30 0 empty empty empty 17 7 0 10 -262144 -1 -1 0
1;
#X obj 16 -55 random 2;
#X msg 233 -109 bang;
#X obj 106 -56 random 2;
#X floatatom 18 -9 5 0 0 0 - - -;
#X floatatom 108 -14 5 0 0 0 - - -;
#X obj 171 -57 random 2;
#X obj 261 -58 random 2;
#X floatatom 173 -11 5 0 0 0 - - -;
#X floatatom 263 -16 5 0 0 0 - - -;
#X obj 361 -55 random 2;
#X obj 451 -56 random 2;
#X floatatom 363 -9 5 0 0 0 - - -;
#X floatatom 471 -19 5 0 0 0 - - -;
#X obj 148 115 tgl 30 0 empty empty empty 17 7 0 10 -262144 -1 -1 0
1;
#X obj 185 114 tgl 30 0 empty empty empty 17 7 0 10 -262144 -1 -1 1
1;
#X obj 227 115 tgl 30 0 empty empty empty 17 7 0 10 -262144 -1 -1 1
1;
#X obj 267 116 tgl 30 0 empty empty empty 17 7 0 10 -262144 -1 -1 1
1;
#X obj 311 114 tgl 30 0 empty empty empty 17 7 0 10 -262144 -1 -1 1
1;
#X obj 113 -193 inlet init-bang;
#X obj 392 -204 r ctrl-bus;
#X obj 396 -171 route step;
#X obj 369 -133 route 0 1 2 3 4 5;
#X obj 491 111 outlet start-stop;
#X connect 1 0 4 0;
#X connect 2 0 1 0;
#X connect 2 0 3 0;
#X connect 2 0 6 0;
#X connect 2 0 7 0;
#X connect 2 0 10 0;
#X connect 2 0 11 0;
#X connect 3 0 5 0;
#X connect 4 0 0 0;
#X connect 4 0 23 0;
#X connect 5 0 14 0;
#X connect 5 0 23 0;
#X connect 6 0 8 0;
#X connect 7 0 9 0;
#X connect 8 0 15 0;
#X connect 8 0 23 0;
#X connect 9 0 16 0;
#X connect 9 0 23 0;
#X connect 10 0 12 0;
#X connect 11 0 13 0;
#X connect 12 0 17 0;
#X connect 12 0 23 0;
#X connect 13 0 18 0;
#X connect 13 0 23 0;
#X connect 19 0 2 0;
#X connect 20 0 21 0;
#X connect 21 0 22 0;
#X connect 22 0 4 0;
#X connect 22 1 5 0;
#X connect 22 2 8 0;
#X connect 22 3 9 0;
#X connect 22 4 12 0;
#X connect 22 5 13 0;
#X coords 0 -1 1 1 250 60 1 100 100;
#X restore 556 121 pd track-step-control;
#X obj 556 92 r \$0-init-bang;
#X obj 59 289 t b f;
#X obj 49 352 list;
#X msg 30 316 step;
#X obj 43 376 list trim;
#X obj 174 267 select 0 1 2 3 4 5;
#N canvas 451 194 771 442 player 0;
#X obj 281 144 openpanel;
#X msg 282 109 bang;
#X obj 117 130 hsl 128 15 0 1 0 0 empty empty playing_position -2 -8
0 10 -262144 -1 -1 8160 1;
#X floatatom 609 255 5 0 0 0 track_duration - -;
#X obj 384 311 throw~ voice;
#X obj 393 225 sample-player-vline-no-repeat;
#X obj 271 55 inlet init-bang;
#X obj 466 58 inlet start-stop;
#X connect 0 0 5 0;
#X connect 1 0 0 0;
#X connect 5 0 4 0;
#X connect 5 1 2 0;
#X connect 5 2 3 0;
#X connect 6 0 1 0;
#X connect 7 0 5 1;
#X coords 0 -1 1 1 160 60 1 100 100;
#X restore 640 415 pd player;
#X obj 640 389 r \$0-init-bang;
#N canvas 522 145 671 470 track-step-control 0;
#X obj 107 115 tgl 30 0 empty empty empty 17 7 0 10 -262144 -1 -1 1
1;
#X obj 16 -55 random 2;
#X msg 233 -109 bang;
#X obj 106 -56 random 2;
#X floatatom 18 -9 5 0 0 0 - - -;
#X floatatom 108 -14 5 0 0 0 - - -;
#X obj 171 -57 random 2;
#X obj 261 -58 random 2;
#X floatatom 173 -11 5 0 0 0 - - -;
#X floatatom 263 -16 5 0 0 0 - - -;
#X obj 361 -55 random 2;
#X obj 451 -56 random 2;
#X floatatom 363 -9 5 0 0 0 - - -;
#X floatatom 471 -19 5 0 0 0 - - -;
#X obj 148 115 tgl 30 0 empty empty empty 17 7 0 10 -262144 -1 -1 0
1;
#X obj 185 114 tgl 30 0 empty empty empty 17 7 0 10 -262144 -1 -1 0
1;
#X obj 227 115 tgl 30 0 empty empty empty 17 7 0 10 -262144 -1 -1 1
1;
#X obj 267 116 tgl 30 0 empty empty empty 17 7 0 10 -262144 -1 -1 1
1;
#X obj 311 114 tgl 30 0 empty empty empty 17 7 0 10 -262144 -1 -1 1
1;
#X obj 113 -193 inlet init-bang;
#X obj 392 -204 r ctrl-bus;
#X obj 396 -171 route step;
#X obj 369 -133 route 0 1 2 3 4 5;
#X obj 491 111 outlet start-stop;
#X connect 1 0 4 0;
#X connect 2 0 1 0;
#X connect 2 0 3 0;
#X connect 2 0 6 0;
#X connect 2 0 7 0;
#X connect 2 0 10 0;
#X connect 2 0 11 0;
#X connect 3 0 5 0;
#X connect 4 0 0 0;
#X connect 4 0 23 0;
#X connect 5 0 14 0;
#X connect 5 0 23 0;
#X connect 6 0 8 0;
#X connect 7 0 9 0;
#X connect 8 0 15 0;
#X connect 8 0 23 0;
#X connect 9 0 16 0;
#X connect 9 0 23 0;
#X connect 10 0 12 0;
#X connect 11 0 13 0;
#X connect 12 0 17 0;
#X connect 12 0 23 0;
#X connect 13 0 18 0;
#X connect 13 0 23 0;
#X connect 19 0 2 0;
#X connect 20 0 21 0;
#X connect 21 0 22 0;
#X connect 22 0 4 0;
#X connect 22 1 5 0;
#X connect 22 2 8 0;
#X connect 22 3 9 0;
#X connect 22 4 12 0;
#X connect 22 5 13 0;
#X coords 0 -1 1 1 250 60 1 100 100;
#X restore 684 311 pd track-step-control;
#X obj 684 282 r \$0-init-bang;
#N canvas 451 194 771 442 player 0;
#X obj 281 144 openpanel;
#X msg 282 109 bang;
#X obj 117 130 hsl 128 15 0 1 0 0 empty empty playing_position -2 -8
0 10 -262144 -1 -1 9731 1;
#X floatatom 609 255 5 0 0 0 track_duration - -;
#X obj 384 311 throw~ voice;
#X obj 393 225 sample-player-vline-no-repeat;
#X obj 271 55 inlet init-bang;
#X obj 466 58 inlet start-stop;
#X connect 0 0 5 0;
#X connect 1 0 0 0;
#X connect 5 0 4 0;
#X connect 5 1 2 0;
#X connect 5 2 3 0;
#X connect 6 0 1 0;
#X connect 7 0 5 1;
#X coords 0 -1 1 1 160 60 1 100 100;
#X restore 775 544 pd player;
#X obj 775 518 r \$0-init-bang;
#N canvas 522 145 671 470 track-step-control 0;
#X obj 107 115 tgl 30 0 empty empty empty 17 7 0 10 -262144 -1 -1 0
1;
#X obj 16 -55 random 2;
#X msg 233 -109 bang;
#X obj 106 -56 random 2;
#X floatatom 18 -9 5 0 0 0 - - -;
#X floatatom 108 -14 5 0 0 0 - - -;
#X obj 171 -57 random 2;
#X obj 261 -58 random 2;
#X floatatom 173 -11 5 0 0 0 - - -;
#X floatatom 263 -16 5 0 0 0 - - -;
#X obj 361 -55 random 2;
#X obj 451 -56 random 2;
#X floatatom 363 -9 5 0 0 0 - - -;
#X floatatom 471 -19 5 0 0 0 - - -;
#X obj 148 115 tgl 30 0 empty empty empty 17 7 0 10 -262144 -1 -1 1
1;
#X obj 185 114 tgl 30 0 empty empty empty 17 7 0 10 -262144 -1 -1 0
1;
#X obj 227 115 tgl 30 0 empty empty empty 17 7 0 10 -262144 -1 -1 0
1;
#X obj 267 116 tgl 30 0 empty empty empty 17 7 0 10 -262144 -1 -1 1
1;
#X obj 311 114 tgl 30 0 empty empty empty 17 7 0 10 -262144 -1 -1 1
1;
#X obj 113 -193 inlet init-bang;
#X obj 392 -204 r ctrl-bus;
#X obj 396 -171 route step;
#X obj 369 -133 route 0 1 2 3 4 5;
#X obj 491 111 outlet start-stop;
#X connect 1 0 4 0;
#X connect 2 0 1 0;
#X connect 2 0 3 0;
#X connect 2 0 6 0;
#X connect 2 0 7 0;
#X connect 2 0 10 0;
#X connect 2 0 11 0;
#X connect 3 0 5 0;
#X connect 4 0 0 0;
#X connect 4 0 23 0;
#X connect 5 0 14 0;
#X connect 5 0 23 0;
#X connect 6 0 8 0;
#X connect 7 0 9 0;
#X connect 8 0 15 0;
#X connect 8 0 23 0;
#X connect 9 0 16 0;
#X connect 9 0 23 0;
#X connect 10 0 12 0;
#X connect 11 0 13 0;
#X connect 12 0 17 0;
#X connect 12 0 23 0;
#X connect 13 0 18 0;
#X connect 13 0 23 0;
#X connect 19 0 2 0;
#X connect 20 0 21 0;
#X connect 21 0 22 0;
#X connect 22 0 4 0;
#X connect 22 1 5 0;
#X connect 22 2 8 0;
#X connect 22 3 9 0;
#X connect 22 4 12 0;
#X connect 22 5 13 0;
#X coords 0 -1 1 1 250 60 1 100 100;
#X restore 819 440 pd track-step-control;
#X obj 819 411 r \$0-init-bang;
#N canvas 451 194 771 442 player 0;
#X obj 281 144 openpanel;
#X msg 282 109 bang;
#X obj 117 130 hsl 128 15 0 1 0 0 empty empty playing_position -2 -8
0 10 -262144 -1 -1 4543 1;
#X floatatom 609 255 5 0 0 0 track_duration - -;
#X obj 384 311 throw~ voice;
#X obj 393 225 sample-player-vline-no-repeat;
#X obj 271 55 inlet init-bang;
#X obj 466 58 inlet start-stop;
#X connect 0 0 5 0;
#X connect 1 0 0 0;
#X connect 5 0 4 0;
#X connect 5 1 2 0;
#X connect 5 2 3 0;
#X connect 6 0 1 0;
#X connect 7 0 5 1;
#X coords 0 -1 1 1 160 60 1 100 100;
#X restore 947 665 pd player;
#X obj 947 639 r \$0-init-bang;
#N canvas 522 145 671 470 track-step-control 0;
#X obj 107 115 tgl 30 0 empty empty empty 17 7 0 10 -262144 -1 -1 1
1;
#X obj 16 -55 random 2;
#X msg 233 -109 bang;
#X obj 106 -56 random 2;
#X floatatom 18 -9 5 0 0 0 - - -;
#X floatatom 108 -14 5 0 0 0 - - -;
#X obj 171 -57 random 2;
#X obj 261 -58 random 2;
#X floatatom 173 -11 5 0 0 0 - - -;
#X floatatom 263 -16 5 0 0 0 - - -;
#X obj 361 -55 random 2;
#X obj 451 -56 random 2;
#X floatatom 363 -9 5 0 0 0 - - -;
#X floatatom 471 -19 5 0 0 0 - - -;
#X obj 148 115 tgl 30 0 empty empty empty 17 7 0 10 -262144 -1 -1 1
1;
#X obj 185 114 tgl 30 0 empty empty empty 17 7 0 10 -262144 -1 -1 0
1;
#X obj 227 115 tgl 30 0 empty empty empty 17 7 0 10 -262144 -1 -1 0
1;
#X obj 267 116 tgl 30 0 empty empty empty 17 7 0 10 -262144 -1 -1 0
1;
#X obj 311 114 tgl 30 0 empty empty empty 17 7 0 10 -262144 -1 -1 0
1;
#X obj 113 -193 inlet init-bang;
#X obj 392 -204 r ctrl-bus;
#X obj 396 -171 route step;
#X obj 369 -133 route 0 1 2 3 4 5;
#X obj 491 111 outlet start-stop;
#X connect 1 0 4 0;
#X connect 2 0 1 0;
#X connect 2 0 3 0;
#X connect 2 0 6 0;
#X connect 2 0 7 0;
#X connect 2 0 10 0;
#X connect 2 0 11 0;
#X connect 3 0 5 0;
#X connect 4 0 0 0;
#X connect 4 0 23 0;
#X connect 5 0 14 0;
#X connect 5 0 23 0;
#X connect 6 0 8 0;
#X connect 7 0 9 0;
#X connect 8 0 15 0;
#X connect 8 0 23 0;
#X connect 9 0 16 0;
#X connect 9 0 23 0;
#X connect 10 0 12 0;
#X connect 11 0 13 0;
#X connect 12 0 17 0;
#X connect 12 0 23 0;
#X connect 13 0 18 0;
#X connect 13 0 23 0;
#X connect 19 0 2 0;
#X connect 20 0 21 0;
#X connect 21 0 22 0;
#X connect 22 0 4 0;
#X connect 22 1 5 0;
#X connect 22 2 8 0;
#X connect 22 3 9 0;
#X connect 22 4 12 0;
#X connect 22 5 13 0;
#X coords 0 -1 1 1 250 60 1 100 100;
#X restore 991 561 pd track-step-control;
#X obj 991 532 r \$0-init-bang;
#X msg 501 21 bang;
#X obj 518 49 s \$0-regenerate;
#X obj 627 65 r \$0-regenerate;
#X obj 727 230 r \$0-regenerate;
#X obj 913 376 r \$0-regenerate;
#X obj 1075 500 r \$0-regenerate;
#X msg 258 46 30;
#N canvas 451 194 771 442 player 0;
#X obj 281 144 openpanel;
#X msg 282 109 bang;
#X obj 117 130 hsl 128 15 0 1 0 0 empty empty playing_position -2 -8
0 10 -262144 -1 -1 12700 1;
#X floatatom 609 255 5 0 0 0 track_duration - -;
#X obj 384 311 throw~ voice;
#X obj 393 225 sample-player-vline-no-repeat;
#X obj 271 55 inlet init-bang;
#X obj 466 58 inlet start-stop;
#X connect 0 0 5 0;
#X connect 1 0 0 0;
#X connect 5 0 4 0;
#X connect 5 1 2 0;
#X connect 5 2 3 0;
#X connect 6 0 1 0;
#X connect 7 0 5 1;
#X coords 0 -1 1 1 160 60 1 100 100;
#X restore 1056 227 pd player;
#X obj 1056 201 r \$0-init-bang;
#N canvas 522 145 671 470 track-step-control 0;
#X obj 107 115 tgl 30 0 empty empty empty 17 7 0 10 -262144 -1 -1 1
1;
#X obj 16 -55 random 2;
#X msg 233 -109 bang;
#X obj 106 -56 random 2;
#X floatatom 18 -9 5 0 0 0 - - -;
#X floatatom 108 -14 5 0 0 0 - - -;
#X obj 171 -57 random 2;
#X obj 261 -58 random 2;
#X floatatom 173 -11 5 0 0 0 - - -;
#X floatatom 263 -16 5 0 0 0 - - -;
#X obj 361 -55 random 2;
#X obj 451 -56 random 2;
#X floatatom 363 -9 5 0 0 0 - - -;
#X floatatom 471 -19 5 0 0 0 - - -;
#X obj 148 115 tgl 30 0 empty empty empty 17 7 0 10 -262144 -1 -1 1
1;
#X obj 185 114 tgl 30 0 empty empty empty 17 7 0 10 -262144 -1 -1 0
1;
#X obj 227 115 tgl 30 0 empty empty empty 17 7 0 10 -262144 -1 -1 0
1;
#X obj 267 116 tgl 30 0 empty empty empty 17 7 0 10 -262144 -1 -1 1
1;
#X obj 311 114 tgl 30 0 empty empty empty 17 7 0 10 -262144 -1 -1 1
1;
#X obj 113 -193 inlet init-bang;
#X obj 392 -204 r ctrl-bus;
#X obj 396 -171 route step;
#X obj 369 -133 route 0 1 2 3 4 5;
#X obj 491 111 outlet start-stop;
#X connect 1 0 4 0;
#X connect 2 0 1 0;
#X connect 2 0 3 0;
#X connect 2 0 6 0;
#X connect 2 0 7 0;
#X connect 2 0 10 0;
#X connect 2 0 11 0;
#X connect 3 0 5 0;
#X connect 4 0 0 0;
#X connect 4 0 23 0;
#X connect 5 0 14 0;
#X connect 5 0 23 0;
#X connect 6 0 8 0;
#X connect 7 0 9 0;
#X connect 8 0 15 0;
#X connect 8 0 23 0;
#X connect 9 0 16 0;
#X connect 9 0 23 0;
#X connect 10 0 12 0;
#X connect 11 0 13 0;
#X connect 12 0 17 0;
#X connect 12 0 23 0;
#X connect 13 0 18 0;
#X connect 13 0 23 0;
#X connect 19 0 2 0;
#X connect 20 0 21 0;
#X connect 21 0 22 0;
#X connect 22 0 4 0;
#X connect 22 1 5 0;
#X connect 22 2 8 0;
#X connect 22 3 9 0;
#X connect 22 4 12 0;
#X connect 22 5 13 0;
#X coords 0 -1 1 1 250 60 1 100 100;
#X restore 1100 123 pd track-step-control;
#X obj 1100 94 r \$0-init-bang;
#N canvas 451 194 771 442 player 0;
#X obj 281 144 openpanel;
#X msg 282 109 bang;
#X obj 117 130 hsl 128 15 0 1 0 0 empty empty playing_position -2 -8
0 10 -262144 -1 -1 5719 1;
#X floatatom 609 255 5 0 0 0 track_duration - -;
#X obj 384 311 throw~ voice;
#X obj 393 225 sample-player-vline-no-repeat;
#X obj 271 55 inlet init-bang;
#X obj 466 58 inlet start-stop;
#X connect 0 0 5 0;
#X connect 1 0 0 0;
#X connect 5 0 4 0;
#X connect 5 1 2 0;
#X connect 5 2 3 0;
#X connect 6 0 1 0;
#X connect 7 0 5 1;
#X coords 0 -1 1 1 160 60 1 100 100;
#X restore 1184 417 pd player;
#X obj 1184 391 r \$0-init-bang;
#N canvas 522 145 671 470 track-step-control 0;
#X obj 107 115 tgl 30 0 empty empty empty 17 7 0 10 -262144 -1 -1 0
1;
#X obj 16 -55 random 2;
#X msg 233 -109 bang;
#X obj 106 -56 random 2;
#X floatatom 18 -9 5 0 0 0 - - -;
#X floatatom 108 -14 5 0 0 0 - - -;
#X obj 171 -57 random 2;
#X obj 261 -58 random 2;
#X floatatom 173 -11 5 0 0 0 - - -;
#X floatatom 263 -16 5 0 0 0 - - -;
#X obj 361 -55 random 2;
#X obj 451 -56 random 2;
#X floatatom 363 -9 5 0 0 0 - - -;
#X floatatom 471 -19 5 0 0 0 - - -;
#X obj 148 115 tgl 30 0 empty empty empty 17 7 0 10 -262144 -1 -1 0
1;
#X obj 185 114 tgl 30 0 empty empty empty 17 7 0 10 -262144 -1 -1 1
1;
#X obj 227 115 tgl 30 0 empty empty empty 17 7 0 10 -262144 -1 -1 0
1;
#X obj 267 116 tgl 30 0 empty empty empty 17 7 0 10 -262144 -1 -1 0
1;
#X obj 311 114 tgl 30 0 empty empty empty 17 7 0 10 -262144 -1 -1 0
1;
#X obj 113 -193 inlet init-bang;
#X obj 392 -204 r ctrl-bus;
#X obj 396 -171 route step;
#X obj 369 -133 route 0 1 2 3 4 5;
#X obj 491 111 outlet start-stop;
#X connect 1 0 4 0;
#X connect 2 0 1 0;
#X connect 2 0 3 0;
#X connect 2 0 6 0;
#X connect 2 0 7 0;
#X connect 2 0 10 0;
#X connect 2 0 11 0;
#X connect 3 0 5 0;
#X connect 4 0 0 0;
#X connect 4 0 23 0;
#X connect 5 0 14 0;
#X connect 5 0 23 0;
#X connect 6 0 8 0;
#X connect 7 0 9 0;
#X connect 8 0 15 0;
#X connect 8 0 23 0;
#X connect 9 0 16 0;
#X connect 9 0 23 0;
#X connect 10 0 12 0;
#X connect 11 0 13 0;
#X connect 12 0 17 0;
#X connect 12 0 23 0;
#X connect 13 0 18 0;
#X connect 13 0 23 0;
#X connect 19 0 2 0;
#X connect 20 0 21 0;
#X connect 21 0 22 0;
#X connect 22 0 4 0;
#X connect 22 1 5 0;
#X connect 22 2 8 0;
#X connect 22 3 9 0;
#X connect 22 4 12 0;
#X connect 22 5 13 0;
#X coords 0 -1 1 1 250 60 1 100 100;
#X restore 1228 313 pd track-step-control;
#X obj 1228 284 r \$0-init-bang;
#N canvas 451 194 771 442 player 0;
#X obj 281 144 openpanel;
#X msg 282 109 bang;
#X obj 117 130 hsl 128 15 0 1 0 0 empty empty playing_position -2 -8
0 10 -262144 -1 -1 2753 1;
#X floatatom 609 255 5 0 0 0 track_duration - -;
#X obj 384 311 throw~ voice;
#X obj 393 225 sample-player-vline-no-repeat;
#X obj 271 55 inlet init-bang;
#X obj 466 58 inlet start-stop;
#X connect 0 0 5 0;
#X connect 1 0 0 0;
#X connect 5 0 4 0;
#X connect 5 1 2 0;
#X connect 5 2 3 0;
#X connect 6 0 1 0;
#X connect 7 0 5 1;
#X coords 0 -1 1 1 160 60 1 100 100;
#X restore 1319 546 pd player;
#X obj 1319 520 r \$0-init-bang;
#N canvas 522 145 671 470 track-step-control 0;
#X obj 107 115 tgl 30 0 empty empty empty 17 7 0 10 -262144 -1 -1 1
1;
#X obj 16 -55 random 2;
#X msg 233 -109 bang;
#X obj 106 -56 random 2;
#X floatatom 18 -9 5 0 0 0 - - -;
#X floatatom 108 -14 5 0 0 0 - - -;
#X obj 171 -57 random 2;
#X obj 261 -58 random 2;
#X floatatom 173 -11 5 0 0 0 - - -;
#X floatatom 263 -16 5 0 0 0 - - -;
#X obj 361 -55 random 2;
#X obj 451 -56 random 2;
#X floatatom 363 -9 5 0 0 0 - - -;
#X floatatom 471 -19 5 0 0 0 - - -;
#X obj 148 115 tgl 30 0 empty empty empty 17 7 0 10 -262144 -1 -1 0
1;
#X obj 185 114 tgl 30 0 empty empty empty 17 7 0 10 -262144 -1 -1 1
1;
#X obj 227 115 tgl 30 0 empty empty empty 17 7 0 10 -262144 -1 -1 0
1;
#X obj 267 116 tgl 30 0 empty empty empty 17 7 0 10 -262144 -1 -1 1
1;
#X obj 311 114 tgl 30 0 empty empty empty 17 7 0 10 -262144 -1 -1 1
1;
#X obj 113 -193 inlet init-bang;
#X obj 392 -204 r ctrl-bus;
#X obj 396 -171 route step;
#X obj 369 -133 route 0 1 2 3 4 5;
#X obj 491 111 outlet start-stop;
#X connect 1 0 4 0;
#X connect 2 0 1 0;
#X connect 2 0 3 0;
#X connect 2 0 6 0;
#X connect 2 0 7 0;
#X connect 2 0 10 0;
#X connect 2 0 11 0;
#X connect 3 0 5 0;
#X connect 4 0 0 0;
#X connect 4 0 23 0;
#X connect 5 0 14 0;
#X connect 5 0 23 0;
#X connect 6 0 8 0;
#X connect 7 0 9 0;
#X connect 8 0 15 0;
#X connect 8 0 23 0;
#X connect 9 0 16 0;
#X connect 9 0 23 0;
#X connect 10 0 12 0;
#X connect 11 0 13 0;
#X connect 12 0 17 0;
#X connect 12 0 23 0;
#X connect 13 0 18 0;
#X connect 13 0 23 0;
#X connect 19 0 2 0;
#X connect 20 0 21 0;
#X connect 21 0 22 0;
#X connect 22 0 4 0;
#X connect 22 1 5 0;
#X connect 22 2 8 0;
#X connect 22 3 9 0;
#X connect 22 4 12 0;
#X connect 22 5 13 0;
#X coords 0 -1 1 1 250 60 1 100 100;
#X restore 1363 442 pd track-step-control;
#X obj 1363 413 r \$0-init-bang;
#N canvas 451 194 771 442 player 0;
#X obj 281 144 openpanel;
#X msg 282 109 bang;
#X obj 117 130 hsl 128 15 0 1 0 0 empty empty playing_position -2 -8
0 10 -262144 -1 -1 2722 1;
#X floatatom 609 255 5 0 0 0 track_duration - -;
#X obj 384 311 throw~ voice;
#X obj 393 225 sample-player-vline-no-repeat;
#X obj 271 55 inlet init-bang;
#X obj 466 58 inlet start-stop;
#X connect 0 0 5 0;
#X connect 1 0 0 0;
#X connect 5 0 4 0;
#X connect 5 1 2 0;
#X connect 5 2 3 0;
#X connect 6 0 1 0;
#X connect 7 0 5 1;
#X coords 0 -1 1 1 160 60 1 100 100;
#X restore 1491 667 pd player;
#X obj 1491 641 r \$0-init-bang;
#N canvas 522 145 671 470 track-step-control 0;
#X obj 107 115 tgl 30 0 empty empty empty 17 7 0 10 -262144 -1 -1 1
1;
#X obj 16 -55 random 2;
#X msg 233 -109 bang;
#X obj 106 -56 random 2;
#X floatatom 18 -9 5 0 0 0 - - -;
#X floatatom 108 -14 5 0 0 0 - - -;
#X obj 171 -57 random 2;
#X obj 261 -58 random 2;
#X floatatom 173 -11 5 0 0 0 - - -;
#X floatatom 263 -16 5 0 0 0 - - -;
#X obj 361 -55 random 2;
#X obj 451 -56 random 2;
#X floatatom 363 -9 5 0 0 0 - - -;
#X floatatom 471 -19 5 0 0 0 - - -;
#X obj 148 115 tgl 30 0 empty empty empty 17 7 0 10 -262144 -1 -1 1
1;
#X obj 185 114 tgl 30 0 empty empty empty 17 7 0 10 -262144 -1 -1 0
1;
#X obj 227 115 tgl 30 0 empty empty empty 17 7 0 10 -262144 -1 -1 1
1;
#X obj 267 116 tgl 30 0 empty empty empty 17 7 0 10 -262144 -1 -1 1
1;
#X obj 311 114 tgl 30 0 empty empty empty 17 7 0 10 -262144 -1 -1 0
1;
#X obj 113 -193 inlet init-bang;
#X obj 392 -204 r ctrl-bus;
#X obj 396 -171 route step;
#X obj 369 -133 route 0 1 2 3 4 5;
#X obj 491 111 outlet start-stop;
#X connect 1 0 4 0;
#X connect 2 0 1 0;
#X connect 2 0 3 0;
#X connect 2 0 6 0;
#X connect 2 0 7 0;
#X connect 2 0 10 0;
#X connect 2 0 11 0;
#X connect 3 0 5 0;
#X connect 4 0 0 0;
#X connect 4 0 23 0;
#X connect 5 0 14 0;
#X connect 5 0 23 0;
#X connect 6 0 8 0;
#X connect 7 0 9 0;
#X connect 8 0 15 0;
#X connect 8 0 23 0;
#X connect 9 0 16 0;
#X connect 9 0 23 0;
#X connect 10 0 12 0;
#X connect 11 0 13 0;
#X connect 12 0 17 0;
#X connect 12 0 23 0;
#X connect 13 0 18 0;
#X connect 13 0 23 0;
#X connect 19 0 2 0;
#X connect 20 0 21 0;
#X connect 21 0 22 0;
#X connect 22 0 4 0;
#X connect 22 1 5 0;
#X connect 22 2 8 0;
#X connect 22 3 9 0;
#X connect 22 4 12 0;
#X connect 22 5 13 0;
#X coords 0 -1 1 1 250 60 1 100 100;
#X restore 1535 563 pd track-step-control;
#X obj 1535 534 r \$0-init-bang;
#X obj 1171 67 r \$0-regenerate;
#X obj 1271 232 r \$0-regenerate;
#X obj 1457 378 r \$0-regenerate;
#X obj 1619 502 r \$0-regenerate;
#X connect 0 0 4 0;
#X connect 0 0 11 0;
#X connect 1 0 0 0;
#X connect 2 0 12 0;
#X connect 3 0 0 1;
#X connect 4 0 5 0;
#X connect 4 0 14 0;
#X connect 5 0 4 1;
#X connect 12 0 3 0;
#X connect 14 0 24 0;
#X connect 14 0 28 0;
#X connect 16 0 17 0;
#X connect 19 0 20 0;
#X connect 19 0 47 0;
#X connect 21 0 15 0;
#X connect 22 0 15 1;
#X connect 23 0 22 0;
#X connect 24 0 26 0;
#X connect 24 1 25 1;
#X connect 25 0 27 0;
#X connect 26 0 25 0;
#X connect 27 0 18 0;
#X connect 28 0 6 0;
#X connect 28 1 7 0;
#X connect 28 2 8 0;
#X connect 28 3 9 0;
#X connect 28 4 10 0;
#X connect 28 5 13 0;
#X connect 30 0 29 0;
#X connect 31 0 29 1;
#X connect 32 0 31 0;
#X connect 34 0 33 0;
#X connect 35 0 33 1;
#X connect 36 0 35 0;
#X connect 38 0 37 0;
#X connect 39 0 37 1;
#X connect 40 0 39 0;
#X connect 41 0 42 0;
#X connect 43 0 22 0;
#X connect 44 0 31 0;
#X connect 45 0 35 0;
#X connect 46 0 39 0;
#X connect 47 0 2 0;
#X connect 49 0 48 0;
#X connect 50 0 48 1;
#X connect 51 0 50 0;
#X connect 53 0 52 0;
#X connect 54 0 52 1;
#X connect 55 0 54 0;
#X connect 57 0 56 0;
#X connect 58 0 56 1;
#X connect 59 0 58 0;
#X connect 61 0 60 0;
#X connect 62 0 60 1;
#X connect 63 0 62 0;
#X connect 64 0 50 0;
#X connect 65 0 54 0;
#X connect 66 0 58 0;
#X connect 67 0 62 0;
