#N canvas 310 26 791 635 10;
#N canvas 772 357 450 300 voice-output 0;
#X obj 87 182 dac~;
#X obj 91 49 inlet~;
#X text 91 29 input signal;
#X obj 205 46 inlet;
#X text 210 25 volume level;
#X obj 110 111 *~;
#X connect 1 0 5 0;
#X connect 3 0 5 1;
#X connect 5 0 0 0;
#X connect 5 0 0 1;
#X restore 28 586 pd voice-output;
#X obj 161 343 s \$0-volume-level;
#X obj 67 312 s \$0-start-stop;
#X obj 115 560 r \$0-volume-level;
#X obj 584 33 r \$0-volume-level;
#X obj 584 59 print;
#X obj 486 121 pddp/dsp;
#X obj 305 300 s \$0-init-bang;
#X obj 490 455 playing-monitor-gui;
#X obj 28 545 catch~ voice;
#X obj 585 84 r \$0-start-stop;
#X obj 585 115 print;
#N canvas 311 54 904 537 4-players 0;
#X text 127 13 init bang;
#X text 426 -46 start/stop;
#X text 428 -32 list;
#X obj 31 157 sample-player;
#X msg 20 66 ~/Desktop/wavs/voice.wav;
#X msg 202 132 ~/Desktop/wavs/numbers.wav;
#X obj 13 195 throw~ voice;
#X obj 209 204 throw~ voice;
#X obj 174 293 pack f f f f;
#X obj 307 205 t b f;
#X obj 170 339 outlet;
#X text 221 338 list of playing positions;
#X msg 378 110 ~/Desktop/wavs/maxon_technoloop2.wav;
#X obj 387 198 throw~ voice;
#X obj 485 199 t b f;
#X msg 648 108 ~/Desktop/wavs/kantele.wav;
#X obj 637 210 throw~ voice;
#X obj 735 211 t b f;
#X obj 316 0 route 1 2 3 4;
#X obj 317 -40 inlet start-stop;
#X obj 19 13 inlet init-bang;
#X obj 691 -13 inlet track-speed;
#X obj 692 19 route 1 2 3 4;
#X obj 231 169 sample-player;
#X obj 409 163 sample-player;
#X obj 659 175 sample-player;
#X connect 3 0 6 0;
#X connect 3 1 8 0;
#X connect 4 0 3 0;
#X connect 5 0 23 0;
#X connect 8 0 10 0;
#X connect 9 0 8 0;
#X connect 9 1 8 1;
#X connect 12 0 24 0;
#X connect 14 0 8 0;
#X connect 14 1 8 2;
#X connect 15 0 25 0;
#X connect 17 0 8 0;
#X connect 17 1 8 3;
#X connect 18 0 3 1;
#X connect 18 1 23 1;
#X connect 18 2 24 1;
#X connect 18 3 25 1;
#X connect 19 0 18 0;
#X connect 20 0 4 0;
#X connect 20 0 5 0;
#X connect 20 0 12 0;
#X connect 20 0 15 0;
#X connect 21 0 22 0;
#X connect 22 0 3 2;
#X connect 22 1 23 2;
#X connect 22 2 24 2;
#X connect 22 3 25 2;
#X connect 23 0 7 0;
#X connect 23 1 9 0;
#X connect 24 0 13 0;
#X connect 24 1 14 0;
#X connect 25 0 16 0;
#X connect 25 1 17 0;
#X restore 29 439 pd 4-players;
#X obj 29 357 r \$0-init-bang;
#X obj 64 379 r \$0-start-stop;
#X obj 30 480 s \$0-playing-positions;
#X obj 490 424 r \$0-playing-positions;
#X text 487 395 debug playing positions of tracks;
#X text 29 327 players;
#X obj 129 263 io-interface-core;
#X obj 418 208 io-interface-midi;
#X obj 418 177 r \$0-init-bang;
#X obj 434 259 print control-message;
#X obj 128 32 io-interface-gui;
#X obj 193 318 s \$0-track-speed;
#X obj 98 408 r \$0-track-speed;
#X obj 143 191 print control-message;
#X connect 3 0 0 1;
#X connect 4 0 5 0;
#X connect 9 0 0 0;
#X connect 10 0 11 0;
#X connect 12 0 15 0;
#X connect 13 0 12 0;
#X connect 14 0 12 1;
#X connect 16 0 8 0;
#X connect 19 0 2 0;
#X connect 19 1 1 0;
#X connect 19 2 24 0;
#X connect 19 3 7 0;
#X connect 20 0 19 0;
#X connect 20 0 22 0;
#X connect 21 0 20 0;
#X connect 23 0 19 0;
#X connect 23 0 26 0;
#X connect 25 0 12 2;
