#N canvas 335 60 976 697 10;
#N canvas 158 51 911 672 io-ng-simple-gui 0;
#X msg 284 375 init-bang;
#X msg 282 417 2nd-bank-enabled;
#X msg 282 466 decrease-volume;
#X msg 279 507 increase-volume;
#X msg 281 556 mute-volume;
#X msg 695 127 select-track 1;
#X msg 695 158 select-track 2;
#X msg 696 195 select-track 3;
#X msg 696 230 select-track 4;
#X msg 727 390 start-stop;
#X msg 725 428 track-speed;
#X msg 724 463 track-delay;
#X obj 118 143 bng 30 250 50 0 \$0-init-bang-ng-gui empty init_bang
32 7 0 10 -262144 -1 -1;
#X obj 242 148 bng 30 250 50 0 \$0-increase-volume-ng-gui empty + 8
12 0 24 -262144 -1 -1;
#X obj 211 148 bng 30 250 50 0 \$0-decrease-volume-ng-gui empty - 8
14 0 24 -262144 -1 -1;
#X obj 273 148 tgl 30 0 \$0-mute-volume-ng-gui \$0-mute-volume mute
5 14 0 10 -262144 -1 -1 0 1;
#X obj 324 180 bng 30 250 50 0 \$0-track-speed-ng-gui empty track_speed
33 14 0 12 -262144 -1 -1;
#X obj 146 209 bng 30 250 50 0 \$0-select-track-1-ng-gui empty 1 7
14 0 25 -262144 -1 -1;
#X obj 176 209 bng 30 250 50 0 \$0-select-track-2-ng-gui empty 1 7
14 0 25 -262144 -1 -1;
#X obj 206 209 bng 30 250 50 0 \$0-select-track-3-ng-gui empty 1 7
14 0 25 -262144 -1 -1;
#X obj 236 209 bng 30 250 50 0 \$0-select-track-4-ng-gui empty 1 7
14 0 25 -262144 -1 -1;
#X obj 116 209 bng 30 250 50 0 \$0-2nd-bank-enabled-ng-gui empty 2nd
5 14 0 12 -262144 -1 -1;
#X text 211 130 volume;
#X text 273 215 tracks;
#X obj 324 150 bng 30 250 50 0 \$0-start-stop-ng-gui empty start_stop
33 14 0 12 -262144 -1 -1;
#X obj 324 210 bng 30 250 50 0 \$0-track-delay-ng-gui empty track_delay
33 14 0 12 -262144 -1 -1;
#X obj 507 76 r \$0-select-track-1-ng-gui;
#X obj 822 185 s \$0-out-message-ng-gui;
#X obj 511 112 r \$0-select-track-2-ng-gui;
#X obj 514 194 r \$0-select-track-4-ng-gui;
#X obj 515 152 r \$0-select-track-3-ng-gui;
#X obj 121 325 r \$0-init-bang-ng-gui;
#X obj 86 368 r \$0-2nd-bank-enabled-ng-gui;
#X obj 89 425 r \$0-decrease-volume-ng-gui;
#X obj 88 466 r \$0-increase-volume-ng-gui;
#X obj 83 508 r \$0-mute-volume-ng-gui;
#X obj 494 456 s \$0-out-message-ng-gui;
#X obj 826 342 r \$0-start-stop-ng-gui;
#X obj 828 394 r \$0-track-speed-ng-gui;
#X obj 826 438 r \$0-track-delay-ng-gui;
#X obj 505 592 r \$0-out-message-ng-gui;
#X obj 507 635 outlet control-message;
#X connect 0 0 36 0;
#X connect 1 0 36 0;
#X connect 2 0 36 0;
#X connect 3 0 36 0;
#X connect 4 0 36 0;
#X connect 5 0 27 0;
#X connect 6 0 27 0;
#X connect 7 0 27 0;
#X connect 8 0 27 0;
#X connect 9 0 36 0;
#X connect 10 0 36 0;
#X connect 11 0 36 0;
#X connect 26 0 5 0;
#X connect 28 0 6 0;
#X connect 29 0 8 0;
#X connect 30 0 7 0;
#X connect 31 0 0 0;
#X connect 32 0 1 0;
#X connect 33 0 2 0;
#X connect 34 0 3 0;
#X connect 35 0 4 0;
#X connect 37 0 9 0;
#X connect 38 0 10 0;
#X connect 39 0 11 0;
#X connect 40 0 41 0;
#X coords 0 -1 1 1 350 200 1 100 100;
#X restore 35 34 pd io-ng-simple-gui;
#N canvas 772 357 450 300 voice-output 0;
#X obj 87 182 dac~;
#X obj 91 49 inlet~;
#X text 91 29 input signal;
#X obj 205 46 inlet;
#X text 210 25 volume level;
#X obj 110 111 *~;
#X connect 1 0 5 0;
#X connect 3 0 5 1;
#X connect 5 0 0 0;
#X connect 5 0 0 1;
#X restore 56 799 pd voice-output;
#X obj 143 773 r \$0-volume-level;
#X obj 56 758 catch~ voice;
#X obj 212 811 print volume;
#N canvas 284 22 1280 752 8-players 0;
#X obj 37 25 inlet 2nd-bank-enabled;
#X obj 365 25 inlet start-stop;
#X obj 520 26 inlet track-speed;
#X obj 228 25 inlet init-bang;
#X obj 77 665 outlet playing-positions-1;
#X obj 518 692 outlet playing-positions-2;
#X msg 125 456 1 2 3 4;
#X msg 533 413 5 6 7 8;
#N canvas 0 22 1280 752 read-file-names 0;
#X obj 70 23 inlet init-bang;
#X text 211 386 bangs after all files have been read;
#X obj 70 384 outlet out-init-bang;
#X obj 87 200 textfile;
#X msg 66 148 bang;
#X obj 66 120 until;
#X obj 117 94 t b b b;
#X msg 126 127 rewind;
#X obj 536 379 outlet file-names-string;
#X msg 220 149 read sample-names.config cr;
#X obj 88 325 b;
#X connect 0 0 6 0;
#X connect 3 0 8 0;
#X connect 3 1 5 1;
#X connect 3 1 10 0;
#X connect 4 0 3 0;
#X connect 5 0 4 0;
#X connect 6 0 5 0;
#X connect 6 1 7 0;
#X connect 6 2 9 0;
#X connect 7 0 3 0;
#X connect 9 0 3 0;
#X connect 10 0 2 0;
#X restore 102 280 pd read-file-names;
#X obj 236 89 t b b;
#X obj 345 349 route-to-banks;
#X obj 562 361 route-to-banks;
#X obj 681 26 inlet track-delay;
#X obj 742 359 route-to-banks;
#X obj 796 690 outlet track-durations;
#N canvas 205 400 649 302 concat-durations 0;
#X obj 22 25 inlet durations-1;
#X obj 182 26 inlet durations-2;
#X obj 455 28 inlet init-bang;
#X obj 525 111 + 1;
#X obj 455 112 float;
#X obj 205 137 list;
#X obj 61 141 list;
#X obj 441 159 float;
#X obj 259 64 t b a b;
#X obj 61 66 t b a b;
#X obj 455 226 t b b;
#X obj 140 217 list;
#X obj 127 272 outlet track-durations;
#X msg 494 73 0;
#X obj 452 193 select 1;
#X connect 0 0 9 0;
#X connect 1 0 8 0;
#X connect 2 0 13 0;
#X connect 3 0 4 1;
#X connect 4 0 3 0;
#X connect 4 0 7 1;
#X connect 5 0 11 1;
#X connect 6 0 11 0;
#X connect 7 0 14 0;
#X connect 8 0 7 0;
#X connect 8 1 5 1;
#X connect 8 2 4 0;
#X connect 9 0 7 0;
#X connect 9 1 6 1;
#X connect 9 2 4 0;
#X connect 10 0 6 0;
#X connect 10 1 5 0;
#X connect 11 0 12 0;
#X connect 13 0 4 1;
#X connect 14 0 10 0;
#X restore 811 654 pd concat-durations;
#X obj 100 587 4-players;
#X obj 517 587 4-players;
#X connect 0 0 10 1;
#X connect 0 0 11 1;
#X connect 0 0 13 1;
#X connect 1 0 10 0;
#X connect 2 0 11 0;
#X connect 3 0 9 0;
#X connect 6 0 16 1;
#X connect 7 0 17 1;
#X connect 8 0 16 0;
#X connect 8 0 17 0;
#X connect 8 1 16 2;
#X connect 8 1 17 2;
#X connect 9 0 8 0;
#X connect 9 1 7 0;
#X connect 9 1 6 0;
#X connect 9 1 15 2;
#X connect 10 0 16 3;
#X connect 10 1 17 3;
#X connect 11 0 16 4;
#X connect 11 1 17 4;
#X connect 12 0 13 0;
#X connect 13 0 16 5;
#X connect 13 1 17 5;
#X connect 15 0 14 0;
#X connect 16 0 4 0;
#X connect 16 1 15 0;
#X connect 17 0 5 0;
#X connect 17 1 15 1;
#X restore 398 694 pd 8-players;
#X obj 394 788 s \$0-playing-positions-1;
#X obj 433 752 s \$0-playing-positions-2;
#X obj 395 534 r \$0-2nd-bank-enabled;
#X obj 416 571 r \$0-init-bang;
#X obj 440 602 r \$0-start-stop;
#X obj 464 634 r \$0-track-speed;
#X obj 94 688 s \$0-volume-level;
#X obj 69 722 s \$0-start-stop;
#X obj 194 580 s \$0-init-bang;
#X obj 87 531 io-interface-core;
#X obj 120 661 s \$0-track-speed;
#X obj 176 609 s \$0-2nd-bank-enabled;
#X obj 606 657 r \$0-volume-level;
#X obj 606 683 print;
#X obj 607 708 r \$0-start-stop;
#X obj 607 739 print;
#X obj 153 375 io-state-machine;
#X obj 39 307 io-ng-to-old-messages-converter;
#X obj 246 411 print old-control-message;
#X obj 23 273 r \$0-reset-bang;
#X obj 689 103 s \$0-reset-bang;
#X obj 662 24 loadbang;
#X obj 607 104 delay 1000;
#X msg 607 127 \; pd dsp 1;
#X obj 662 52 t b b;
#X obj 470 296 playing-monitor-gui;
#X text 467 236 debug playing positions of tracks;
#X obj 470 265 r \$0-playing-positions-1;
#X obj 693 297 playing-monitor-gui;
#X text 690 237 debug playing positions of tracks;
#X obj 693 266 r \$0-playing-positions-2;
#X obj 134 251 print io-ng-gui-control-message;
#X obj 149 636 s \$0-track-delay;
#X obj 474 661 r \$0-track-delay;
#X obj 467 727 s \$0-track-durations;
#X obj 186 490 r \$0-track-durations;
#X obj 351 453 r \$0-track-delay;
#X obj 355 488 print;
#X connect 0 0 23 1;
#X connect 0 0 37 0;
#X connect 2 0 1 1;
#X connect 2 0 4 0;
#X connect 3 0 1 0;
#X connect 5 0 6 0;
#X connect 5 1 7 0;
#X connect 5 2 40 0;
#X connect 8 0 5 0;
#X connect 9 0 5 1;
#X connect 10 0 5 2;
#X connect 11 0 5 3;
#X connect 15 0 13 0;
#X connect 15 1 12 0;
#X connect 15 2 16 0;
#X connect 15 3 38 0;
#X connect 15 4 17 0;
#X connect 15 5 14 0;
#X connect 18 0 19 0;
#X connect 20 0 21 0;
#X connect 22 1 24 0;
#X connect 22 1 15 0;
#X connect 23 0 22 0;
#X connect 23 1 22 1;
#X connect 25 0 23 0;
#X connect 27 0 30 0;
#X connect 28 0 29 0;
#X connect 30 0 28 0;
#X connect 30 1 26 0;
#X connect 33 0 31 0;
#X connect 36 0 34 0;
#X connect 39 0 5 4;
#X connect 41 0 15 1;
#X connect 42 0 43 0;
