#N canvas 320 22 1280 752 10;
#N canvas 772 357 450 300 voice-output 0;
#X obj 87 182 dac~;
#X obj 91 49 inlet~;
#X text 91 29 input signal;
#X obj 205 46 inlet;
#X text 210 25 volume level;
#X obj 110 111 *~;
#X connect 1 0 5 0;
#X connect 3 0 5 1;
#X connect 5 0 0 0;
#X connect 5 0 0 1;
#X restore 27 603 pd voice-output;
#X obj 141 389 s \$0-volume-level;
#X obj 116 423 s \$0-start-stop;
#X obj 114 577 r \$0-volume-level;
#X obj 584 33 r \$0-volume-level;
#X obj 584 59 print;
#X obj 236 312 s \$0-init-bang;
#X obj 852 502 playing-monitor-gui;
#X obj 27 562 catch~ voice;
#X obj 585 84 r \$0-start-stop;
#X obj 585 115 print;
#X text 849 442 debug playing positions of tracks;
#X obj 129 263 io-interface-core;
#X obj 391 174 io-interface-midi;
#X obj 391 143 r \$0-init-bang;
#X obj 407 206 print control-message;
#X obj 128 32 io-interface-gui;
#X obj 167 362 s \$0-track-speed;
#X obj 145 212 print control-message;
#N canvas 284 22 1280 752 8-players 0;
#X obj 37 25 inlet 2nd-bank-enabled;
#X obj 365 25 inlet start-stop;
#X obj 520 26 inlet track-speed;
#X obj 228 25 inlet init-bang;
#X obj 98 570 outlet playing-positions-1;
#X obj 515 566 outlet playing-positions-2;
#X msg 125 456 1 2 3 4;
#X msg 549 424 5 6 7 8;
#N canvas 0 22 1280 752 read-file-names 0;
#X obj 70 23 inlet init-bang;
#X text 211 386 bangs after all files have been read;
#X obj 70 384 outlet out-init-bang;
#X obj 87 200 textfile;
#X msg 66 148 bang;
#X obj 66 120 until;
#X obj 117 94 t b b b;
#X msg 126 127 rewind;
#X obj 536 379 outlet file-names-string;
#X msg 220 149 read sample-names.config cr;
#X obj 88 325 b;
#X connect 0 0 6 0;
#X connect 3 0 8 0;
#X connect 3 1 5 1;
#X connect 3 1 10 0;
#X connect 4 0 3 0;
#X connect 5 0 4 0;
#X connect 6 0 5 0;
#X connect 6 1 7 0;
#X connect 6 2 9 0;
#X connect 7 0 3 0;
#X connect 9 0 3 0;
#X connect 10 0 2 0;
#X restore 102 280 pd read-file-names;
#X obj 236 89 t b b;
#X obj 98 530 4-players;
#X obj 515 530 4-players;
#X obj 384 376 route-to-banks;
#X obj 562 361 route-to-banks;
#X connect 0 0 12 1;
#X connect 0 0 13 1;
#X connect 1 0 12 0;
#X connect 2 0 13 0;
#X connect 3 0 9 0;
#X connect 6 0 10 1;
#X connect 7 0 11 1;
#X connect 8 0 10 0;
#X connect 8 0 11 0;
#X connect 8 1 10 2;
#X connect 8 1 11 2;
#X connect 9 0 8 0;
#X connect 9 1 7 0;
#X connect 9 1 6 0;
#X connect 10 0 4 0;
#X connect 11 0 5 0;
#X connect 12 0 10 3;
#X connect 12 1 11 3;
#X connect 13 0 10 4;
#X connect 13 1 11 4;
#X restore 438 531 pd 8-players;
#X obj 434 625 s \$0-playing-positions-1;
#X obj 453 589 s \$0-playing-positions-2;
#X obj 439 391 r \$0-2nd-bank-enabled;
#X obj 460 428 r \$0-init-bang;
#X obj 484 459 r \$0-start-stop;
#X obj 508 491 r \$0-track-speed;
#X obj 199 341 s \$0-2nd-bank-enabled;
#X obj 73 8 r \$0-init-bang;
#X obj 492 140 r \$0-2nd-bank-enabled;
#X obj 852 471 r \$0-playing-positions-1;
#X obj 183 615 print volume;
#X obj 760 101 read-config-file;
#X obj 761 32 loadbang;
#X obj 760 194 io-state-machine;
#X obj 853 230 print control-message;
#X obj 760 133 io-net-server-core;
#X msg 761 65 io-net-server-ui.config;
#X connect 3 0 0 1;
#X connect 3 0 30 0;
#X connect 4 0 5 0;
#X connect 8 0 0 0;
#X connect 9 0 10 0;
#X connect 12 0 2 0;
#X connect 12 1 1 0;
#X connect 12 2 17 0;
#X connect 12 3 26 0;
#X connect 12 4 6 0;
#X connect 13 0 12 0;
#X connect 13 0 15 0;
#X connect 14 0 13 0;
#X connect 16 0 12 0;
#X connect 16 0 18 0;
#X connect 19 0 20 0;
#X connect 19 1 21 0;
#X connect 22 0 19 0;
#X connect 23 0 19 1;
#X connect 24 0 19 2;
#X connect 25 0 19 3;
#X connect 27 0 16 0;
#X connect 28 0 13 1;
#X connect 29 0 7 0;
#X connect 31 0 35 0;
#X connect 32 0 36 0;
#X connect 33 1 34 0;
#X connect 33 1 12 0;
#X connect 35 0 33 0;
#X connect 35 1 33 1;
#X connect 36 0 31 0;
