#N canvas 257 97 868 522 10;
#X obj 162 370 outlet;
#X obj 157 222 bang;
#X text 218 369 output bang;
#X text 505 41 output message;
#X obj 172 262 list;
#X msg 169 319 \$1;
#X text 180 50 input bang;
#X obj 78 50 inlet input-bang;
#X obj 367 42 inlet output-message;
#X connect 1 0 4 0;
#X connect 4 0 5 0;
#X connect 5 0 0 0;
#X connect 7 0 1 0;
#X connect 8 0 4 1;
