#N canvas 0 22 976 505 10;
#X obj 329 404 outlet ctrl-message;
#X obj 230 192 select;
#X obj 139 163 unpack f f;
#X obj 169 288 float;
#X obj 213 237 t b b;
#X obj 277 373 list trim;
#X obj 32 29 inlet output-message;
#X obj 188 31 inlet command-stream;
#X obj 347 31 inlet button-number-to-listen;
#X obj 66 292 list;
#X obj 196 350 list;
#X connect 1 0 4 0;
#X connect 2 0 1 0;
#X connect 2 1 3 1;
#X connect 3 0 10 1;
#X connect 4 0 9 0;
#X connect 4 1 3 0;
#X connect 5 0 0 0;
#X connect 6 0 9 1;
#X connect 7 0 2 0;
#X connect 8 0 1 1;
#X connect 9 0 10 0;
#X connect 10 0 5 0;
