#N canvas 208 230 949 439 10;
#N canvas 491 160 349 481 creator 0;
#X obj 101 274 f \$0;
#X obj 101 297 makefilename %d_core;
#X obj 130 75 inlet port-number;
#X obj 15 76 inlet init-bang;
#X msg 101 339 \; \$1 obj 100 100 netreceive \$2 1 \; \$1 connect 2
0 0 0;
#X obj 101 320 pack s f;
#X obj 36 358 print;
#X connect 0 0 1 0;
#X connect 1 0 5 0;
#X connect 2 0 5 1;
#X connect 3 0 0 0;
#X connect 5 0 4 0;
#X connect 5 0 6 0;
#X restore 119 180 pd creator;
#X obj 39 202 outlet;
#N canvas 408 447 410 192 core 0;
#X obj 100 126 outlet;
#X obj 259 32 namecanvas \$0_core;
#X obj 100 100 netreceive 8086 1;
#X obj 100 100 netreceive 3000;
#X obj 100 100 netreceive 3000 1;
#X connect 2 0 0 0;
#X connect 2 0 0 0;
#X connect 2 0 0 0;
#X restore 39 180 pd core;
#X obj 139 69 inlet port-number;
#X obj 11 69 inlet init-bang;
#X connect 2 0 1 0;
#X connect 3 0 0 1;
#X connect 4 0 0 0;
