#N canvas 12 22 1264 544 10;
#X obj 333 51 inlet events-stream;
#X obj 63 54 inlet event-to-filter-and-reset;
#X text 209 489 output bang;
#X obj 304 489 outlet output-message;
#X obj 85 490 outlet output-bang;
#X obj 245 246 route symbol;
#X obj 343 355 bang;
#X obj 171 139 list;
#X obj 341 183 unpack s f;
#X obj 389 304 route;
#X connect 0 0 5 0;
#X connect 1 0 3 0;
#X connect 1 0 7 0;
#X connect 5 0 9 0;
#X connect 6 0 4 0;
#X connect 7 0 8 0;
#X connect 8 0 5 1;
#X connect 8 1 9 1;
#X connect 9 0 6 0;
