#N canvas 0 22 450 300 10;
#X obj 24 24 inlet init-bang;
#X obj 144 25 inlet player-number;
#X obj 289 25 inlet file-names-stream;
#X obj 235 124 list;
#X msg 173 151 set \$1;
#X obj 115 237 outlet init-message-with-file-name;
#X msg 117 182;
#X obj 276 84 route;
#X connect 0 0 6 0;
#X connect 1 0 7 1;
#X connect 2 0 7 0;
#X connect 3 0 4 0;
#X connect 4 0 6 0;
#X connect 6 0 5 0;
#X connect 7 0 3 0;
