#N canvas 23 45 1280 752 10;
#X obj 149 43 notein;
#X obj 14 79 print note;
#X obj 149 78 stripnote;
#X obj 149 110 s \$0-note;
#X obj 14 49 r \$0-note;
#X text 13 19 debug midi note;
#X text 147 17 get midi note;
#X obj 421 396 r \$0-note;
#X obj 10 395 r \$0-note;
#X obj 10 423 midi-bang-control;
#X obj 174 669 outlet;
#X obj 148 397 r \$0-note;
#X obj 285 397 r \$0-note;
#X obj 928 389 r \$0-note;
#X obj 611 396 r \$0-note;
#X obj 1088 387 r \$0-note;
#X obj 775 390 r \$0-note;
#X obj 300 44 inlet;
#X text 354 44 init bang;
#X text 238 658 output interface: init-bang - init bang increase-volume
- increase volume decrease-volume - decrease volume mute-volume 0/1
- mute volume track-ctrl <track no> 1/0 - track playing control;
#X msg 52 313 init-bang;
#X msg 151 312 decrease-volume;
#X msg 288 312 increase-volume;
#X obj 312 81 t b b;
#N canvas 653 210 450 300 read-midi-notes-from-file 0;
#X obj 46 25 inlet;
#X text 99 22 init bang;
#X obj 73 259 outlet;
#X obj 66 156 textfile;
#X msg 45 104 bang;
#X obj 45 76 until;
#X obj 96 50 t b b b;
#X msg 105 83 rewind;
#X msg 199 105 read io-interface-midi-notes.txt cr;
#X connect 0 0 6 0;
#X connect 3 0 2 0;
#X connect 3 1 5 1;
#X connect 4 0 3 0;
#X connect 5 0 4 0;
#X connect 6 0 5 0;
#X connect 6 1 7 0;
#X connect 6 2 8 0;
#X connect 7 0 3 0;
#X connect 8 0 3 0;
#X restore 439 209 pd read-midi-notes-from-file;
#X obj 148 425 midi-bang-control;
#X obj 285 425 midi-bang-control;
#X msg 459 305 mute-volume;
#X obj 421 426 midi-toggle-control;
#X msg 605 307 track-ctrl 1;
#X msg 813 313 track-ctrl 2;
#X msg 963 326 track-ctrl 3;
#X msg 1106 328 track-ctrl 4;
#X obj 611 426 midi-toggle-control-2;
#X obj 510 116 print setting ctrl-messages;
#X obj 612 142 print parsing ctrl-notes;
#X obj 430 66 print init-bang;
#X obj 775 420 midi-toggle-control-2;
#X obj 928 419 midi-toggle-control-2;
#X obj 1088 417 midi-toggle-control-2;
#X obj 1261 402 r \$0-note;
#X msg 1303 320 track-speed 1;
#X obj 1410 405 r \$0-note;
#X obj 1580 405 r \$0-note;
#X obj 1729 408 r \$0-note;
#X msg 1452 323 track-speed 2;
#X msg 1622 323 track-speed 3;
#X msg 1771 326 track-speed 4;
#X obj 1261 430 midi-bang-control-2;
#X obj 1410 433 midi-bang-control-2;
#X obj 1580 433 midi-bang-control-2;
#X obj 1729 436 midi-bang-control-2;
#X connect 0 0 2 0;
#X connect 0 1 2 1;
#X connect 2 0 3 0;
#X connect 4 0 1 0;
#X connect 7 0 28 0;
#X connect 8 0 9 0;
#X connect 9 0 10 0;
#X connect 11 0 25 0;
#X connect 12 0 26 0;
#X connect 13 0 38 0;
#X connect 14 0 33 0;
#X connect 15 0 39 0;
#X connect 16 0 37 0;
#X connect 17 0 23 0;
#X connect 17 0 36 0;
#X connect 20 0 9 1;
#X connect 21 0 25 1;
#X connect 22 0 26 1;
#X connect 23 0 24 0;
#X connect 23 0 35 0;
#X connect 23 1 22 0;
#X connect 23 1 21 0;
#X connect 23 1 20 0;
#X connect 23 1 27 0;
#X connect 23 1 29 0;
#X connect 23 1 30 0;
#X connect 23 1 31 0;
#X connect 23 1 32 0;
#X connect 23 1 34 0;
#X connect 23 1 41 0;
#X connect 23 1 45 0;
#X connect 23 1 46 0;
#X connect 23 1 47 0;
#X connect 24 0 9 2;
#X connect 24 0 25 2;
#X connect 24 0 26 2;
#X connect 24 0 28 2;
#X connect 24 0 33 2;
#X connect 24 0 37 2;
#X connect 24 0 38 2;
#X connect 24 0 39 2;
#X connect 24 0 48 2;
#X connect 24 0 49 2;
#X connect 24 0 50 2;
#X connect 24 0 51 2;
#X connect 25 0 10 0;
#X connect 26 0 10 0;
#X connect 27 0 28 1;
#X connect 28 0 10 0;
#X connect 29 0 33 1;
#X connect 30 0 37 1;
#X connect 31 0 38 1;
#X connect 32 0 39 1;
#X connect 33 0 10 0;
#X connect 37 0 10 0;
#X connect 38 0 10 0;
#X connect 39 0 10 0;
#X connect 40 0 48 0;
#X connect 41 0 48 1;
#X connect 42 0 49 0;
#X connect 43 0 50 0;
#X connect 44 0 51 0;
#X connect 45 0 49 1;
#X connect 46 0 50 1;
#X connect 47 0 51 1;
#X connect 48 0 10 0;
#X connect 49 0 10 0;
#X connect 50 0 10 0;
#X connect 51 0 10 0;
