#N canvas 15 152 1280 752 10;
#X obj 137 41 notein;
#X obj 14 79 print note;
#X obj 137 76 stripnote;
#X obj 137 108 s \$0-note;
#X obj 14 49 r \$0-note;
#X text 13 19 debug midi note;
#X text 135 15 get midi note;
#X obj 218 401 r \$0-note;
#X obj -193 400 r \$0-note;
#X obj -193 428 midi-bang-control;
#X obj 174 669 outlet;
#X obj -55 402 r \$0-note;
#X obj 82 402 r \$0-note;
#X obj 321 38 inlet;
#X text 375 38 init bang;
#X text 238 658 output interface: init-bang - init bang increase-volume
- increase volume decrease-volume - decrease volume mute-volume 0/1
- mute volume track-ctrl <track no> 1/0 - track playing control;
#X msg -176 368 init-bang;
#X msg -31 372 decrease-volume;
#X msg 108 370 increase-volume;
#X obj 312 81 t b b;
#N canvas 653 210 450 300 read-midi-notes-from-file 0;
#X obj 46 25 inlet;
#X text 99 22 init bang;
#X obj 73 259 outlet;
#X obj 66 156 textfile;
#X msg 45 104 bang;
#X obj 45 76 until;
#X obj 96 50 t b b b;
#X msg 105 83 rewind;
#X msg 199 105 read io-interface-midi-notes.txt cr;
#X connect 0 0 6 0;
#X connect 3 0 2 0;
#X connect 3 1 5 1;
#X connect 4 0 3 0;
#X connect 5 0 4 0;
#X connect 6 0 5 0;
#X connect 6 1 7 0;
#X connect 6 2 8 0;
#X connect 7 0 3 0;
#X connect 8 0 3 0;
#X restore 254 148 pd read-midi-notes-from-file;
#X msg 259 369 mute-volume;
#X obj 430 66 print init-bang;
#X msg 494 335 2nd-bank-enabled;
#X obj 393 427 midi-on-hold-toggle-control;
#X obj 96 133 s \$0-raw-note;
#X obj 202 65 s \$0-raw-velocity;
#X obj 393 397 r \$0-raw-note;
#X obj 448 368 r \$0-raw-velocity;
#X obj 376 117 s \$0-set-ctrl-message;
#X obj 12 222 r \$0-set-ctrl-message;
#X obj 254 175 s \$0-midi-notes-config-stream;
#X obj 260 248 r \$0-midi-notes-config-stream;
#X obj 726 316 r \$0-set-ctrl-message;
#X obj 781 353 r \$0-midi-notes-config-stream;
#X obj 599 28 inlet 2nd-bank-enabled;
#X obj 599 61 s \$0-2nd-bank-enabled;
#N canvas 0 22 1280 752 start-stop-controls 0;
#X obj 36 31 inlet note;
#X obj 500 13 inlet set-ctrl-message;
#X obj 934 15 inlet midi-notes-config-stream;
#X obj 1146 39 inlet 2nd-bank-enabled;
#X obj 673 591 outlet out-messages;
#X msg 139 196 track-ctrl 1;
#X msg 299 197 track-ctrl 2;
#X msg 451 199 track-ctrl 3;
#X msg 615 200 track-ctrl 4;
#X obj 77 238 midi-toggle-control-2;
#X msg 841 200 track-ctrl 1;
#X msg 1004 201 track-ctrl 2;
#X msg 1154 187 track-ctrl 3;
#X msg 1318 176 track-ctrl 4;
#X obj 228 80 route-to-banks;
#X obj 240 236 midi-toggle-control-2;
#X obj 392 234 midi-toggle-control-2;
#X obj 554 229 midi-toggle-control-2;
#X obj 781 235 midi-toggle-control-2;
#X obj 944 233 midi-toggle-control-2;
#X obj 1096 231 midi-toggle-control-2;
#X obj 1258 226 midi-toggle-control-2;
#X connect 0 0 14 0;
#X connect 1 0 5 0;
#X connect 1 0 6 0;
#X connect 1 0 7 0;
#X connect 1 0 8 0;
#X connect 1 0 10 0;
#X connect 1 0 11 0;
#X connect 1 0 12 0;
#X connect 1 0 13 0;
#X connect 2 0 9 2;
#X connect 2 0 15 2;
#X connect 2 0 16 2;
#X connect 2 0 17 2;
#X connect 2 0 18 2;
#X connect 2 0 19 2;
#X connect 2 0 20 2;
#X connect 2 0 21 2;
#X connect 3 0 14 1;
#X connect 5 0 9 1;
#X connect 6 0 15 1;
#X connect 7 0 16 1;
#X connect 8 0 17 1;
#X connect 9 0 4 0;
#X connect 10 0 18 1;
#X connect 11 0 19 1;
#X connect 12 0 20 1;
#X connect 13 0 21 1;
#X connect 14 0 9 0;
#X connect 14 0 15 0;
#X connect 14 0 16 0;
#X connect 14 0 17 0;
#X connect 14 1 18 0;
#X connect 14 1 19 0;
#X connect 14 1 20 0;
#X connect 14 1 21 0;
#X connect 15 0 4 0;
#X connect 16 0 4 0;
#X connect 17 0 4 0;
#X connect 18 0 4 0;
#X connect 19 0 4 0;
#X connect 20 0 4 0;
#X connect 21 0 4 0;
#X restore 723 431 pd start-stop-controls;
#X obj 712 383 r \$0-note;
#X obj 858 391 r \$0-2nd-bank-enabled;
#N canvas 0 22 1280 752 track-speeds-controls 0;
#X obj 46 41 inlet note;
#X obj 501 14 inlet set-ctrl-message;
#X obj 988 16 inlet midi-notes-config-stream;
#X obj 1156 49 inlet 2nd-bank-enabled;
#X obj 683 601 outlet out-messages;
#X obj 238 90 route-to-banks;
#X msg 61 383 track-speed 1;
#X msg 195 383 track-speed 2;
#X msg 367 387 track-speed 3;
#X msg 509 394 track-speed 4;
#X msg 926 331 track-speed 1;
#X msg 1060 331 track-speed 2;
#X msg 1232 335 track-speed 3;
#X msg 1374 342 track-speed 4;
#X obj 882 394 midi-bang-control-2;
#X obj 17 446 midi-bang-control-2;
#X obj 166 448 midi-bang-control-2;
#X obj 337 449 midi-bang-control-2;
#X obj 480 453 midi-bang-control-2;
#X obj 1031 396 midi-bang-control-2;
#X obj 1202 397 midi-bang-control-2;
#X obj 1345 401 midi-bang-control-2;
#X connect 0 0 5 0;
#X connect 1 0 6 0;
#X connect 1 0 7 0;
#X connect 1 0 8 0;
#X connect 1 0 9 0;
#X connect 1 0 10 0;
#X connect 1 0 11 0;
#X connect 1 0 12 0;
#X connect 1 0 13 0;
#X connect 2 0 14 2;
#X connect 2 0 15 2;
#X connect 2 0 16 2;
#X connect 2 0 17 2;
#X connect 2 0 18 2;
#X connect 2 0 19 2;
#X connect 2 0 20 2;
#X connect 2 0 21 2;
#X connect 3 0 5 1;
#X connect 5 0 15 0;
#X connect 5 0 16 0;
#X connect 5 0 17 0;
#X connect 5 0 18 0;
#X connect 5 1 14 0;
#X connect 5 1 19 0;
#X connect 5 1 20 0;
#X connect 5 1 21 0;
#X connect 6 0 15 1;
#X connect 7 0 16 1;
#X connect 8 0 17 1;
#X connect 9 0 18 1;
#X connect 10 0 14 1;
#X connect 11 0 19 1;
#X connect 12 0 20 1;
#X connect 13 0 21 1;
#X connect 14 0 4 0;
#X connect 15 0 4 0;
#X connect 16 0 4 0;
#X connect 17 0 4 0;
#X connect 18 0 4 0;
#X connect 19 0 4 0;
#X connect 20 0 4 0;
#X connect 21 0 4 0;
#X restore 1056 446 pd track-speeds-controls;
#X obj 1049 322 r \$0-set-ctrl-message;
#X obj 1104 359 r \$0-midi-notes-config-stream;
#X obj 1035 389 r \$0-note;
#X obj 1181 397 r \$0-2nd-bank-enabled;
#X obj -55 430 midi-bang-control;
#X obj 82 430 midi-bang-control;
#X obj 218 431 midi-toggle-control;
#X connect 0 0 2 0;
#X connect 0 0 25 0;
#X connect 0 1 2 1;
#X connect 0 1 26 0;
#X connect 2 0 3 0;
#X connect 4 0 1 0;
#X connect 7 0 47 0;
#X connect 8 0 9 0;
#X connect 9 0 10 0;
#X connect 11 0 45 0;
#X connect 12 0 46 0;
#X connect 13 0 19 0;
#X connect 13 0 22 0;
#X connect 16 0 9 1;
#X connect 17 0 45 1;
#X connect 18 0 46 1;
#X connect 19 0 20 0;
#X connect 19 1 29 0;
#X connect 20 0 31 0;
#X connect 21 0 47 1;
#X connect 23 0 24 2;
#X connect 24 0 10 0;
#X connect 27 0 24 0;
#X connect 28 0 24 1;
#X connect 30 0 16 0;
#X connect 30 0 17 0;
#X connect 30 0 18 0;
#X connect 30 0 21 0;
#X connect 30 0 23 0;
#X connect 32 0 9 2;
#X connect 32 0 24 3;
#X connect 32 0 45 2;
#X connect 32 0 46 2;
#X connect 32 0 47 2;
#X connect 33 0 37 1;
#X connect 34 0 37 2;
#X connect 35 0 36 0;
#X connect 37 0 10 0;
#X connect 38 0 37 0;
#X connect 39 0 37 3;
#X connect 40 0 10 0;
#X connect 41 0 40 1;
#X connect 42 0 40 2;
#X connect 43 0 40 0;
#X connect 44 0 40 3;
#X connect 45 0 10 0;
#X connect 46 0 10 0;
#X connect 47 0 10 0;
