#N canvas 125 40 1086 658 10;
#X obj 498 36 loadbang;
#N canvas 252 164 635 432 volume-control 0;
#X obj 38 42 inlet;
#X text 34 19 increase volume;
#X obj 155 44 inlet;
#X text 156 19 decrease volume;
#X obj 209 381 outlet;
#X obj 480 54 inlet;
#X text 477 28 init bang;
#X obj 202 188 float;
#X msg 525 126 0.5;
#N canvas 808 287 450 300 do-decrease-volume 0;
#X obj 101 38 inlet;
#X obj 112 241 outlet;
#X text 87 11 bang to change;
#X obj 205 40 inlet;
#X text 200 15 current level;
#X text 174 239 output level;
#X obj 112 211 clip 0 1;
#X obj 110 110 float;
#X obj 111 182 - 0.2;
#X obj 314 39 inlet;
#X text 314 17 muted;
#X obj 295 81 select 0;
#X text 334 64 comment;
#X msg 271 110 0.2;
#X msg 343 112 0;
#X connect 0 0 7 0;
#X connect 3 0 7 1;
#X connect 6 0 1 0;
#X connect 7 0 8 0;
#X connect 8 0 6 0;
#X connect 9 0 11 0;
#X connect 11 0 13 0;
#X connect 11 1 14 0;
#X connect 13 0 8 1;
#X connect 14 0 8 1;
#X restore 151 69 pd do-decrease-volume;
#N canvas 587 381 450 300 do-increase-volume 0;
#X obj 111 48 inlet;
#X obj 122 251 outlet;
#X text 97 21 bang to change;
#X obj 235 50 inlet;
#X text 230 25 current level;
#X text 184 249 output level;
#X obj 122 218 clip 0 1;
#X obj 122 187 + 0.2;
#X obj 122 136 float;
#X obj 340 51 inlet;
#X text 341 27 muted;
#X obj 338 84 select 0;
#X msg 328 115 0.2;
#X msg 381 115 0;
#X connect 0 0 8 0;
#X connect 3 0 8 1;
#X connect 6 0 1 0;
#X connect 7 0 6 0;
#X connect 8 0 7 0;
#X connect 9 0 11 0;
#X connect 11 0 12 0;
#X connect 11 1 13 0;
#X connect 12 0 7 1;
#X connect 13 0 7 1;
#X restore 43 145 pd do-increase-volume;
#X obj 389 33 inlet;
#X text 395 16 mute;
#X obj 490 86 t b b b;
#N canvas 202 323 450 300 mute-control 0;
#X obj 150 78 inlet;
#X obj 320 86 inlet;
#X text 151 21 mute control;
#X text 151 39 1 -mute;
#X text 149 58 0 - no;
#X text 317 67 init bang;
#X obj 62 81 inlet;
#X text 59 43 volume;
#X obj 113 270 outlet;
#X text 172 267 out volume;
#X obj 113 238 *;
#X obj 145 108 select 0;
#X obj 146 184 float;
#X obj 140 212 t b f;
#X msg 134 152 1;
#X msg 186 153 0;
#X connect 0 0 11 0;
#X connect 1 0 14 0;
#X connect 6 0 10 0;
#X connect 10 0 8 0;
#X connect 11 0 14 0;
#X connect 11 1 15 0;
#X connect 12 0 13 0;
#X connect 13 0 10 0;
#X connect 13 1 10 1;
#X connect 14 0 12 0;
#X connect 15 0 12 0;
#X restore 241 276 pd mute-control;
#X connect 0 0 10 0;
#X connect 2 0 9 0;
#X connect 5 0 13 0;
#X connect 7 0 9 1;
#X connect 7 0 10 1;
#X connect 7 0 14 0;
#X connect 8 0 7 1;
#X connect 9 0 7 0;
#X connect 10 0 7 0;
#X connect 11 0 14 1;
#X connect 11 0 9 2;
#X connect 11 0 10 2;
#X connect 13 0 7 0;
#X connect 13 1 8 0;
#X connect 13 2 14 2;
#X connect 14 0 4 0;
#X restore 618 225 pd volume-control;
#X text 336 530 volume-control;
#X obj 498 66 s \$0-init-bang;
#X obj 715 133 r \$0-init-bang;
#X obj 219 517 r \$0-volume-level;
#X obj 618 265 s \$0-volume-level;
#X obj 889 509 r \$0-init-bang;
#X text 988 525 init bang;
#X obj 620 162 r \$0-increase-volume;
#X obj 736 191 r \$0-decrease-volume;
#X obj 658 71 r \$0-mute-volume;
#X text 122 505 start-stop;
#X obj 98 69 inlet;
#X text 147 67 stream of commands;
#N canvas 401 261 760 378 parse-commands-stream 0;
#X obj 91 21 inlet;
#X text 135 17 commands stream;
#X obj 91 159 s \$0-init-bang;
#X obj 161 189 s \$0-increase-volume;
#X obj 232 213 s \$0-decrease-volume;
#X obj 306 238 s \$0-mute-volume;
#X obj 375 279 s \$0-track-ctrl;
#X obj 461 249 s \$0-track-speed-message;
#X obj 496 213 s \$0-2nd-bank-enabled;
#X obj 587 151 print unknown command;
#X obj 118 57 print io-interface-core-input;
#X obj 91 110 route init-bang increase-volume decrease-volume mute-volume
track-ctrl track-speed 2nd-bank-enabled track-delay;
#X obj 550 187 s \$0-track-delay-message;
#X connect 0 0 10 0;
#X connect 0 0 11 0;
#X connect 11 0 2 0;
#X connect 11 1 3 0;
#X connect 11 2 4 0;
#X connect 11 3 5 0;
#X connect 11 4 6 0;
#X connect 11 5 7 0;
#X connect 11 6 8 0;
#X connect 11 7 12 0;
#X connect 11 8 9 0;
#X restore 100 133 pd parse-commands-stream;
#X obj 28 487 r \$0-track-ctrl;
#X obj 26 530 outlet start-stop;
#X obj 219 549 outlet volume-level;
#X obj 436 549 outlet track-speed;
#X obj 889 544 outlet init-bang;
#N canvas 0 22 1280 752 track-speed-control 0;
#X obj 28 25 inlet track-speed-messages;
#X obj 347 25 inlet init bang;
#X obj 103 390 select 1 2 3 4;
#N canvas 369 148 723 496 track-speed 0;
#X obj 30 22 inlet bang-to-change;
#X obj 484 44 inlet init-bang;
#X obj 418 281 outlet track-speed;
#X msg 481 83 1;
#X obj 436 202 float;
#X obj 432 111 t b f;
#X obj 277 76 > 2;
#X obj 210 78 < 0.2;
#X obj 179 210 float;
#X msg 231 172 0.2;
#X msg 292 165 -0.2;
#X obj 231 147 b;
#X obj 292 140 b;
#X obj 148 280 +;
#X obj 215 111 select 1;
#X obj 291 107 select 1;
#X obj 148 151 b;
#X connect 0 0 16 0;
#X connect 1 0 3 0;
#X connect 1 0 11 0;
#X connect 3 0 5 0;
#X connect 4 0 2 0;
#X connect 4 0 13 1;
#X connect 5 0 4 0;
#X connect 5 1 4 1;
#X connect 6 0 15 0;
#X connect 7 0 14 0;
#X connect 8 0 13 0;
#X connect 9 0 8 1;
#X connect 10 0 8 1;
#X connect 11 0 9 0;
#X connect 12 0 10 0;
#X connect 13 0 7 0;
#X connect 13 0 6 0;
#X connect 13 0 4 0;
#X connect 14 0 11 0;
#X connect 15 0 12 0;
#X connect 16 0 8 0;
#X restore 46 476 pd track-speed;
#N canvas 369 148 723 496 track-speed 0;
#X obj 30 22 inlet bang-to-change;
#X obj 484 44 inlet init-bang;
#X obj 418 281 outlet track-speed;
#X msg 481 83 1;
#X obj 436 202 float;
#X obj 432 111 t b f;
#X obj 277 76 > 2;
#X obj 210 78 < 0.2;
#X obj 179 210 float;
#X msg 231 172 0.2;
#X msg 292 165 -0.2;
#X obj 231 147 b;
#X obj 292 140 b;
#X obj 148 280 +;
#X obj 215 111 select 1;
#X obj 291 107 select 1;
#X connect 0 0 8 0;
#X connect 1 0 3 0;
#X connect 1 0 11 0;
#X connect 3 0 5 0;
#X connect 4 0 2 0;
#X connect 4 0 13 1;
#X connect 5 0 4 0;
#X connect 5 1 4 1;
#X connect 6 0 15 0;
#X connect 7 0 14 0;
#X connect 8 0 13 0;
#X connect 9 0 8 1;
#X connect 10 0 8 1;
#X connect 11 0 9 0;
#X connect 12 0 10 0;
#X connect 13 0 7 0;
#X connect 13 0 6 0;
#X connect 13 0 4 0;
#X connect 14 0 11 0;
#X connect 15 0 12 0;
#X restore 180 476 pd track-speed;
#N canvas 369 148 723 496 track-speed 0;
#X obj 30 22 inlet bang-to-change;
#X obj 484 44 inlet init-bang;
#X obj 418 281 outlet track-speed;
#X msg 481 83 1;
#X obj 436 202 float;
#X obj 432 111 t b f;
#X obj 277 76 > 2;
#X obj 210 78 < 0.2;
#X obj 179 210 float;
#X msg 231 172 0.2;
#X msg 292 165 -0.2;
#X obj 231 147 b;
#X obj 292 140 b;
#X obj 148 280 +;
#X obj 215 111 select 1;
#X obj 291 107 select 1;
#X connect 0 0 8 0;
#X connect 1 0 3 0;
#X connect 1 0 11 0;
#X connect 3 0 5 0;
#X connect 4 0 2 0;
#X connect 4 0 13 1;
#X connect 5 0 4 0;
#X connect 5 1 4 1;
#X connect 6 0 15 0;
#X connect 7 0 14 0;
#X connect 8 0 13 0;
#X connect 9 0 8 1;
#X connect 10 0 8 1;
#X connect 11 0 9 0;
#X connect 12 0 10 0;
#X connect 13 0 7 0;
#X connect 13 0 6 0;
#X connect 13 0 4 0;
#X connect 14 0 11 0;
#X connect 15 0 12 0;
#X restore 296 478 pd track-speed;
#N canvas 369 148 723 496 track-speed 0;
#X obj 30 22 inlet bang-to-change;
#X obj 484 44 inlet init-bang;
#X obj 418 281 outlet track-speed;
#X msg 481 83 1;
#X obj 436 202 float;
#X obj 432 111 t b f;
#X obj 277 76 > 2;
#X obj 210 78 < 0.2;
#X obj 179 210 float;
#X msg 231 172 0.2;
#X msg 292 165 -0.2;
#X obj 231 147 b;
#X obj 292 140 b;
#X obj 148 280 +;
#X obj 215 111 select 1;
#X obj 291 107 select 1;
#X connect 0 0 8 0;
#X connect 1 0 3 0;
#X connect 1 0 11 0;
#X connect 3 0 5 0;
#X connect 4 0 2 0;
#X connect 4 0 13 1;
#X connect 5 0 4 0;
#X connect 5 1 4 1;
#X connect 6 0 15 0;
#X connect 7 0 14 0;
#X connect 8 0 13 0;
#X connect 9 0 8 1;
#X connect 10 0 8 1;
#X connect 11 0 9 0;
#X connect 12 0 10 0;
#X connect 13 0 7 0;
#X connect 13 0 6 0;
#X connect 13 0 4 0;
#X connect 14 0 11 0;
#X connect 15 0 12 0;
#X restore 414 478 pd track-speed;
#X msg 48 525 1 \$1;
#X msg 182 521 2 \$1;
#X msg 300 518 3 \$1;
#X msg 413 516 4 \$1;
#X obj 700 27 inlet 2nd-bank-enabled;
#X obj 840 362 select 1 2 3 4;
#N canvas 369 148 723 496 track-speed 0;
#X obj 30 22 inlet bang-to-change;
#X obj 484 44 inlet init-bang;
#X obj 418 281 outlet track-speed;
#X msg 481 83 1;
#X obj 436 202 float;
#X obj 432 111 t b f;
#X obj 277 76 > 2;
#X obj 210 78 < 0.2;
#X obj 179 210 float;
#X msg 231 172 0.2;
#X msg 292 165 -0.2;
#X obj 231 147 b;
#X obj 292 140 b;
#X obj 148 280 +;
#X obj 215 111 select 1;
#X obj 291 107 select 1;
#X obj 148 151 b;
#X connect 0 0 16 0;
#X connect 1 0 3 0;
#X connect 1 0 11 0;
#X connect 3 0 5 0;
#X connect 4 0 2 0;
#X connect 4 0 13 1;
#X connect 5 0 4 0;
#X connect 5 1 4 1;
#X connect 6 0 15 0;
#X connect 7 0 14 0;
#X connect 8 0 13 0;
#X connect 9 0 8 1;
#X connect 10 0 8 1;
#X connect 11 0 9 0;
#X connect 12 0 10 0;
#X connect 13 0 7 0;
#X connect 13 0 6 0;
#X connect 13 0 4 0;
#X connect 14 0 11 0;
#X connect 15 0 12 0;
#X connect 16 0 8 0;
#X restore 783 448 pd track-speed;
#N canvas 369 148 723 496 track-speed 0;
#X obj 30 22 inlet bang-to-change;
#X obj 484 44 inlet init-bang;
#X obj 418 281 outlet track-speed;
#X msg 481 83 1;
#X obj 436 202 float;
#X obj 432 111 t b f;
#X obj 277 76 > 2;
#X obj 210 78 < 0.2;
#X obj 179 210 float;
#X msg 231 172 0.2;
#X msg 292 165 -0.2;
#X obj 231 147 b;
#X obj 292 140 b;
#X obj 148 280 +;
#X obj 215 111 select 1;
#X obj 291 107 select 1;
#X connect 0 0 8 0;
#X connect 1 0 3 0;
#X connect 1 0 11 0;
#X connect 3 0 5 0;
#X connect 4 0 2 0;
#X connect 4 0 13 1;
#X connect 5 0 4 0;
#X connect 5 1 4 1;
#X connect 6 0 15 0;
#X connect 7 0 14 0;
#X connect 8 0 13 0;
#X connect 9 0 8 1;
#X connect 10 0 8 1;
#X connect 11 0 9 0;
#X connect 12 0 10 0;
#X connect 13 0 7 0;
#X connect 13 0 6 0;
#X connect 13 0 4 0;
#X connect 14 0 11 0;
#X connect 15 0 12 0;
#X restore 917 448 pd track-speed;
#N canvas 369 148 723 496 track-speed 0;
#X obj 30 22 inlet bang-to-change;
#X obj 484 44 inlet init-bang;
#X obj 418 281 outlet track-speed;
#X msg 481 83 1;
#X obj 436 202 float;
#X obj 432 111 t b f;
#X obj 277 76 > 2;
#X obj 210 78 < 0.2;
#X obj 179 210 float;
#X msg 231 172 0.2;
#X msg 292 165 -0.2;
#X obj 231 147 b;
#X obj 292 140 b;
#X obj 148 280 +;
#X obj 215 111 select 1;
#X obj 291 107 select 1;
#X connect 0 0 8 0;
#X connect 1 0 3 0;
#X connect 1 0 11 0;
#X connect 3 0 5 0;
#X connect 4 0 2 0;
#X connect 4 0 13 1;
#X connect 5 0 4 0;
#X connect 5 1 4 1;
#X connect 6 0 15 0;
#X connect 7 0 14 0;
#X connect 8 0 13 0;
#X connect 9 0 8 1;
#X connect 10 0 8 1;
#X connect 11 0 9 0;
#X connect 12 0 10 0;
#X connect 13 0 7 0;
#X connect 13 0 6 0;
#X connect 13 0 4 0;
#X connect 14 0 11 0;
#X connect 15 0 12 0;
#X restore 1033 450 pd track-speed;
#N canvas 369 148 723 496 track-speed 0;
#X obj 30 22 inlet bang-to-change;
#X obj 484 44 inlet init-bang;
#X obj 418 281 outlet track-speed;
#X msg 481 83 1;
#X obj 436 202 float;
#X obj 432 111 t b f;
#X obj 277 76 > 2;
#X obj 210 78 < 0.2;
#X obj 179 210 float;
#X msg 231 172 0.2;
#X msg 292 165 -0.2;
#X obj 231 147 b;
#X obj 292 140 b;
#X obj 148 280 +;
#X obj 215 111 select 1;
#X obj 291 107 select 1;
#X connect 0 0 8 0;
#X connect 1 0 3 0;
#X connect 1 0 11 0;
#X connect 3 0 5 0;
#X connect 4 0 2 0;
#X connect 4 0 13 1;
#X connect 5 0 4 0;
#X connect 5 1 4 1;
#X connect 6 0 15 0;
#X connect 7 0 14 0;
#X connect 8 0 13 0;
#X connect 9 0 8 1;
#X connect 10 0 8 1;
#X connect 11 0 9 0;
#X connect 12 0 10 0;
#X connect 13 0 7 0;
#X connect 13 0 6 0;
#X connect 13 0 4 0;
#X connect 14 0 11 0;
#X connect 15 0 12 0;
#X restore 1151 450 pd track-speed;
#X msg 785 497 1 \$1;
#X msg 919 493 2 \$1;
#X msg 1037 490 3 \$1;
#X msg 1150 488 4 \$1;
#X obj 571 686 outlet track-speed;
#X obj 502 259 route-to-banks;
#X connect 0 0 22 0;
#X connect 1 0 3 1;
#X connect 1 0 4 1;
#X connect 1 0 5 1;
#X connect 1 0 6 1;
#X connect 1 0 13 1;
#X connect 1 0 14 1;
#X connect 1 0 16 1;
#X connect 2 0 3 0;
#X connect 2 1 4 0;
#X connect 2 2 5 0;
#X connect 2 3 6 0;
#X connect 3 0 7 0;
#X connect 4 0 8 0;
#X connect 5 0 9 0;
#X connect 6 0 10 0;
#X connect 7 0 21 0;
#X connect 8 0 21 0;
#X connect 9 0 21 0;
#X connect 10 0 21 0;
#X connect 11 0 22 1;
#X connect 12 0 13 0;
#X connect 12 1 14 0;
#X connect 12 2 15 0;
#X connect 12 3 16 0;
#X connect 13 0 17 0;
#X connect 14 0 18 0;
#X connect 15 0 19 0;
#X connect 16 0 20 0;
#X connect 17 0 21 0;
#X connect 18 0 21 0;
#X connect 19 0 21 0;
#X connect 20 0 21 0;
#X connect 22 0 2 0;
#X connect 22 1 12 0;
#X restore 301 282 pd track-speed-control;
#X obj 429 220 r \$0-init-bang;
#X obj 301 200 r \$0-track-speed-message;
#X obj 303 332 s \$0-track-speed;
#X obj 732 511 r \$0-2nd-bank-enabled;
#X obj 732 554 outlet 2nd-bank-enabled;
#X obj 430 251 r \$0-2nd-bank-enabled;
#X obj 592 556 outlet track-delay;
#X obj 436 513 r \$0-track-speed;
#X obj 1010 84 inlet track-durations;
#N canvas 232 22 895 690 track-delay-control 0;
#X obj 32 30 inlet track-delay-message;
#X obj 235 31 inlet init-bang;
#X obj 388 31 inlet track-durations;
#X obj 605 32 inlet 2nd-bank-enabled;
#X obj 346 628 outlet track-delay;
#X obj 387 79 list split 4;
#X obj 355 175 route-to-banks;
#X obj 134 253 route 1 2 3 4;
#X obj 555 219 route 1 2 3 4;
#N canvas 400 304 597 343 track-delay 0;
#X obj 67 24 inlet track-delay-bang;
#X obj 422 27 inlet track-duration;
#X obj 390 62 t b b f;
#N canvas 771 48 450 300 coef 0;
#X obj 55 22 inlet change;
#X obj 324 24 inlet init;
#X obj 163 119 float;
#X text 204 123 coef;
#X msg 271 222 0.5;
#X msg 338 222 -0.5;
#X obj 259 120 +;
#X msg 367 62 0.5;
#X obj 98 256 outlet coef;
#X msg 314 56 0;
#X obj 300 163 route 0 1;
#X connect 0 0 2 0;
#X connect 1 0 9 0;
#X connect 1 0 7 0;
#X connect 2 0 6 0;
#X connect 2 0 8 0;
#X connect 2 0 10 0;
#X connect 4 0 6 1;
#X connect 5 0 6 1;
#X connect 6 0 2 1;
#X connect 7 0 6 1;
#X connect 9 0 2 1;
#X connect 10 0 4 0;
#X connect 10 1 5 0;
#X restore 195 138 pd coef;
#X obj 235 279 outlet track-delay;
#X connect 0 0 3 0;
#X connect 1 0 2 0;
#X connect 2 0 3 0;
#X connect 2 1 3 1;
#X connect 3 0 4 0;
#X restore 38 353 pd track-delay;
#X obj 346 116 s \$0-first-4-durations;
#X obj 527 116 s \$0-second-4-durations;
#X obj 278 227 r \$0-first-4-durations;
#X obj 278 255 unpack f f f f;
#X msg 38 387 1 \$1;
#X msg 172 387 2 \$1;
#X msg 287 389 3 \$1;
#X msg 421 389 4 \$1;
#X obj 702 222 unpack f f f f;
#X obj 702 194 r \$0-second-4-durations;
#X msg 593 387 1 \$1;
#X msg 727 387 2 \$1;
#X msg 842 389 3 \$1;
#X msg 976 389 4 \$1;
#N canvas 400 304 597 343 track-delay 0;
#X obj 67 24 inlet track-delay-bang;
#X obj 422 27 inlet track-duration;
#X obj 390 62 t b b f;
#N canvas 771 48 450 300 coef 0;
#X obj 55 22 inlet change;
#X obj 324 24 inlet init;
#X obj 163 119 float;
#X text 204 123 coef;
#X msg 271 222 0.5;
#X msg 338 222 -0.5;
#X obj 259 120 +;
#X msg 367 62 0.5;
#X obj 98 256 outlet coef;
#X msg 314 56 0;
#X obj 300 163 route 0 1;
#X connect 0 0 2 0;
#X connect 1 0 9 0;
#X connect 1 0 7 0;
#X connect 2 0 6 0;
#X connect 2 0 8 0;
#X connect 2 0 10 0;
#X connect 4 0 6 1;
#X connect 5 0 6 1;
#X connect 6 0 2 1;
#X connect 7 0 6 1;
#X connect 9 0 2 1;
#X connect 10 0 4 0;
#X connect 10 1 5 0;
#X restore 195 138 pd coef;
#X obj 235 279 outlet track-delay;
#X connect 0 0 3 0;
#X connect 1 0 2 0;
#X connect 2 0 3 0;
#X connect 2 1 3 1;
#X connect 3 0 4 0;
#X restore 172 352 pd track-delay;
#N canvas 400 304 597 343 track-delay 0;
#X obj 67 24 inlet track-delay-bang;
#X obj 422 27 inlet track-duration;
#X obj 390 62 t b b f;
#N canvas 771 48 450 300 coef 0;
#X obj 55 22 inlet change;
#X obj 324 24 inlet init;
#X obj 163 119 float;
#X text 204 123 coef;
#X msg 271 222 0.5;
#X msg 338 222 -0.5;
#X obj 259 120 +;
#X msg 367 62 0.5;
#X obj 98 256 outlet coef;
#X msg 314 56 0;
#X obj 300 163 route 0 1;
#X connect 0 0 2 0;
#X connect 1 0 9 0;
#X connect 1 0 7 0;
#X connect 2 0 6 0;
#X connect 2 0 8 0;
#X connect 2 0 10 0;
#X connect 4 0 6 1;
#X connect 5 0 6 1;
#X connect 6 0 2 1;
#X connect 7 0 6 1;
#X connect 9 0 2 1;
#X connect 10 0 4 0;
#X connect 10 1 5 0;
#X restore 195 138 pd coef;
#X obj 235 279 outlet track-delay;
#X connect 0 0 3 0;
#X connect 1 0 2 0;
#X connect 2 0 3 0;
#X connect 2 1 3 1;
#X connect 3 0 4 0;
#X restore 286 352 pd track-delay;
#N canvas 400 304 597 343 track-delay 0;
#X obj 67 24 inlet track-delay-bang;
#X obj 422 27 inlet track-duration;
#X obj 390 62 t b b f;
#N canvas 771 48 450 300 coef 0;
#X obj 55 22 inlet change;
#X obj 324 24 inlet init;
#X obj 163 119 float;
#X text 204 123 coef;
#X msg 271 222 0.5;
#X msg 338 222 -0.5;
#X obj 259 120 +;
#X msg 367 62 0.5;
#X obj 98 256 outlet coef;
#X msg 314 56 0;
#X obj 300 163 route 0 1;
#X connect 0 0 2 0;
#X connect 1 0 9 0;
#X connect 1 0 7 0;
#X connect 2 0 6 0;
#X connect 2 0 8 0;
#X connect 2 0 10 0;
#X connect 4 0 6 1;
#X connect 5 0 6 1;
#X connect 6 0 2 1;
#X connect 7 0 6 1;
#X connect 9 0 2 1;
#X connect 10 0 4 0;
#X connect 10 1 5 0;
#X restore 195 138 pd coef;
#X obj 235 279 outlet track-delay;
#X connect 0 0 3 0;
#X connect 1 0 2 0;
#X connect 2 0 3 0;
#X connect 2 1 3 1;
#X connect 3 0 4 0;
#X restore 420 351 pd track-delay;
#N canvas 400 304 597 343 track-delay 0;
#X obj 67 24 inlet track-delay-bang;
#X obj 422 27 inlet track-duration;
#X obj 390 62 t b b f;
#N canvas 771 48 450 300 coef 0;
#X obj 55 22 inlet change;
#X obj 324 24 inlet init;
#X obj 163 119 float;
#X text 204 123 coef;
#X msg 271 222 0.5;
#X msg 338 222 -0.5;
#X obj 259 120 +;
#X msg 367 62 0.5;
#X obj 98 256 outlet coef;
#X msg 314 56 0;
#X obj 300 163 route 0 1;
#X connect 0 0 2 0;
#X connect 1 0 9 0;
#X connect 1 0 7 0;
#X connect 2 0 6 0;
#X connect 2 0 8 0;
#X connect 2 0 10 0;
#X connect 4 0 6 1;
#X connect 5 0 6 1;
#X connect 6 0 2 1;
#X connect 7 0 6 1;
#X connect 9 0 2 1;
#X connect 10 0 4 0;
#X connect 10 1 5 0;
#X restore 195 138 pd coef;
#X obj 235 279 outlet track-delay;
#X connect 0 0 3 0;
#X connect 1 0 2 0;
#X connect 2 0 3 0;
#X connect 2 1 3 1;
#X connect 3 0 4 0;
#X restore 593 341 pd track-delay;
#N canvas 400 304 597 343 track-delay 0;
#X obj 67 24 inlet track-delay-bang;
#X obj 422 27 inlet track-duration;
#X obj 390 62 t b b f;
#N canvas 771 48 450 300 coef 0;
#X obj 55 22 inlet change;
#X obj 324 24 inlet init;
#X obj 163 119 float;
#X text 204 123 coef;
#X msg 271 222 0.5;
#X msg 338 222 -0.5;
#X obj 259 120 +;
#X msg 367 62 0.5;
#X obj 98 256 outlet coef;
#X msg 314 56 0;
#X obj 300 163 route 0 1;
#X connect 0 0 2 0;
#X connect 1 0 9 0;
#X connect 1 0 7 0;
#X connect 2 0 6 0;
#X connect 2 0 8 0;
#X connect 2 0 10 0;
#X connect 4 0 6 1;
#X connect 5 0 6 1;
#X connect 6 0 2 1;
#X connect 7 0 6 1;
#X connect 9 0 2 1;
#X connect 10 0 4 0;
#X connect 10 1 5 0;
#X restore 195 138 pd coef;
#X obj 235 279 outlet track-delay;
#X connect 0 0 3 0;
#X connect 1 0 2 0;
#X connect 2 0 3 0;
#X connect 2 1 3 1;
#X connect 3 0 4 0;
#X restore 727 340 pd track-delay;
#N canvas 400 304 597 343 track-delay 0;
#X obj 67 24 inlet track-delay-bang;
#X obj 422 27 inlet track-duration;
#X obj 390 62 t b b f;
#N canvas 771 48 450 300 coef 0;
#X obj 55 22 inlet change;
#X obj 324 24 inlet init;
#X obj 163 119 float;
#X text 204 123 coef;
#X msg 271 222 0.5;
#X msg 338 222 -0.5;
#X obj 259 120 +;
#X msg 367 62 0.5;
#X obj 98 256 outlet coef;
#X msg 314 56 0;
#X obj 300 163 route 0 1;
#X connect 0 0 2 0;
#X connect 1 0 9 0;
#X connect 1 0 7 0;
#X connect 2 0 6 0;
#X connect 2 0 8 0;
#X connect 2 0 10 0;
#X connect 4 0 6 1;
#X connect 5 0 6 1;
#X connect 6 0 2 1;
#X connect 7 0 6 1;
#X connect 9 0 2 1;
#X connect 10 0 4 0;
#X connect 10 1 5 0;
#X restore 195 138 pd coef;
#X obj 235 279 outlet track-delay;
#X connect 0 0 3 0;
#X connect 1 0 2 0;
#X connect 2 0 3 0;
#X connect 2 1 3 1;
#X connect 3 0 4 0;
#X restore 841 340 pd track-delay;
#N canvas 400 304 597 343 track-delay 0;
#X obj 67 24 inlet track-delay-bang;
#X obj 422 27 inlet track-duration;
#X obj 390 62 t b b f;
#N canvas 771 48 450 300 coef 0;
#X obj 55 22 inlet change;
#X obj 324 24 inlet init;
#X obj 163 119 float;
#X text 204 123 coef;
#X msg 271 222 0.5;
#X msg 338 222 -0.5;
#X obj 259 120 +;
#X msg 367 62 0.5;
#X obj 98 256 outlet coef;
#X msg 314 56 0;
#X obj 300 163 route 0 1;
#X connect 0 0 2 0;
#X connect 1 0 9 0;
#X connect 1 0 7 0;
#X connect 2 0 6 0;
#X connect 2 0 8 0;
#X connect 2 0 10 0;
#X connect 4 0 6 1;
#X connect 5 0 6 1;
#X connect 6 0 2 1;
#X connect 7 0 6 1;
#X connect 9 0 2 1;
#X connect 10 0 4 0;
#X connect 10 1 5 0;
#X restore 195 138 pd coef;
#X obj 235 279 outlet track-delay;
#X connect 0 0 3 0;
#X connect 1 0 2 0;
#X connect 2 0 3 0;
#X connect 2 1 3 1;
#X connect 3 0 4 0;
#X restore 975 339 pd track-delay;
#X connect 0 0 6 0;
#X connect 2 0 5 0;
#X connect 3 0 6 1;
#X connect 5 0 10 0;
#X connect 5 1 11 0;
#X connect 6 0 7 0;
#X connect 6 1 8 0;
#X connect 7 0 9 0;
#X connect 7 1 24 0;
#X connect 7 2 25 0;
#X connect 7 3 26 0;
#X connect 8 0 27 0;
#X connect 8 1 28 0;
#X connect 8 2 29 0;
#X connect 8 3 30 0;
#X connect 9 0 14 0;
#X connect 12 0 13 0;
#X connect 13 0 9 1;
#X connect 13 1 24 1;
#X connect 13 2 25 1;
#X connect 13 3 26 1;
#X connect 14 0 4 0;
#X connect 15 0 4 0;
#X connect 16 0 4 0;
#X connect 17 0 4 0;
#X connect 18 0 27 1;
#X connect 18 1 28 1;
#X connect 18 2 29 1;
#X connect 18 3 30 1;
#X connect 19 0 18 0;
#X connect 20 0 4 0;
#X connect 21 0 4 0;
#X connect 22 0 4 0;
#X connect 23 0 4 0;
#X connect 24 0 15 0;
#X connect 25 0 16 0;
#X connect 26 0 17 0;
#X connect 27 0 20 0;
#X connect 28 0 21 0;
#X connect 29 0 22 0;
#X connect 30 0 23 0;
#X restore 922 232 pd track-delay-control;
#X obj 922 145 r \$0-track-delay-message;
#X obj 964 170 r \$0-init-bang;
#X obj 1051 195 r \$0-2nd-bank-enabled;
#X obj 592 514 r \$0-track-delay;
#X obj 922 297 s \$0-track-delay;
#X connect 0 0 3 0;
#X connect 1 0 6 0;
#X connect 4 0 1 3;
#X connect 5 0 18 0;
#X connect 7 0 20 0;
#X connect 9 0 1 0;
#X connect 10 0 1 1;
#X connect 11 0 1 2;
#X connect 13 0 15 0;
#X connect 16 0 17 0;
#X connect 21 0 24 0;
#X connect 22 0 21 1;
#X connect 23 0 21 0;
#X connect 25 0 26 0;
#X connect 27 0 21 2;
#X connect 29 0 19 0;
#X connect 30 0 31 2;
#X connect 31 0 36 0;
#X connect 32 0 31 0;
#X connect 33 0 31 1;
#X connect 34 0 31 3;
#X connect 35 0 28 0;
