#N canvas 492 171 703 491 10;
#X obj 285 -25 loadbang;
#X obj 8 107 bng 30 250 50 0 \$0-init-bang empty init_bang 32 7 0 10
-262144 -1 -1;
#X obj 3 169 tgl 30 0 \$0-start-stop-1 \$0-start-stop-1 1 7 14 0 25
-262144 -1 -1 0 1;
#X obj 418 55 s start-stop;
#X msg 417 30 0;
#X text 414 -21 set start-stop to zero after start;
#X obj 141 116 bng 30 250 50 0 increase-volume empty + 8 12 0 24 -262144
-1 -1;
#X obj 110 116 bng 30 250 50 0 decrease-volume empty - 8 14 0 24 -262144
-1 -1;
#X text 110 98 volume;
#N canvas 252 164 635 432 volume-control 0;
#X obj 38 42 inlet;
#X text 34 19 increase volume;
#X obj 155 44 inlet;
#X text 156 19 decrease volume;
#X obj 209 381 outlet;
#X obj 480 54 inlet;
#X text 477 28 init bang;
#X obj 202 188 float;
#X msg 525 126 0.5;
#N canvas 808 287 450 300 do-decrease-volume 0;
#X obj 101 38 inlet;
#X obj 112 241 outlet;
#X text 87 11 bang to change;
#X obj 205 40 inlet;
#X text 200 15 current level;
#X text 174 239 output level;
#X obj 112 211 clip 0 1;
#X obj 110 110 float;
#X obj 111 182 - 0.2;
#X obj 314 39 inlet;
#X text 314 17 muted;
#X obj 295 81 select 0;
#X text 334 64 comment;
#X msg 271 110 0.2;
#X msg 343 112 0;
#X connect 0 0 7 0;
#X connect 3 0 7 1;
#X connect 6 0 1 0;
#X connect 7 0 8 0;
#X connect 8 0 6 0;
#X connect 9 0 11 0;
#X connect 11 0 13 0;
#X connect 11 1 14 0;
#X connect 13 0 8 1;
#X connect 14 0 8 1;
#X restore 151 69 pd do-decrease-volume;
#N canvas 587 381 450 300 do-increase-volume 0;
#X obj 111 48 inlet;
#X obj 122 251 outlet;
#X text 97 21 bang to change;
#X obj 235 50 inlet;
#X text 230 25 current level;
#X text 184 249 output level;
#X obj 122 218 clip 0 1;
#X obj 122 187 + 0.2;
#X obj 122 136 float;
#X obj 340 51 inlet;
#X text 341 27 muted;
#X obj 338 84 select 0;
#X msg 328 115 0.2;
#X msg 381 115 0;
#X connect 0 0 8 0;
#X connect 3 0 8 1;
#X connect 6 0 1 0;
#X connect 7 0 6 0;
#X connect 8 0 7 0;
#X connect 9 0 11 0;
#X connect 11 0 12 0;
#X connect 11 1 13 0;
#X connect 12 0 7 1;
#X connect 13 0 7 1;
#X restore 43 145 pd do-increase-volume;
#X obj 389 33 inlet;
#X text 395 16 mute;
#X obj 490 86 t b b b;
#N canvas 202 323 450 300 mute-control 0;
#X obj 150 78 inlet;
#X obj 320 86 inlet;
#X text 151 21 mute control;
#X text 151 39 1 -mute;
#X text 149 58 0 - no;
#X text 317 67 init bang;
#X obj 62 81 inlet;
#X text 59 43 volume;
#X obj 113 270 outlet;
#X text 172 267 out volume;
#X obj 113 238 *;
#X obj 145 108 select 0;
#X obj 146 184 float;
#X obj 140 212 t b f;
#X msg 134 152 1;
#X msg 186 153 0;
#X connect 0 0 11 0;
#X connect 1 0 14 0;
#X connect 6 0 10 0;
#X connect 10 0 8 0;
#X connect 11 0 14 0;
#X connect 11 1 15 0;
#X connect 12 0 13 0;
#X connect 13 0 10 0;
#X connect 13 1 10 1;
#X connect 14 0 12 0;
#X connect 15 0 12 0;
#X restore 241 276 pd mute-control;
#X connect 0 0 10 0;
#X connect 2 0 9 0;
#X connect 5 0 13 0;
#X connect 7 0 9 1;
#X connect 7 0 10 1;
#X connect 7 0 14 0;
#X connect 8 0 7 1;
#X connect 9 0 7 0;
#X connect 10 0 7 0;
#X connect 11 0 14 1;
#X connect 11 0 9 2;
#X connect 11 0 10 2;
#X connect 13 0 7 0;
#X connect 13 1 8 0;
#X connect 13 2 14 2;
#X connect 14 0 4 0;
#X restore 503 202 pd volume-control;
#X obj 505 139 r increase-volume;
#X obj 549 165 r decrease-volume;
#X obj 172 116 tgl 30 0 mute-volume mute-volume mute 5 14 0 10 -262144
-1 -1 0 1;
#X obj 543 48 r mute-volume;
#X obj 40 343 outlet;
#X text 83 341 start-stop;
#X obj 198 341 outlet;
#X text 252 341 volume-control;
#X obj 285 5 s \$0-init-bang;
#X obj 417 6 r \$0-init-bang;
#X obj 600 110 r \$0-init-bang;
#X obj 199 306 r \$0-volume-level;
#X obj 511 242 s \$0-volume-level;
#X obj 415 307 r \$0-init-bang;
#X obj 416 346 outlet;
#X text 467 344 init bang;
#X obj 34 169 tgl 30 0 \$0-start-stop-2 \$0-start-stop-2 2 7 14 0 25
-262144 -1 -1 0 1;
#X obj 64 169 tgl 30 0 \$0-start-stop-3 \$0-start-stop-3 3 7 14 0 25
-262144 -1 -1 0 1;
#X obj 94 169 tgl 30 0 \$0-start-stop-4 \$0-start-stop-4 4 7 14 0 25
-262144 -1 -1 0 1;
#N canvas 452 286 760 332 create-start-stop-list 0;
#X obj 50 34 r \$0-start-stop-1;
#X obj 170 69 t b f;
#X obj 394 64 t b f;
#X obj 281 68 t b f;
#X obj 185 156 pack f f f f;
#X obj 183 217 outlet;
#X text 249 220 list of start/stop messages;
#X obj 168 33 r \$0-start-stop-2;
#X obj 281 33 r \$0-start-stop-3;
#X obj 395 33 r \$0-start-stop-4;
#X connect 0 0 4 0;
#X connect 1 0 4 0;
#X connect 1 1 4 1;
#X connect 2 0 4 0;
#X connect 2 1 4 3;
#X connect 3 0 4 0;
#X connect 3 1 4 2;
#X connect 4 0 5 0;
#X connect 7 0 1 0;
#X connect 8 0 3 0;
#X connect 9 0 2 0;
#X restore 40 310 pd create-start-stop-list;
#X connect 0 0 18 0;
#X connect 4 0 3 0;
#X connect 9 0 22 0;
#X connect 10 0 9 0;
#X connect 11 0 9 1;
#X connect 13 0 9 2;
#X connect 19 0 4 0;
#X connect 20 0 9 3;
#X connect 21 0 16 0;
#X connect 23 0 24 0;
#X connect 29 0 14 0;
#X coords 0 -1 1 1 200 100 2 2 100;
