#N canvas 189 24 1031 600 10;
#X obj 8 107 bng 30 250 50 0 \$0-init-bang empty init_bang 32 7 0 10
-262144 -1 -1;
#X obj 3 169 tgl 30 0 \$0-start-stop-1 \$0-start-stop-1 1 7 14 0 25
-262144 -1 -1 0 1;
#X obj 141 116 bng 30 250 50 0 \$0-increase-volume empty + 8 12 0 24
-262144 -1 -1;
#X obj 110 116 bng 30 250 50 0 \$0-decrease-volume empty - 8 14 0 24
-262144 -1 -1;
#X text 110 98 volume;
#X obj 172 116 tgl 30 0 \$0-mute-volume \$0-mute-volume mute 5 14 0
10 -262144 -1 -1 0 1;
#X obj 34 169 tgl 30 0 \$0-start-stop-2 \$0-start-stop-2 2 7 14 0 25
-262144 -1 -1 0 1;
#X obj 64 169 tgl 30 0 \$0-start-stop-3 \$0-start-stop-3 3 7 14 0 25
-262144 -1 -1 0 1;
#X obj 94 169 tgl 30 0 \$0-start-stop-4 \$0-start-stop-4 4 7 14 0 25
-262144 -1 -1 0 1;
#X obj 11 228 r \$0-init-bang;
#X obj 295 440 outlet;
#X text 354 437 send mesage according to output protocol;
#X msg 12 261 init-bang;
#X obj 245 229 r \$0-increase-volume;
#X obj 110 228 r \$0-decrease-volume;
#X obj 378 229 r \$0-mute-volume;
#X msg 110 260 decrease-volume;
#X msg 244 263 increase-volume;
#X obj 523 195 r \$0-start-stop-1;
#X obj 642 196 r \$0-start-stop-2;
#X obj 877 196 r \$0-start-stop-4;
#X obj 758 196 r \$0-start-stop-3;
#X msg 523 234 1 \$1;
#X msg 644 234 2 \$1;
#X msg 760 230 3 \$1;
#X msg 878 231 4 \$1;
#X msg 688 300 track-ctrl \$1 \$2;
#X text 283 17 output interface: init-bang - init bang increase-volume
- increase volume decrease-volume - decrease volume mute-volume 0/1
- mute volume track-ctrl <track no> 1/0 - track playing control;
#X msg 377 263 mute-volume \$1;
#X obj 79 18 inlet;
#X text 122 17 init bang from io-core;
#X connect 9 0 12 0;
#X connect 12 0 10 0;
#X connect 13 0 17 0;
#X connect 14 0 16 0;
#X connect 15 0 28 0;
#X connect 16 0 10 0;
#X connect 17 0 10 0;
#X connect 18 0 22 0;
#X connect 19 0 23 0;
#X connect 20 0 25 0;
#X connect 21 0 24 0;
#X connect 22 0 26 0;
#X connect 23 0 26 0;
#X connect 24 0 26 0;
#X connect 25 0 26 0;
#X connect 26 0 10 0;
#X connect 28 0 10 0;
#X coords 0 -1 1 1 200 100 2 2 100;
