#N canvas 315 22 1031 600 10;
#X obj 8 107 bng 30 250 50 0 \$0-init-bang-gui empty init_bang 32 7
0 10 -262144 -1 -1;
#X obj 4 199 tgl 30 0 \$0-start-stop-1-gui \$0-start-stop-1-gui-in
1 7 14 0 25 -262144 -1 -1 0 1;
#X obj 141 116 bng 30 250 50 0 \$0-increase-volume empty + 8 12 0 24
-262144 -1 -1;
#X obj 110 116 bng 30 250 50 0 \$0-decrease-volume empty - 8 14 0 24
-262144 -1 -1;
#X text 110 98 volume;
#X obj 172 116 tgl 30 0 \$0-mute-volume \$0-mute-volume mute 5 14 0
10 -262144 -1 -1 0 1;
#X obj 35 199 tgl 30 0 \$0-start-stop-2-gui \$0-start-stop-2-gui-in
2 7 14 0 25 -262144 -1 -1 0 1;
#X obj 65 199 tgl 30 0 \$0-start-stop-3-gui \$0-start-stop-3-gui-in
3 7 14 0 25 -262144 -1 -1 0 1;
#X obj 95 199 tgl 30 0 \$0-start-stop-4-gui \$0-start-stop-4-gui-in
4 7 14 0 25 -262144 -1 -1 0 1;
#X obj 309 566 outlet;
#X text 368 563 send mesage according to output protocol;
#X msg -151 352 init-bang;
#X obj 113 320 r \$0-increase-volume;
#X obj -22 319 r \$0-decrease-volume;
#X obj 246 320 r \$0-mute-volume;
#X msg -22 351 decrease-volume;
#X msg 112 354 increase-volume;
#X obj 537 321 r \$0-start-stop-1;
#X obj 656 322 r \$0-start-stop-2;
#X obj 891 322 r \$0-start-stop-4;
#X obj 772 322 r \$0-start-stop-3;
#X msg 537 360 1 \$1;
#X msg 658 360 2 \$1;
#X msg 774 356 3 \$1;
#X msg 892 357 4 \$1;
#X msg 702 426 track-ctrl \$1 \$2;
#X msg 245 354 mute-volume \$1;
#X obj 79 18 inlet;
#X text 122 17 init bang from io-core;
#X obj 4 230 bng 30 250 50 0 \$0-track-speed-1 \$0-track-speed-1 empty
8 14 0 24 -262144 -1 -1;
#X obj 35 230 bng 30 250 50 0 \$0-track-speed-2 \$0-track-speed-2 empty
8 14 0 24 -262144 -1 -1;
#X obj 64 230 bng 30 250 50 0 \$0-track-speed-3 \$0-track-speed-3 empty
8 14 0 24 -262144 -1 -1;
#X obj 95 230 bng 30 250 50 0 \$0-track-speed-4 \$0-track-speed-4 empty
8 14 0 24 -262144 -1 -1;
#X text 129 205 track ctrl;
#X text 131 237 track speed;
#X obj 1034 357 r \$0-track-speed-1;
#X msg 1034 385 1;
#X obj 1165 357 r \$0-track-speed-2;
#X obj 1292 356 r \$0-track-speed-3;
#X obj 1418 355 r \$0-track-speed-4;
#X msg 1165 385 2;
#X msg 1292 384 3;
#X msg 1418 384 4;
#X msg 1216 435 track-speed \$1;
#X obj 4 168 tgl 30 0 \$0-2nd-bank-enabled \$0-2nd-bank-enabled 2nd
5 16 0 12 -262144 -1 -1 0 1;
#X text 40 173 second bank;
#X text 284 17 output interface: init-bang - init bang increase-volume
- increase volume decrease-volume - decrease volume mute-volume 0/1
- mute volume track-ctrl <track no> 1/0 - track playing control \;
track-speed <track no> bang to change track speed \; 2nd-bank-enabled
0/1 - enabled-disabled second bank;
#X obj 355 321 r \$0-2nd-bank-enabled;
#X msg 354 355 2nd-bank-enabled \$1;
#X obj 81 53 s \$0-init-bang;
#X obj -152 319 r \$0-init-bang-gui;
#N canvas 0 22 1280 752 4-track-ctrl-gui-controller 0;
#X obj 274 27 inlet 2nd-bank-enabled;
#X obj 498 22 inlet init-bang;
#N canvas 36 22 1280 752 track-ctrl-gui-controller 0;
#X obj 28 21 inlet 2nd-bank-enabled;
#X obj 1049 32 inlet init-bang;
#X obj 443 26 inlet start-stop-gui-in;
#X obj 350 635 outlet start-stop;
#X obj 742 636 outlet start-stop-gui-out;
#X obj 77 61 select 0;
#X obj 652 317 float;
#X obj 437 317 float;
#X obj 24 106 b;
#X obj 59 106 b;
#X msg 24 137 1;
#X msg 62 136 0;
#X obj 134 105 b;
#X obj 169 105 b;
#X msg 134 136 1;
#X msg 172 135 0;
#X obj 428 265 spigot;
#X obj 665 264 spigot;
#X text 478 316 1st bank value;
#X text 695 317 2nd bank value;
#X obj 161 380 float;
#X obj 279 391 float;
#X obj 155 341 bang;
#X obj 269 329 bang;
#X floatatom 202 427 5 0 0 0 - - -;
#X floatatom 322 422 5 0 0 0 - - -;
#X floatatom 443 436 5 0 0 0 - - -;
#X floatatom 549 448 5 0 0 0 - - -;
#X floatatom 345 341 5 0 0 0 - - -;
#X floatatom 390 358 5 0 0 0 - - -;
#X connect 0 0 5 0;
#X connect 2 0 16 0;
#X connect 2 0 17 0;
#X connect 5 0 8 0;
#X connect 5 0 22 0;
#X connect 5 0 9 0;
#X connect 5 1 12 0;
#X connect 5 1 23 0;
#X connect 5 1 13 0;
#X connect 6 0 27 0;
#X connect 6 0 29 0;
#X connect 7 0 26 0;
#X connect 7 0 28 0;
#X connect 8 0 10 0;
#X connect 9 0 11 0;
#X connect 10 0 16 1;
#X connect 11 0 17 1;
#X connect 12 0 14 0;
#X connect 13 0 15 0;
#X connect 14 0 17 1;
#X connect 15 0 16 1;
#X connect 16 0 7 0;
#X connect 17 0 6 0;
#X connect 20 0 24 0;
#X connect 21 0 25 0;
#X connect 22 0 20 0;
#X connect 23 0 21 0;
#X connect 24 0 4 0;
#X connect 25 0 4 0;
#X connect 26 0 3 0;
#X connect 27 0 3 0;
#X connect 28 0 20 1;
#X connect 29 0 21 1;
#X restore 86 298 pd track-ctrl-gui-controller;
#X obj 168 265 r \$0-start-stop-1-gui;
#X obj 86 333 s \$0-start-stop-1;
#X msg 252 325 set \$1;
#X obj 252 352 s \$0-start-stop-1-gui-in;
#N canvas 36 22 1280 752 track-ctrl-gui-controller 0;
#X obj 28 21 inlet 2nd-bank-enabled;
#X obj 1049 32 inlet init-bang;
#X obj 443 26 inlet start-stop-gui-in;
#X obj 350 635 outlet start-stop;
#X obj 742 636 outlet start-stop-gui-out;
#X obj 77 61 select 0;
#X obj 652 317 float;
#X obj 437 317 float;
#X obj 24 106 b;
#X obj 59 106 b;
#X msg 24 137 1;
#X msg 62 136 0;
#X obj 134 105 b;
#X obj 169 105 b;
#X msg 134 136 1;
#X msg 172 135 0;
#X obj 428 265 spigot;
#X obj 665 264 spigot;
#X text 478 316 1st bank value;
#X text 695 317 2nd bank value;
#X obj 161 380 float;
#X obj 279 391 float;
#X obj 155 341 bang;
#X obj 269 329 bang;
#X floatatom 202 427 5 0 0 0 - - -;
#X floatatom 322 422 5 0 0 0 - - -;
#X floatatom 443 436 5 0 0 0 - - -;
#X floatatom 549 448 5 0 0 0 - - -;
#X floatatom 345 341 5 0 0 0 - - -;
#X floatatom 390 358 5 0 0 0 - - -;
#X connect 0 0 5 0;
#X connect 2 0 16 0;
#X connect 2 0 17 0;
#X connect 5 0 8 0;
#X connect 5 0 22 0;
#X connect 5 0 9 0;
#X connect 5 1 12 0;
#X connect 5 1 23 0;
#X connect 5 1 13 0;
#X connect 6 0 27 0;
#X connect 6 0 29 0;
#X connect 7 0 26 0;
#X connect 7 0 28 0;
#X connect 8 0 10 0;
#X connect 9 0 11 0;
#X connect 10 0 16 1;
#X connect 11 0 17 1;
#X connect 12 0 14 0;
#X connect 13 0 15 0;
#X connect 14 0 17 1;
#X connect 15 0 16 1;
#X connect 16 0 7 0;
#X connect 17 0 6 0;
#X connect 20 0 24 0;
#X connect 21 0 25 0;
#X connect 22 0 20 0;
#X connect 23 0 21 0;
#X connect 24 0 4 0;
#X connect 25 0 4 0;
#X connect 26 0 3 0;
#X connect 27 0 3 0;
#X connect 28 0 20 1;
#X connect 29 0 21 1;
#X restore 421 297 pd track-ctrl-gui-controller;
#X msg 587 324 set \$1;
#N canvas 36 22 1280 752 track-ctrl-gui-controller 0;
#X obj 28 21 inlet 2nd-bank-enabled;
#X obj 1049 32 inlet init-bang;
#X obj 443 26 inlet start-stop-gui-in;
#X obj 350 635 outlet start-stop;
#X obj 742 636 outlet start-stop-gui-out;
#X obj 77 61 select 0;
#X obj 652 317 float;
#X obj 437 317 float;
#X obj 24 106 b;
#X obj 59 106 b;
#X msg 24 137 1;
#X msg 62 136 0;
#X obj 134 105 b;
#X obj 169 105 b;
#X msg 134 136 1;
#X msg 172 135 0;
#X obj 428 265 spigot;
#X obj 665 264 spigot;
#X text 478 316 1st bank value;
#X text 695 317 2nd bank value;
#X obj 161 380 float;
#X obj 279 391 float;
#X obj 155 341 bang;
#X obj 269 329 bang;
#X floatatom 202 427 5 0 0 0 - - -;
#X floatatom 322 422 5 0 0 0 - - -;
#X floatatom 443 436 5 0 0 0 - - -;
#X floatatom 549 448 5 0 0 0 - - -;
#X floatatom 345 341 5 0 0 0 - - -;
#X floatatom 390 358 5 0 0 0 - - -;
#X connect 0 0 5 0;
#X connect 2 0 16 0;
#X connect 2 0 17 0;
#X connect 5 0 8 0;
#X connect 5 0 22 0;
#X connect 5 0 9 0;
#X connect 5 1 12 0;
#X connect 5 1 23 0;
#X connect 5 1 13 0;
#X connect 6 0 27 0;
#X connect 6 0 29 0;
#X connect 7 0 26 0;
#X connect 7 0 28 0;
#X connect 8 0 10 0;
#X connect 9 0 11 0;
#X connect 10 0 16 1;
#X connect 11 0 17 1;
#X connect 12 0 14 0;
#X connect 13 0 15 0;
#X connect 14 0 17 1;
#X connect 15 0 16 1;
#X connect 16 0 7 0;
#X connect 17 0 6 0;
#X connect 20 0 24 0;
#X connect 21 0 25 0;
#X connect 22 0 20 0;
#X connect 23 0 21 0;
#X connect 24 0 4 0;
#X connect 25 0 4 0;
#X connect 26 0 3 0;
#X connect 27 0 3 0;
#X connect 28 0 20 1;
#X connect 29 0 21 1;
#X restore 752 296 pd track-ctrl-gui-controller;
#X msg 918 323 set \$1;
#N canvas 36 22 1280 752 track-ctrl-gui-controller 0;
#X obj 28 21 inlet 2nd-bank-enabled;
#X obj 1049 32 inlet init-bang;
#X obj 443 26 inlet start-stop-gui-in;
#X obj 350 635 outlet start-stop;
#X obj 742 636 outlet start-stop-gui-out;
#X obj 77 61 select 0;
#X obj 652 317 float;
#X obj 437 317 float;
#X obj 24 106 b;
#X obj 59 106 b;
#X msg 24 137 1;
#X msg 62 136 0;
#X obj 134 105 b;
#X obj 169 105 b;
#X msg 134 136 1;
#X msg 172 135 0;
#X obj 428 265 spigot;
#X obj 665 264 spigot;
#X text 478 316 1st bank value;
#X text 695 317 2nd bank value;
#X obj 161 380 float;
#X obj 279 391 float;
#X obj 155 341 bang;
#X obj 269 329 bang;
#X floatatom 202 427 5 0 0 0 - - -;
#X floatatom 322 422 5 0 0 0 - - -;
#X floatatom 443 436 5 0 0 0 - - -;
#X floatatom 549 448 5 0 0 0 - - -;
#X floatatom 345 341 5 0 0 0 - - -;
#X floatatom 390 358 5 0 0 0 - - -;
#X connect 0 0 5 0;
#X connect 2 0 16 0;
#X connect 2 0 17 0;
#X connect 5 0 8 0;
#X connect 5 0 22 0;
#X connect 5 0 9 0;
#X connect 5 1 12 0;
#X connect 5 1 23 0;
#X connect 5 1 13 0;
#X connect 6 0 27 0;
#X connect 6 0 29 0;
#X connect 7 0 26 0;
#X connect 7 0 28 0;
#X connect 8 0 10 0;
#X connect 9 0 11 0;
#X connect 10 0 16 1;
#X connect 11 0 17 1;
#X connect 12 0 14 0;
#X connect 13 0 15 0;
#X connect 14 0 17 1;
#X connect 15 0 16 1;
#X connect 16 0 7 0;
#X connect 17 0 6 0;
#X connect 20 0 24 0;
#X connect 21 0 25 0;
#X connect 22 0 20 0;
#X connect 23 0 21 0;
#X connect 24 0 4 0;
#X connect 25 0 4 0;
#X connect 26 0 3 0;
#X connect 27 0 3 0;
#X connect 28 0 20 1;
#X connect 29 0 21 1;
#X restore 1097 293 pd track-ctrl-gui-controller;
#X msg 1263 320 set \$1;
#X obj 503 264 r \$0-start-stop-2-gui;
#X obj 421 332 s \$0-start-stop-2;
#X obj 586 351 s \$0-start-stop-2-gui-in;
#X obj 834 263 r \$0-start-stop-3-gui;
#X obj 752 331 s \$0-start-stop-3;
#X obj 917 350 s \$0-start-stop-3-gui-in;
#X obj 1179 260 r \$0-start-stop-4-gui;
#X obj 1097 328 s \$0-start-stop-4;
#X obj 1263 347 s \$0-start-stop-4-gui-in;
#X connect 0 0 2 0;
#X connect 0 0 7 0;
#X connect 0 0 9 0;
#X connect 0 0 11 0;
#X connect 1 0 2 2;
#X connect 1 0 7 2;
#X connect 1 0 9 2;
#X connect 1 0 11 2;
#X connect 2 0 4 0;
#X connect 2 1 5 0;
#X connect 3 0 2 1;
#X connect 5 0 6 0;
#X connect 7 0 14 0;
#X connect 7 1 8 0;
#X connect 8 0 15 0;
#X connect 9 0 17 0;
#X connect 9 1 10 0;
#X connect 10 0 18 0;
#X connect 11 0 20 0;
#X connect 11 1 12 0;
#X connect 12 0 21 0;
#X connect 13 0 7 1;
#X connect 16 0 9 1;
#X connect 19 0 11 1;
#X restore 290 193 pd 4-track-ctrl-gui-controller;
#X obj 467 159 r \$0-init-bang;
#X obj 290 153 r \$0-2nd-bank-enabled;
#X obj 660 105 r \$0-init-bang;
#X msg 661 152 0;
#X obj 662 185 s \$0-2nd-bank-enabled;
#X connect 11 0 9 0;
#X connect 12 0 16 0;
#X connect 13 0 15 0;
#X connect 14 0 26 0;
#X connect 15 0 9 0;
#X connect 16 0 9 0;
#X connect 17 0 21 0;
#X connect 18 0 22 0;
#X connect 19 0 24 0;
#X connect 20 0 23 0;
#X connect 21 0 25 0;
#X connect 22 0 25 0;
#X connect 23 0 25 0;
#X connect 24 0 25 0;
#X connect 25 0 9 0;
#X connect 26 0 9 0;
#X connect 27 0 49 0;
#X connect 35 0 36 0;
#X connect 36 0 43 0;
#X connect 37 0 40 0;
#X connect 38 0 41 0;
#X connect 39 0 42 0;
#X connect 40 0 43 0;
#X connect 41 0 43 0;
#X connect 42 0 43 0;
#X connect 43 0 9 0;
#X connect 47 0 48 0;
#X connect 48 0 9 0;
#X connect 50 0 11 0;
#X connect 52 0 51 1;
#X connect 53 0 51 0;
#X connect 54 0 55 0;
#X connect 55 0 56 0;
#X coords 0 -1 1 1 200 160 2 2 100;
