#N canvas 97 28 1157 653 10;
#X obj 149 43 notein;
#X obj 14 79 print note;
#X obj 149 78 stripnote;
#X obj 149 110 s \$0-note;
#X obj 14 49 r \$0-note;
#X text 13 19 debug midi note;
#X text 147 17 get midi note;
#X obj 450 170 r \$0-note;
#X obj 450 200 midi-toggle-control;
#X obj 39 169 r \$0-note;
#X obj 39 197 midi-bang-control;
#X obj 203 443 outlet;
#X text 267 432 output interface: init-bang - init bang increase-volume
- increase volume decrease-volume - decrease volume mute-volume 0/1
- mute volume track-ctrl <track no> 1/0 - track playing control;
#X msg 39 225 init-bang;
#X msg 450 231 mute-volume \$1;
#X msg 138 169 48;
#X obj 177 171 r \$0-note;
#X obj 177 199 midi-bang-control;
#X obj 314 171 r \$0-note;
#X obj 314 199 midi-bang-control;
#X msg 276 172 50;
#X msg 413 171 52;
#X msg 561 170 53;
#X msg 177 227 decrease-volume;
#X msg 314 227 increase-volume;
#X obj 957 163 r \$0-note;
#X obj 957 193 midi-toggle-control;
#X obj 640 170 r \$0-note;
#X obj 640 200 midi-toggle-control;
#X obj 1117 161 r \$0-note;
#X obj 1117 191 midi-toggle-control;
#X obj 804 164 r \$0-note;
#X obj 804 194 midi-toggle-control;
#X msg 832 333 track-ctrl \$1 \$2;
#X msg 640 231 1 \$1;
#X msg 804 225 2 \$1;
#X msg 957 224 3 \$1;
#X msg 1117 222 4 \$1;
#X msg 751 170 49;
#X msg 915 164 51;
#X msg 1068 163 54;
#X msg 1228 161 56;
#X obj 300 44 inlet;
#X text 354 44 init bang;
#X connect 0 0 2 0;
#X connect 0 1 2 1;
#X connect 2 0 3 0;
#X connect 4 0 1 0;
#X connect 7 0 8 0;
#X connect 8 0 14 0;
#X connect 9 0 10 0;
#X connect 10 0 13 0;
#X connect 13 0 11 0;
#X connect 14 0 11 0;
#X connect 15 0 10 1;
#X connect 16 0 17 0;
#X connect 17 0 23 0;
#X connect 18 0 19 0;
#X connect 19 0 24 0;
#X connect 20 0 17 1;
#X connect 21 0 19 1;
#X connect 22 0 8 1;
#X connect 23 0 11 0;
#X connect 24 0 11 0;
#X connect 25 0 26 0;
#X connect 26 0 36 0;
#X connect 27 0 28 0;
#X connect 28 0 34 0;
#X connect 29 0 30 0;
#X connect 30 0 37 0;
#X connect 31 0 32 0;
#X connect 32 0 35 0;
#X connect 33 0 11 0;
#X connect 34 0 33 0;
#X connect 35 0 33 0;
#X connect 36 0 33 0;
#X connect 37 0 33 0;
#X connect 38 0 28 1;
#X connect 39 0 32 1;
#X connect 40 0 26 1;
#X connect 41 0 30 1;
#X connect 42 0 15 0;
#X connect 42 0 20 0;
#X connect 42 0 21 0;
#X connect 42 0 22 0;
#X connect 42 0 38 0;
#X connect 42 0 39 0;
#X connect 42 0 40 0;
#X connect 42 0 41 0;
