#N canvas 126 39 1280 752 10;
#X msg 86 240 disconnect;
#X obj 936 662 outlet init-bang;
#X text 906 33 init bang;
#X obj 241 36 inlet message-to-send;
#X text 388 35 message to send;
#X obj 221 400 select 0;
#X obj 217 438 bang;
#X obj 219 477 list;
#X obj 421 635 print;
#X obj 429 434 bang;
#X obj 462 473 list;
#X obj 370 309 t l l l;
#X msg 462 511 connection to \$1:\$2 has been successfuly established
;
#X msg 219 515 failed to connect to \$1:\$2;
#X msg 193 109 send;
#X obj 241 164 list;
#X obj 784 34 inlet reset-bang;
#X obj 488 323 print;
#X msg 299 335 \$1 \$2 \$3;
#X obj 249 74 t b a;
#X obj 240 198 list trim;
#X obj 274 238 print sending;
#X msg 407 280 list connect \$1 \$2;
#X obj 217 356 netsend 1;
#X obj 536 109 r hostname;
#X obj 676 118 r port-number;
#X obj 534 170 symbol;
#X obj 657 166 float;
#X obj 612 125 t b b;
#X obj 565 215 pack s f;
#X connect 0 0 23 0;
#X connect 3 0 19 0;
#X connect 5 0 6 0;
#X connect 5 1 9 0;
#X connect 6 0 7 0;
#X connect 7 0 13 0;
#X connect 9 0 10 0;
#X connect 10 0 12 0;
#X connect 11 0 18 0;
#X connect 11 1 7 1;
#X connect 11 2 10 1;
#X connect 13 0 8 0;
#X connect 14 0 15 0;
#X connect 15 0 20 0;
#X connect 16 0 28 0;
#X connect 18 0 23 0;
#X connect 19 0 14 0;
#X connect 19 1 15 1;
#X connect 20 0 21 0;
#X connect 20 0 23 0;
#X connect 22 0 11 0;
#X connect 22 0 17 0;
#X connect 23 0 5 0;
#X connect 24 0 26 1;
#X connect 25 0 27 1;
#X connect 26 0 29 0;
#X connect 27 0 29 1;
#X connect 28 0 26 0;
#X connect 28 1 27 0;
#X connect 29 0 22 0;
