#N canvas 196 223 1280 752 10;
#X msg 124 164 init-bang;
#X msg 127 203 2nd-bank-enabled;
#X msg 128 237 decrease-volume;
#X msg 128 269 increase-volume;
#X msg 130 298 mute-volume;
#X msg 131 331 track-ctrl 1;
#X msg 131 362 track-ctrl 2;
#X msg 132 399 track-ctrl 3;
#X msg 132 434 track-ctrl 4;
#X msg 132 471 track-speed 1;
#X msg 130 509 track-speed 2;
#X msg 129 552 track-speed 3;
#X msg 129 597 track-speed 4;
#X obj 594 321 read-config-file;
#X obj 594 251 loadbang;
#X obj 514 414 io-net-client-core;
#X msg 594 285 io-net-client-ui.config;
#X connect 0 0 15 0;
#X connect 1 0 15 0;
#X connect 2 0 15 0;
#X connect 3 0 15 0;
#X connect 4 0 15 0;
#X connect 5 0 15 0;
#X connect 6 0 15 0;
#X connect 7 0 15 0;
#X connect 8 0 15 0;
#X connect 9 0 15 0;
#X connect 10 0 15 0;
#X connect 11 0 15 0;
#X connect 12 0 15 0;
#X connect 13 0 15 1;
#X connect 14 0 16 0;
#X connect 16 0 13 0;
