#N canvas -1 22 1280 752 10;
#X obj 27 15 inlet reset-bang;
#X obj 23 696 outlet reset-bang;
#X obj 252 16 inlet ng-ctrl-messages;
#X obj 271 716 outlet old-ctrl-messages;
#X obj 304 101 list split 1;
#X obj 266 74 t l l;
#X obj 257 134 list;
#X obj 669 240 print unknown-ctrl-message;
#N canvas 567 400 450 300 track-selector 0;
#X obj 36 19 inlet reset-bang;
#X obj 40 271 outlet reset-bang;
#X obj 236 19 inlet ng-ctrl-message;
#X obj 252 268 outlet current-track-no;
#X obj 211 121 float;
#X obj 248 61 route select-track;
#X msg 102 89 0;
#X obj 76 60 t b b;
#X connect 0 0 7 0;
#X connect 2 0 5 0;
#X connect 4 0 3 0;
#X connect 5 0 4 0;
#X connect 6 0 4 1;
#X connect 7 0 1 0;
#X connect 7 1 6 0;
#X restore 500 406 pd track-selector;
#X obj 27 58 s \$0-in-reset-bang;
#X obj 27 643 r \$0-out-reset-bang;
#X obj 500 377 r \$0-in-reset-bang;
#N canvas 187 418 726 322 start-stop-to-track-ctrl 0;
#X obj 32 269 outlet reset-bang;
#X obj 34 18 inlet reset-bang;
#X obj 176 19 inlet track-no;
#X obj 337 20 inlet ng-ctrl-message;
#X obj 349 267 outlet old-ctrl-message;
#X obj 305 128 float;
#X obj 287 233 pack s f;
#X obj 332 163 t b f;
#X obj 370 75 route start-stop;
#X obj 352 101 b;
#X obj 441 106 print got start-stop;
#X obj 597 110 print got-not-start-stop;
#X msg 243 193 track-ctrl;
#X connect 1 0 0 0;
#X connect 2 0 5 1;
#X connect 3 0 8 0;
#X connect 5 0 7 0;
#X connect 6 0 4 0;
#X connect 7 0 12 0;
#X connect 7 1 6 1;
#X connect 8 0 9 0;
#X connect 8 0 10 0;
#X connect 8 1 11 0;
#X connect 9 0 5 0;
#X connect 12 0 6 0;
#X restore 594 512 pd start-stop-to-track-ctrl;
#N canvas 0 22 1280 752 ng-track-speed-to-track-speed 0;
#X obj 42 279 outlet reset-bang;
#X obj 44 28 inlet reset-bang;
#X obj 186 29 inlet track-no;
#X obj 347 30 inlet ng-ctrl-message;
#X obj 359 277 outlet old-ctrl-message;
#X obj 315 138 float;
#X obj 297 243 pack s f;
#X obj 342 173 t b f;
#X obj 362 111 b;
#X msg 253 203 track-speed;
#X obj 380 85 route track-speed;
#X connect 1 0 0 0;
#X connect 2 0 5 1;
#X connect 3 0 10 0;
#X connect 5 0 7 0;
#X connect 6 0 4 0;
#X connect 7 0 9 0;
#X connect 7 1 6 1;
#X connect 8 0 5 0;
#X connect 9 0 6 0;
#X connect 10 0 8 0;
#X restore 853 545 pd ng-track-speed-to-track-speed;
#X obj 965 695 s \$0-out-reset-bang;
#X obj 255 42 list;
#X obj 277 158 list trim;
#X obj 714 167 print ng-message;
#X obj 653 680 list trim;
#X obj 269 182 route init-bang 2nd-bank-enabled increase-volume decrease-volume
mute-volume select-track start-stop track-speed track-delay;
#N canvas 0 22 1280 752 ng-track-delay-to-track-delay 0;
#X obj 42 279 outlet reset-bang;
#X obj 44 28 inlet reset-bang;
#X obj 186 29 inlet track-no;
#X obj 347 30 inlet ng-ctrl-message;
#X obj 359 277 outlet old-ctrl-message;
#X obj 315 138 float;
#X obj 297 243 pack s f;
#X obj 342 173 t b f;
#X obj 362 111 b;
#X obj 380 85 route track-delay;
#X msg 253 203 track-delay;
#X connect 1 0 0 0;
#X connect 2 0 5 1;
#X connect 3 0 9 0;
#X connect 5 0 7 0;
#X connect 6 0 4 0;
#X connect 7 0 10 0;
#X connect 7 1 6 1;
#X connect 8 0 5 0;
#X connect 9 0 8 0;
#X connect 10 0 6 0;
#X restore 1140 617 pd ng-track-delay-to-track-delay;
#X connect 0 0 9 0;
#X connect 2 0 15 0;
#X connect 4 0 6 0;
#X connect 5 0 4 0;
#X connect 5 1 6 1;
#X connect 6 0 16 0;
#X connect 8 0 12 0;
#X connect 8 1 12 1;
#X connect 8 1 13 1;
#X connect 8 1 20 1;
#X connect 10 0 1 0;
#X connect 11 0 8 0;
#X connect 12 0 13 0;
#X connect 12 1 18 0;
#X connect 13 0 20 0;
#X connect 13 1 18 0;
#X connect 15 0 5 0;
#X connect 16 0 17 0;
#X connect 16 0 19 0;
#X connect 18 0 3 0;
#X connect 19 0 3 0;
#X connect 19 1 3 0;
#X connect 19 2 3 0;
#X connect 19 3 3 0;
#X connect 19 4 3 0;
#X connect 19 5 8 1;
#X connect 19 6 12 2;
#X connect 19 7 13 2;
#X connect 19 8 20 2;
#X connect 19 9 7 0;
#X connect 20 0 14 0;
#X connect 20 1 18 0;
