#N canvas 322 22 1280 752 10;
#X msg 124 164 init-bang;
#X msg 127 203 2nd-bank-enabled;
#X msg 128 237 decrease-volume;
#X msg 128 269 increase-volume;
#X msg 130 298 mute-volume;
#X obj 594 321 read-config-file;
#X obj 594 251 loadbang;
#X obj 514 414 io-net-client-core;
#X msg 594 285 io-ng-net-client-ui.config;
#X msg 131 331 select-track 1;
#X msg 131 362 select-track 2;
#X msg 132 399 select-track 3;
#X msg 132 434 select-track 4;
#X msg 132 471 start-stop;
#X msg 130 509 track-speed;
#X connect 0 0 7 0;
#X connect 1 0 7 0;
#X connect 2 0 7 0;
#X connect 3 0 7 0;
#X connect 4 0 7 0;
#X connect 5 0 7 1;
#X connect 6 0 8 0;
#X connect 8 0 5 0;
#X connect 9 0 7 0;
#X connect 10 0 7 0;
#X connect 11 0 7 0;
#X connect 12 0 7 0;
#X connect 13 0 7 0;
#X connect 14 0 7 0;
