#N canvas 561 176 926 577 10;
#X obj 77 66 io-seq-midi-controller;
#X msg 77 38 bang;
#X obj 264 235 r ctrl-bus;
#X obj 319 140 noteout;
#X msg 318 102 48 100;
#X obj 264 262 print control-message;
#X msg 286 55 69 100;
#X text 339 54 start-stop;
#X text 370 100 decrease-volume;
#X text 400 74 2nd bank;
#X msg 348 76 47 100;
#X msg 240 26 60 100;
#X text 293 25 select track 1;
#X text 255 1 select track 4;
#X msg 202 2 67 100;
#X connect 1 0 0 0;
#X connect 2 0 5 0;
#X connect 4 0 3 0;
#X connect 6 0 3 0;
#X connect 10 0 3 0;
#X connect 11 0 3 0;
#X connect 14 0 3 0;
