#N canvas 284 22 986 693 10;
#X obj 394 574 s ctrl-bus;
#X obj 397 519 list;
#X obj 396 466 t b a;
#X msg 383 493 io;
#X obj 396 548 list trim;
#N canvas 272 50 919 548 select-track-buttons 0;
#X obj 178 121 bng 30 250 50 0 empty empty 1st 17 7 0 10 -262144 -1
-1;
#X obj 104 123 tgl 30 0 empty empty 2nd_bank 17 7 0 10 -262144 -1 -1
0 1;
#X obj 62 321 s \$0-select-track-1;
#X obj 194 320 s \$0-select-track-2;
#X obj 323 321 s \$0-select-track-3;
#X obj 459 322 s \$0-select-track-4;
#X obj 169 195 * 4;
#X msg 178 164 1;
#X obj 228 223 +;
#X obj 308 261 route 1 2 3 4 5 6 7 8;
#X obj 601 320 s \$0-select-track-5;
#X obj 733 319 s \$0-select-track-6;
#X obj 862 320 s \$0-select-track-7;
#X obj 998 321 s \$0-select-track-8;
#X obj 232 122 bng 30 250 50 0 empty empty 2nd 17 7 0 10 -262144 -1
-1;
#X obj 289 124 bng 30 250 50 0 empty empty 3rd 17 7 0 10 -262144 -1
-1;
#X obj 336 122 bng 30 250 50 0 empty empty 4th 17 7 0 10 -262144 -1
-1;
#X msg 232 165 2;
#X msg 289 167 3;
#X msg 336 165 4;
#X connect 0 0 7 0;
#X connect 1 0 6 0;
#X connect 6 0 8 1;
#X connect 7 0 8 0;
#X connect 8 0 9 0;
#X connect 9 0 2 0;
#X connect 9 1 3 0;
#X connect 9 2 4 0;
#X connect 9 3 5 0;
#X connect 9 4 10 0;
#X connect 9 5 11 0;
#X connect 9 6 12 0;
#X connect 9 7 13 0;
#X connect 14 0 17 0;
#X connect 15 0 18 0;
#X connect 16 0 19 0;
#X connect 17 0 8 0;
#X connect 18 0 8 0;
#X connect 19 0 8 0;
#X coords 0 -1 1 1 300 60 1 100 100;
#X restore 104 134 pd select-track-buttons;
#X obj 396 441 r \$0-message-to-send;
#N canvas 351 302 450 300 select-track-messages 0;
#X msg 76 432 select-track 1;
#X msg 180 432 select-track 2;
#X msg 290 432 select-track 3;
#X msg 396 432 select-track 4;
#X msg 508 433 select-track 5;
#X msg 612 433 select-track 6;
#X msg 722 433 select-track 7;
#X msg 828 433 select-track 8;
#X obj 39 384 r \$0-select-track-1;
#X obj 177 385 r \$0-select-track-2;
#X obj 301 353 r \$0-select-track-3;
#X obj 380 388 r \$0-select-track-4;
#X obj 501 348 r \$0-select-track-5;
#X obj 598 380 r \$0-select-track-6;
#X obj 723 352 r \$0-select-track-7;
#X obj 827 388 r \$0-select-track-8;
#X obj 414 496 s \$0-message-to-send;
#X connect 0 0 16 0;
#X connect 1 0 16 0;
#X connect 2 0 16 0;
#X connect 3 0 16 0;
#X connect 4 0 16 0;
#X connect 5 0 16 0;
#X connect 6 0 16 0;
#X connect 7 0 16 0;
#X connect 8 0 0 0;
#X connect 9 0 1 0;
#X connect 10 0 2 0;
#X connect 11 0 3 0;
#X connect 12 0 4 0;
#X connect 13 0 5 0;
#X connect 14 0 6 0;
#X connect 15 0 7 0;
#X restore 577 118 pd select-track-messages;
#N canvas 310 198 815 461 misc-buttons 0;
#X obj 115 122 bng 30 250 50 0 empty empty start-stop 17 7 0 10 -262144
-1 -1;
#X obj 199 123 bng 30 250 50 0 empty empty speed 17 7 0 10 -262144
-1 -1;
#X obj 273 124 bng 30 250 50 0 empty empty increase-volume 17 7 0 10
-262144 -1 -1;
#X obj 384 124 bng 30 250 50 0 empty empty decrease-volume 17 7 0 10
-262144 -1 -1;
#X obj 497 126 tgl 30 0 empty empty mute 17 7 0 10 -262144 -1 -1 0
1;
#X obj 78 259 s \$0-start-stop;
#X obj 222 264 s \$0-speed;
#X obj 348 287 s \$0-increase-volume;
#X obj 500 283 s \$0-decrease-volume;
#X obj 680 261 s \$0-mute;
#X connect 0 0 5 0;
#X connect 1 0 6 0;
#X connect 2 0 7 0;
#X connect 3 0 8 0;
#X connect 4 0 9 0;
#X coords 0 -1 1 1 450 60 1 100 100;
#X restore 106 217 pd misc-buttons;
#N canvas 562 259 691 444 misc-messages 0;
#X obj 27 51 r \$0-start-stop;
#X obj 145 52 r \$0-speed;
#X obj 225 52 r \$0-increase-volume;
#X obj 365 53 r \$0-decrease-volume;
#X obj 506 51 r \$0-mute;
#X msg 39 99 start-stop;
#X msg 150 100 change-speed;
#X msg 251 99 increase-volume;
#X msg 385 98 decrease-volume;
#X msg 511 99 mute-volume;
#X obj 238 201 s \$0-message-to-send;
#X connect 0 0 5 0;
#X connect 1 0 6 0;
#X connect 2 0 7 0;
#X connect 3 0 8 0;
#X connect 4 0 9 0;
#X connect 5 0 10 0;
#X connect 6 0 10 0;
#X connect 7 0 10 0;
#X connect 8 0 10 0;
#X connect 9 0 10 0;
#X restore 583 248 pd misc-messages;
#X connect 1 0 4 0;
#X connect 2 0 3 0;
#X connect 2 1 1 1;
#X connect 3 0 1 0;
#X connect 4 0 0 0;
#X connect 6 0 2 0;
#X coords 0 -1 1 1 460 200 1 100 100;
