#N canvas 280 38 1276 697 10;
#X obj 51 62 inlet init-bang;
#X obj 51 633 outlet out-init-bang;
#X obj 413 642 s ctrl-bus;
#X obj 416 587 list;
#X obj 415 534 t b a;
#X msg 402 561 io;
#X obj 415 616 list trim;
#X obj 415 509 r \$0-message-to-send;
#N canvas 53 73 1046 565 select-tracks-controller 0;
#X obj 30 27 inlet init-bang;
#X obj 35 458 outlet out-init-bang;
#X obj 210 217 r config-midi-note;
#X obj 86 218 r \$0-note;
#X text 257 191 message to catch;
#X text 71 194 midi stream;
#X obj 37 59 t b b b b b b b b b b b b b b;
#X msg 149 192 2nd-bank-enabled;
#X obj 99 244 midi-toggle-control;
#X obj 364 423 s \$0-message-to-send;
#X obj 210 284 s \$0-2nd-bank-enabled;
#X text 800 176 config-stream;
#X obj 680 175 r config-midi-note;
#X obj 568 176 r \$0-note;
#X text 739 149 message to catch;
#X text 553 152 midi stream;
#X obj 581 202 midi-bang-control-2;
#X msg 631 150 select-track 1;
#N canvas 417 337 764 363 wrap-seect-track-with-2nd-bank 0;
#X obj 50 47 inlet init-bang;
#X obj 509 48 inlet in-messages;
#X obj 310 322 outlet out-messages;
#X obj 412 113 route select-track;
#X obj 496 167 r \$0-2nd-bank-enabled;
#X msg 452 166 4;
#X obj 481 196 *;
#X obj 412 139 t f b;
#X obj 420 229 +;
#X msg 342 279 select-track \$1;
#X connect 1 0 3 0;
#X connect 3 0 7 0;
#X connect 4 0 6 1;
#X connect 5 0 6 0;
#X connect 6 0 8 1;
#X connect 7 0 8 0;
#X connect 7 1 5 0;
#X connect 8 0 9 0;
#X connect 9 0 2 0;
#X restore 582 365 pd wrap-seect-track-with-2nd-bank;
#X text 1130 174 config-stream;
#X obj 1010 173 r config-midi-note;
#X obj 898 174 r \$0-note;
#X text 1069 147 message to catch;
#X text 883 150 midi stream;
#X obj 911 200 midi-bang-control-2;
#X msg 961 148 select-track 2;
#X text 1474 181 config-stream;
#X obj 1354 180 r config-midi-note;
#X obj 1242 181 r \$0-note;
#X text 1413 154 message to catch;
#X text 1227 157 midi stream;
#X obj 1255 207 midi-bang-control-2;
#X msg 1305 155 select-track 3;
#X text 1814 179 config-stream;
#X obj 1694 178 r config-midi-note;
#X obj 1582 179 r \$0-note;
#X text 1753 152 message to catch;
#X text 1567 155 midi stream;
#X obj 1595 205 midi-bang-control-2;
#X msg 1645 153 select-track 4;
#X connect 0 0 6 0;
#X connect 2 0 8 2;
#X connect 3 0 8 0;
#X connect 6 0 1 0;
#X connect 6 1 39 0;
#X connect 6 2 32 0;
#X connect 6 3 25 0;
#X connect 6 4 17 0;
#X connect 6 12 18 0;
#X connect 6 13 7 0;
#X connect 7 0 8 1;
#X connect 8 0 9 0;
#X connect 8 1 10 0;
#X connect 12 0 16 2;
#X connect 13 0 16 0;
#X connect 16 0 18 1;
#X connect 17 0 16 1;
#X connect 18 0 9 0;
#X connect 20 0 24 2;
#X connect 21 0 24 0;
#X connect 24 0 18 1;
#X connect 25 0 24 1;
#X connect 27 0 31 2;
#X connect 28 0 31 0;
#X connect 31 0 18 1;
#X connect 32 0 31 1;
#X connect 34 0 38 2;
#X connect 35 0 38 0;
#X connect 38 0 18 1;
#X connect 39 0 38 1;
#X restore 51 102 pd select-tracks-controller;
#N canvas 749 119 450 300 midi-notes-reader 0;
#X obj 90 42 notein;
#X obj 90 77 stripnote;
#X obj 90 109 s \$0-note;
#X text 88 16 get midi note;
#X obj 49 134 s \$0-raw-note;
#X obj 155 66 s \$0-raw-velocity;
#X connect 0 0 1 0;
#X connect 0 0 4 0;
#X connect 0 1 1 1;
#X connect 0 1 5 0;
#X connect 1 0 2 0;
#X restore 396 50 pd midi-notes-reader;
#X text 68 193 init bang;
#X text 534 51 sends \$0-note message;
#N canvas 399 103 741 356 volume-controller 0;
#X obj 138 -39 inlet in-init-bang;
#X obj 37 247 outlet out-init-bang;
#X obj 186 165 midi-bang-control;
#X text 405 139 config-stream;
#X msg 236 113 decrease-volume;
#X obj 285 138 r config-midi-note;
#X obj 597 286 s \$0-message-to-send;
#X obj 142 0 t b b b b b b b b b;
#X obj 173 139 r \$0-note;
#X text 344 112 message to catch;
#X text 158 115 midi stream;
#X obj 545 160 midi-bang-control;
#X text 764 134 config-stream;
#X obj 644 133 r config-midi-note;
#X obj 532 134 r \$0-note;
#X text 703 107 message to catch;
#X text 517 110 midi stream;
#X obj 898 150 midi-bang-control;
#X text 1117 124 config-stream;
#X obj 997 123 r config-midi-note;
#X obj 885 124 r \$0-note;
#X text 1056 97 message to catch;
#X text 870 100 midi stream;
#X msg 595 108 increase-volume;
#X msg 948 98 mute-volume;
#X connect 0 0 7 0;
#X connect 2 0 6 0;
#X connect 4 0 2 1;
#X connect 5 0 2 2;
#X connect 7 0 1 0;
#X connect 7 2 4 0;
#X connect 7 3 23 0;
#X connect 7 4 24 0;
#X connect 8 0 2 0;
#X connect 11 0 6 0;
#X connect 13 0 11 2;
#X connect 14 0 11 0;
#X connect 17 0 6 0;
#X connect 19 0 17 2;
#X connect 20 0 17 0;
#X connect 23 0 11 1;
#X connect 24 0 17 1;
#X restore 51 132 pd volume-controller;
#N canvas 596 159 450 300 config-stream-catcher 0;
#X restore 394 97 pd config-stream-catcher;
#X msg 51 220 seq-midi-notes.config;
#X obj 51 248 read-config-file;
#N canvas 96 84 1163 649 start-stop-change-speed-controller 1;
#X obj 148 -29 inlet in-init-bang;
#X obj 47 257 outlet out-init-bang;
#X obj 196 175 midi-bang-control;
#X text 415 149 config-stream;
#X obj 295 148 r config-midi-note;
#X obj 472 400 s \$0-message-to-send;
#X obj 152 10 t b b b b b b b b b;
#X obj 183 149 r \$0-note;
#X text 354 122 message to catch;
#X text 168 125 midi stream;
#X obj 1019 161 midi-bang-control;
#X text 1238 135 config-stream;
#X obj 1118 134 r config-midi-note;
#X obj 1006 135 r \$0-note;
#X text 1177 108 message to catch;
#X text 991 111 midi stream;
#X msg 1069 109 start-stop;
#X obj 576 165 midi-bang-control;
#X text 795 139 config-stream;
#X obj 675 138 r config-midi-note;
#X obj 563 139 r \$0-note;
#X text 734 112 message to catch;
#X text 548 115 midi stream;
#X msg 246 123 decrease-speed;
#X msg 626 113 increase-speed;
#X connect 0 0 6 0;
#X connect 2 0 5 0;
#X connect 4 0 2 2;
#X connect 6 0 1 0;
#X connect 6 2 23 0;
#X connect 6 5 24 0;
#X connect 6 7 16 0;
#X connect 7 0 2 0;
#X connect 10 0 5 0;
#X connect 12 0 10 2;
#X connect 13 0 10 0;
#X connect 16 0 10 1;
#X connect 17 0 5 0;
#X connect 19 0 17 2;
#X connect 20 0 17 0;
#X connect 23 0 2 1;
#X connect 24 0 17 1;
#X restore 51 169 pd start-stop-change-speed-controller;
#X connect 0 0 8 0;
#X connect 3 0 6 0;
#X connect 4 0 5 0;
#X connect 4 1 3 1;
#X connect 5 0 3 0;
#X connect 6 0 2 0;
#X connect 7 0 4 0;
#X connect 8 0 12 0;
#X connect 12 0 16 0;
#X connect 14 0 15 0;
#X connect 15 0 1 0;
#X connect 16 0 14 0;
