#N canvas 326 22 1280 752 10;
#X obj 19 22 inlet init-bang;
#X obj 14 857 outlet out-init-bang;
#X obj 372 860 s ctrl-bus;
#X obj 375 805 list;
#X obj 374 752 t b a;
#X msg 361 779 io;
#X obj 374 834 list trim;
#X obj 374 727 r \$0-message-to-send;
#N canvas 182 132 1046 565 select-tracks-controller 0;
#X obj 30 27 inlet init-bang;
#X obj 35 458 outlet out-init-bang;
#X text 257 191 message to catch;
#X obj 37 59 t b b b b b b b b b b b b b b;
#X msg 149 192 2nd-bank-enabled;
#X obj 99 244 midi-toggle-control;
#X obj 364 423 s \$0-message-to-send;
#X obj 210 284 s \$0-2nd-bank-enabled;
#N canvas 417 337 764 363 wrap-seect-track-with-2nd-bank 0;
#X obj 50 47 inlet init-bang;
#X obj 509 48 inlet in-messages;
#X obj 310 322 outlet out-messages;
#X obj 412 113 route select-track;
#X obj 496 167 r \$0-2nd-bank-enabled;
#X msg 452 166 4;
#X obj 481 196 *;
#X obj 412 139 t f b;
#X obj 420 229 +;
#X msg 342 279 select-track \$1;
#X connect 1 0 3 0;
#X connect 3 0 7 0;
#X connect 4 0 6 1;
#X connect 5 0 6 0;
#X connect 6 0 8 1;
#X connect 7 0 8 0;
#X connect 7 1 5 0;
#X connect 8 0 9 0;
#X connect 9 0 2 0;
#X restore 582 365 pd wrap-seect-track-with-2nd-bank;
#X obj 210 217 r config-serial-buttons;
#X obj 72 217 r \$0-commands-stream;
#X text 827 218 config-stream;
#X text 766 191 message to catch;
#X obj 608 244 midi-bang-control-2;
#X msg 658 192 select-track 1;
#X text 1096 189 message to catch;
#X obj 938 242 midi-bang-control-2;
#X msg 988 190 select-track 2;
#X text 1495 195 message to catch;
#X obj 1337 248 midi-bang-control-2;
#X msg 1387 196 select-track 3;
#X text 1914 188 message to catch;
#X obj 1756 241 midi-bang-control-2;
#X msg 1806 189 select-track 4;
#X text 53 191 commands stream;
#X obj 677 215 r config-serial-buttons;
#X obj 539 215 r \$0-commands-stream;
#X text 520 189 commands stream;
#X text 1199 220 config-stream;
#X obj 1049 217 r config-serial-buttons;
#X obj 911 217 r \$0-commands-stream;
#X text 892 191 commands stream;
#X text 1577 223 config-stream;
#X obj 1427 220 r config-serial-buttons;
#X obj 1289 220 r \$0-commands-stream;
#X text 1270 194 commands stream;
#X text 2012 217 config-stream;
#X obj 1862 214 r config-serial-buttons;
#X obj 1724 214 r \$0-commands-stream;
#X text 1705 188 commands stream;
#X connect 0 0 3 0;
#X connect 3 0 1 0;
#X connect 3 3 23 0;
#X connect 3 5 20 0;
#X connect 3 7 17 0;
#X connect 3 9 14 0;
#X connect 3 12 8 0;
#X connect 3 13 4 0;
#X connect 4 0 5 1;
#X connect 5 0 6 0;
#X connect 5 1 7 0;
#X connect 8 0 6 0;
#X connect 9 0 5 2;
#X connect 10 0 5 0;
#X connect 13 0 8 1;
#X connect 14 0 13 1;
#X connect 16 0 8 1;
#X connect 17 0 16 1;
#X connect 19 0 8 1;
#X connect 20 0 19 1;
#X connect 22 0 8 1;
#X connect 23 0 22 1;
#X connect 25 0 13 2;
#X connect 26 0 13 0;
#X connect 29 0 16 2;
#X connect 30 0 16 0;
#X connect 33 0 19 2;
#X connect 34 0 19 0;
#X connect 37 0 22 2;
#X connect 38 0 22 0;
#X restore 19 62 pd select-tracks-controller;
#X text 36 153 init bang;
#N canvas 130 154 881 572 volume-controller 0;
#X obj 138 -39 inlet in-init-bang;
#X obj 37 247 outlet out-init-bang;
#X obj 186 165 midi-bang-control;
#X text 430 138 config-stream;
#X msg 236 113 decrease-volume;
#X obj 721 285 s \$0-message-to-send;
#X obj 142 0 t b b b b b b b b b;
#X text 344 112 message to catch;
#X obj 669 159 midi-bang-control;
#X text 827 106 message to catch;
#X obj 1184 153 midi-bang-control;
#X text 1342 100 message to catch;
#X msg 719 107 increase-volume;
#X msg 1234 101 mute-volume;
#X obj 106 134 r \$0-commands-stream;
#X obj 285 138 r config-serial-buttons;
#X text 895 132 config-stream;
#X obj 571 128 r \$0-commands-stream;
#X obj 750 132 r config-serial-buttons;
#X text 1425 126 config-stream;
#X obj 1101 122 r \$0-commands-stream;
#X obj 1280 126 r config-serial-buttons;
#X connect 0 0 6 0;
#X connect 2 0 5 0;
#X connect 4 0 2 1;
#X connect 6 0 1 0;
#X connect 6 2 4 0;
#X connect 6 3 12 0;
#X connect 6 4 13 0;
#X connect 8 0 5 0;
#X connect 10 0 5 0;
#X connect 12 0 8 1;
#X connect 13 0 10 1;
#X connect 14 0 2 0;
#X connect 15 0 2 2;
#X connect 17 0 8 0;
#X connect 18 0 8 2;
#X connect 20 0 10 0;
#X connect 21 0 10 2;
#X restore 19 92 pd volume-controller;
#N canvas 596 159 648 470 config-stream-catcher 0;
#X obj 113 9 r config-serialport;
#X obj 57 367 makefilename \$0-%s;
#X obj 57 339 symbol;
#X obj 118 266 list split 1;
#X obj 190 437 list;
#X obj 114 516 send;
#X obj 100 429 t b s;
#X obj 169 107 route serialport baudrate;
#X obj 119 52 t l l;
#X obj 119 143 b;
#X obj 317 168 s config-serial-buttons;
#X obj 131 203 list;
#X obj 169 83 list trim;
#X connect 0 0 8 0;
#X connect 1 0 6 0;
#X connect 2 0 1 0;
#X connect 3 0 2 0;
#X connect 3 1 4 1;
#X connect 4 0 5 0;
#X connect 6 0 4 0;
#X connect 6 1 5 1;
#X connect 7 0 9 0;
#X connect 7 1 9 0;
#X connect 7 2 10 0;
#X connect 8 0 12 0;
#X connect 8 1 11 1;
#X connect 9 0 11 0;
#X connect 11 0 3 0;
#X connect 12 0 7 0;
#X restore 362 57 pd config-stream-catcher;
#X obj 18 198 read-config-file;
#N canvas 96 84 1163 649 start-stop-change-speed-controller 0;
#X obj 148 -29 inlet in-init-bang;
#X obj 47 257 outlet out-init-bang;
#X obj 472 400 s \$0-message-to-send;
#X obj 152 10 t b b b b b b b b b;
#X text 354 122 message to catch;
#X text 1177 108 message to catch;
#X msg 1069 109 start-stop;
#X text 734 112 message to catch;
#X msg 246 123 decrease-speed;
#X msg 626 113 increase-speed;
#X obj 209 188 midi-bang-control;
#X text 453 161 config-stream;
#X obj 129 157 r \$0-commands-stream;
#X obj 308 161 r config-serial-buttons;
#X obj 628 183 midi-bang-control;
#X obj 548 152 r \$0-commands-stream;
#X obj 727 156 r config-serial-buttons;
#X obj 1014 176 midi-bang-control;
#X obj 934 145 r \$0-commands-stream;
#X obj 1113 149 r config-serial-buttons;
#X connect 0 0 3 0;
#X connect 3 0 1 0;
#X connect 3 2 8 0;
#X connect 3 5 9 0;
#X connect 3 7 6 0;
#X connect 6 0 17 1;
#X connect 8 0 10 1;
#X connect 9 0 14 1;
#X connect 10 0 2 0;
#X connect 12 0 10 0;
#X connect 13 0 10 2;
#X connect 14 0 2 0;
#X connect 15 0 14 0;
#X connect 16 0 14 2;
#X connect 17 0 2 0;
#X connect 18 0 17 0;
#X connect 19 0 17 2;
#X restore 19 129 pd start-stop-change-speed-controller;
#N canvas 0 22 1280 752 protocol-parser 0;
#X obj -9 90 select 127;
#X obj -73 221 float;
#X obj -17 220 + 1;
#X obj -23 326 spigot;
#X obj -79 181 b;
#X obj 189 326 spigot;
#X obj 39 122 t f f b;
#X obj -53 403 float;
#X obj 57 442 pack f f;
#X obj 189 357 t b f;
#X msg -46 194 5;
#X obj 10 297 == 5;
#X obj 222 294 == 6;
#X obj -5 24 inlet raw-stream;
#X obj 57 519 outlet button-state;
#X text -7 195 just number;
#X text 48 295 select first number;
#X text 49 308 button number;
#X text 264 294 select second numnber;
#X text 265 309 button state - 0 or 1;
#X text 296 60 protocol of data packet is: 127<button number><button
state><all other bytes before next 127 are ignored>;
#X connect 0 0 10 0;
#X connect 0 1 6 0;
#X connect 1 0 2 0;
#X connect 1 0 11 0;
#X connect 1 0 12 0;
#X connect 2 0 1 1;
#X connect 3 0 7 1;
#X connect 4 0 1 0;
#X connect 5 0 9 0;
#X connect 6 0 3 0;
#X connect 6 1 5 0;
#X connect 6 2 4 0;
#X connect 7 0 8 0;
#X connect 8 0 14 0;
#X connect 9 0 7 0;
#X connect 9 1 8 1;
#X connect 10 0 1 1;
#X connect 11 0 3 1;
#X connect 12 0 5 1;
#X connect 13 0 0 0;
#X restore 151 268 pd protocol-parser;
#N canvas 591 322 450 300 strip-commands 0;
#X obj 37 16 inlet button-state;
#X obj 126 100 unpack f f;
#X obj 46 202 list;
#X obj 63 57 t l l;
#X obj 160 140 select 1;
#X obj 46 166 b;
#X obj 46 270 outlet button-state;
#X text 217 51 works like stripnote;
#X text 222 140 pass if button pressed;
#X connect 0 0 3 0;
#X connect 1 1 4 0;
#X connect 2 0 6 0;
#X connect 3 0 1 0;
#X connect 3 1 2 1;
#X connect 4 0 5 0;
#X connect 5 0 2 0;
#X restore 151 296 pd strip-commands;
#X obj 151 323 s \$0-commands-stream;
#N canvas 407 162 738 448 io-comport-middlware 0;
#X obj 313 241 comport;
#X msg 36 148 devicename;
#X obj 123 148 symbol;
#X msg 104 223 \$1 \$2;
#X obj 93 189 list;
#X obj 80 115 t b b;
#X obj 75 14 inlet reset-bang;
#X obj 417 87 t b b;
#X text 252 122 get from config file;
#X text 591 98 get from config file;
#X msg 406 128 baud;
#X obj 444 164 list;
#X msg 444 191 \$1 \$2;
#X obj 352 286 route open;
#X obj 393 359 print got error while opening serial port;
#X obj 77 81 delay 40;
#X obj 52 401 outlet reset-bang;
#X obj 470 124 float;
#X obj 320 552 outlet data;
#X floatatom 579 537 10 0 0 1 baud - -, f 10;
#X floatatom 654 578 3 0 0 3 parity - -, f 3;
#X floatatom 679 578 3 0 0 2 stop - -, f 3;
#X floatatom 704 577 3 0 0 3 data - -, f 3;
#X floatatom 780 539 3 0 0 0 port - -, f 3;
#X obj 729 543 tgl 15 0 empty empty rts/cts -10 20 1 11 -24198 -258699
-1 0 1;
#X obj 755 559 tgl 15 0 empty empty xon/xoff -14 20 1 11 -24198 -258699
-1 0 1;
#X text 518 577 serial packet format:;
#X text 670 527 handshaking:;
#X text 476 609 flow control inputs:;
#X obj 604 609 tgl 15 0 empty empty dsr 0 20 1 11 -24198 -258699 -1
1 1;
#X obj 629 609 tgl 15 0 empty empty cts 0 20 1 11 -24198 -258699 -1
0 1;
#X obj 805 540 tgl 15 0 empty empty open -6 20 1 11 -24198 -258699
-1 0 1;
#X obj 830 574 print port_list;
#X obj 944 530 print other;
#X obj 855 537 tgl 15 0 empty empty hupcl -6 20 1 11 -24198 -258699
-1 1 1;
#X floatatom 880 550 10 0 0 1 rxerrors - -, f 10;
#X obj 589 465 route baud dsr cts parity stop data rtscts xonxoff port
open ports hupcl rxerrors;
#X msg 270 205 info;
#X obj 156 123 r \$0-serialport;
#X obj 503 97 r \$0-baudrate;
#X obj 173 416 print comport-middleware-initialized;
#X obj 390 262 print serial-port-info;
#X obj 77 42 t b b b;
#X obj 267 181 delay 80;
#X obj 334 326 select 1;
#X connect 0 0 18 0;
#X connect 0 1 13 0;
#X connect 0 1 41 0;
#X connect 1 0 4 0;
#X connect 2 0 4 1;
#X connect 3 0 0 0;
#X connect 4 0 3 0;
#X connect 5 0 1 0;
#X connect 5 1 2 0;
#X connect 6 0 42 0;
#X connect 7 0 10 0;
#X connect 7 1 17 0;
#X connect 10 0 11 0;
#X connect 11 0 12 0;
#X connect 12 0 0 0;
#X connect 13 0 44 0;
#X connect 13 1 36 0;
#X connect 15 0 5 0;
#X connect 17 0 11 1;
#X connect 36 0 19 0;
#X connect 36 1 29 0;
#X connect 36 2 30 0;
#X connect 36 3 20 0;
#X connect 36 4 21 0;
#X connect 36 5 22 0;
#X connect 36 6 24 0;
#X connect 36 7 25 0;
#X connect 36 8 23 0;
#X connect 36 9 31 0;
#X connect 36 10 32 0;
#X connect 36 11 34 0;
#X connect 36 12 35 0;
#X connect 36 13 33 0;
#X connect 37 0 0 0;
#X connect 38 0 2 1;
#X connect 39 0 17 1;
#X connect 42 0 43 0;
#X connect 42 1 15 0;
#X connect 42 2 7 0;
#X connect 43 0 37 0;
#X connect 44 0 40 0;
#X connect 44 0 16 0;
#X connect 44 1 14 0;
#X restore 16 239 pd io-comport-middlware;
#X obj 2558 499 r mute-volume-button;
#X text 517 58 converts config-serialport stream to separate sends
;
#X text 169 241 interaction with comport;
#X msg 18 171 seq-io-serial.config;
#X connect 0 0 8 0;
#X connect 3 0 6 0;
#X connect 4 0 5 0;
#X connect 4 1 3 1;
#X connect 5 0 3 0;
#X connect 6 0 2 0;
#X connect 7 0 4 0;
#X connect 8 0 10 0;
#X connect 10 0 13 0;
#X connect 12 0 17 0;
#X connect 13 0 21 0;
#X connect 14 0 15 0;
#X connect 15 0 16 0;
#X connect 17 0 1 0;
#X connect 17 1 14 0;
#X connect 21 0 12 0;
