#N canvas 2 22 1280 752 10;
#X obj -234 663 outlet init-reset-bang;
#X obj 636 654 outlet ctrl-message;
#X obj 88 46 inlet init-bang;
#N canvas 0 22 1280 752 protocol-parser 0;
#X obj -9 90 select 127;
#X obj -73 221 float;
#X obj -17 220 + 1;
#X obj -23 326 spigot;
#X obj -79 181 b;
#X obj 89 327 spigot;
#X obj 39 122 t f f b;
#X obj -53 403 float;
#X obj 57 442 pack f f;
#X obj 89 358 t b f;
#X msg -46 194 5;
#X obj 10 297 == 5;
#X obj 122 295 == 6;
#X obj -5 24 inlet raw-stream;
#X obj 57 519 outlet button-state;
#X connect 0 0 10 0;
#X connect 0 1 6 0;
#X connect 1 0 2 0;
#X connect 1 0 11 0;
#X connect 1 0 12 0;
#X connect 2 0 1 1;
#X connect 3 0 7 1;
#X connect 4 0 1 0;
#X connect 5 0 9 0;
#X connect 6 0 3 0;
#X connect 6 1 5 0;
#X connect 6 2 4 0;
#X connect 7 0 8 0;
#X connect 8 0 14 0;
#X connect 9 0 7 0;
#X connect 9 1 8 1;
#X connect 10 0 1 1;
#X connect 11 0 3 1;
#X connect 12 0 5 1;
#X connect 13 0 0 0;
#X restore -69 344 pd protocol-parser;
#N canvas 591 322 450 300 strip-commands 0;
#X obj 37 16 inlet button-state;
#X obj 126 100 unpack f f;
#X obj 46 202 list;
#X obj 63 57 t l l;
#X obj 160 140 select 1;
#X obj 46 166 b;
#X obj 46 270 outlet button-state;
#X connect 0 0 3 0;
#X connect 1 1 4 0;
#X connect 2 0 6 0;
#X connect 3 0 1 0;
#X connect 3 1 2 1;
#X connect 4 0 5 0;
#X connect 5 0 2 0;
#X restore -69 372 pd strip-commands;
#X msg 412 382 init-bang;
#X obj 481 403 r \$0-commands-stream;
#X obj 553 429 r init-bang-button;
#X obj 151 152 t b b;
#X obj -66 407 s \$0-commands-stream;
#X obj 749 409 r \$0-commands-stream;
#X obj 821 435 r 2nd-bank-enabled-button;
#X msg 680 388 2nd-bank-enabled;
#X obj 1066 409 r \$0-commands-stream;
#X obj 1380 417 r \$0-commands-stream;
#X msg 997 388 decrease-volume;
#X obj 1138 435 r decrease-volume-button;
#X msg 1311 396 increase-volume;
#X obj 1452 443 r increase-volume-button;
#N canvas 0 22 1280 752 start-stop-tracks 0;
#X obj 79 24 inlet reset-bang;
#X obj 96 303 outlet ctrl-message;
#X obj 94 115 r \$0-commands-stream;
#X msg 25 94 track-ctrl 1;
#X obj 166 141 r track-ctrl-1-button;
#X obj 373 123 r \$0-commands-stream;
#X obj 681 130 r \$0-commands-stream;
#X obj 988 133 r \$0-commands-stream;
#X msg 304 102 track-ctrl 2;
#X msg 612 109 track-ctrl 3;
#X msg 919 112 track-ctrl 4;
#X obj 445 148 r track-ctrl-2-button;
#X obj 753 156 r track-ctrl-3-button;
#X obj 1060 159 r track-ctrl-4-button;
#X obj 25 169 button-event-listener;
#X obj 304 177 button-event-listener;
#X obj 612 184 button-event-listener;
#X obj 919 187 button-event-listener;
#X connect 0 0 3 0;
#X connect 0 0 8 0;
#X connect 0 0 9 0;
#X connect 0 0 10 0;
#X connect 2 0 14 1;
#X connect 3 0 14 0;
#X connect 4 0 14 2;
#X connect 5 0 15 1;
#X connect 6 0 16 1;
#X connect 7 0 17 1;
#X connect 8 0 15 0;
#X connect 9 0 16 0;
#X connect 10 0 17 0;
#X connect 11 0 15 2;
#X connect 12 0 16 2;
#X connect 13 0 17 2;
#X connect 14 0 1 0;
#X connect 15 0 1 0;
#X connect 16 0 1 0;
#X connect 17 0 1 0;
#X restore 125 451 pd start-stop-tracks;
#N canvas 407 162 738 448 io-comport-middlware 0;
#X obj 313 241 comport;
#X msg 36 148 devicename;
#X obj 123 148 symbol;
#X obj 156 123 r serialport;
#X msg 104 223 \$1 \$2;
#X obj 93 189 list;
#X obj 80 115 t b b;
#X obj 75 14 inlet reset-bang;
#X obj 417 87 t b b;
#X obj 503 97 r baudrate;
#X text 241 122 get from config file;
#X text 579 97 get from config file;
#X msg 406 128 baud;
#X obj 444 164 list;
#X msg 444 191 \$1 \$2;
#X obj 352 286 route open;
#X obj 410 322 print got error while opening serial port;
#X obj 77 42 t b b;
#X obj 77 81 delay 40;
#X obj 52 401 outlet reset-bang;
#X obj 470 124 float;
#X obj 308 387 outlet data;
#X floatatom 579 537 10 0 0 1 baud - -;
#X floatatom 654 578 3 0 0 3 parity - -;
#X floatatom 679 578 3 0 0 2 stop - -;
#X floatatom 704 577 3 0 0 3 data - -;
#X floatatom 780 539 3 0 0 0 port - -;
#X obj 729 543 tgl 15 0 empty empty rts/cts -10 20 1 11 -24198 -258699
-1 0 1;
#X obj 755 559 tgl 15 0 empty empty xon/xoff -14 20 1 11 -24198 -258699
-1 0 1;
#X text 518 577 serial packet format:;
#X text 670 527 handshaking:;
#X text 476 609 flow control inputs:;
#X obj 604 609 tgl 15 0 empty empty dsr 0 20 1 11 -24198 -258699 -1
0 1;
#X obj 629 609 tgl 15 0 empty empty cts 0 20 1 11 -24198 -258699 -1
0 1;
#X obj 805 540 tgl 15 0 empty empty open -6 20 1 11 -24198 -258699
-1 0 1;
#X obj 830 574 print port_list;
#X obj 944 530 print other;
#X obj 855 537 tgl 15 0 empty empty hupcl -6 20 1 11 -24198 -258699
-1 0 1;
#X floatatom 880 550 10 0 0 1 rxerrors - -;
#X obj 589 465 route baud dsr cts parity stop data rtscts xonxoff port
open ports hupcl rxerrors;
#X msg 529 217 info;
#X connect 0 0 21 0;
#X connect 0 1 15 0;
#X connect 1 0 5 0;
#X connect 2 0 5 1;
#X connect 3 0 2 1;
#X connect 4 0 0 0;
#X connect 5 0 4 0;
#X connect 6 0 1 0;
#X connect 6 1 2 0;
#X connect 7 0 17 0;
#X connect 8 0 12 0;
#X connect 8 1 20 0;
#X connect 9 0 20 1;
#X connect 12 0 13 0;
#X connect 13 0 14 0;
#X connect 14 0 0 0;
#X connect 15 0 19 0;
#X connect 15 1 16 0;
#X connect 15 1 39 0;
#X connect 17 0 18 0;
#X connect 17 1 8 0;
#X connect 18 0 6 0;
#X connect 20 0 13 1;
#X connect 39 0 22 0;
#X connect 39 1 32 0;
#X connect 39 2 33 0;
#X connect 39 3 23 0;
#X connect 39 4 24 0;
#X connect 39 5 25 0;
#X connect 39 6 27 0;
#X connect 39 7 28 0;
#X connect 39 8 26 0;
#X connect 39 9 34 0;
#X connect 39 10 35 0;
#X connect 39 11 37 0;
#X connect 39 12 38 0;
#X connect 39 13 36 0;
#X connect 40 0 0 0;
#X restore -232 315 pd io-comport-middlware;
#X obj 412 457 button-event-listener;
#X obj 680 463 button-event-listener;
#X obj 997 463 button-event-listener;
#X obj 1311 471 button-event-listener;
#X obj 1704 421 r \$0-commands-stream;
#X obj 1635 475 button-event-listener;
#X msg 1635 400 mute-volume;
#X obj 1776 447 r mute-volume-button;
#N canvas 0 22 1280 752 track-speeds 1;
#X obj 73 15 inlet reset-bang;
#X obj 90 294 outlet ctrl-message;
#X obj 88 106 r \$0-commands-stream;
#X obj 367 114 r \$0-commands-stream;
#X obj 675 121 r \$0-commands-stream;
#X obj 982 124 r \$0-commands-stream;
#X msg 19 85 track-speed 1;
#X obj 160 132 r track-speed-1-button;
#X msg 298 93 track-speed 2;
#X msg 606 100 track-speed 3;
#X msg 913 103 track-speed 4;
#X obj 1054 150 r track-speed-4-button;
#X obj 747 147 r track-speed-3-button;
#X obj 439 139 r track-speed-2-button;
#X obj 19 160 button-event-listener;
#X obj 298 168 button-event-listener;
#X obj 606 175 button-event-listener;
#X obj 913 178 button-event-listener;
#X connect 0 0 6 0;
#X connect 0 0 8 0;
#X connect 0 0 9 0;
#X connect 0 0 10 0;
#X connect 2 0 14 1;
#X connect 3 0 15 1;
#X connect 4 0 16 1;
#X connect 5 0 17 1;
#X connect 6 0 14 0;
#X connect 7 0 14 2;
#X connect 8 0 15 0;
#X connect 9 0 16 0;
#X connect 10 0 17 0;
#X connect 11 0 17 2;
#X connect 12 0 16 2;
#X connect 13 0 15 2;
#X connect 14 0 1 0;
#X connect 15 0 1 0;
#X connect 16 0 1 0;
#X connect 17 0 1 0;
#X restore 295 455 pd track-speeds;
#X connect 2 0 8 0;
#X connect 3 0 4 0;
#X connect 4 0 9 0;
#X connect 5 0 21 0;
#X connect 6 0 21 1;
#X connect 7 0 21 2;
#X connect 8 0 20 0;
#X connect 8 1 5 0;
#X connect 8 1 12 0;
#X connect 8 1 15 0;
#X connect 8 1 17 0;
#X connect 8 1 27 0;
#X connect 8 1 19 0;
#X connect 8 1 29 0;
#X connect 10 0 22 1;
#X connect 11 0 22 2;
#X connect 12 0 22 0;
#X connect 13 0 23 1;
#X connect 14 0 24 1;
#X connect 15 0 23 0;
#X connect 16 0 23 2;
#X connect 17 0 24 0;
#X connect 18 0 24 2;
#X connect 19 0 1 0;
#X connect 20 0 0 0;
#X connect 20 1 3 0;
#X connect 21 0 1 0;
#X connect 22 0 1 0;
#X connect 23 0 1 0;
#X connect 24 0 1 0;
#X connect 25 0 26 1;
#X connect 26 0 1 0;
#X connect 27 0 26 0;
#X connect 28 0 26 2;
#X connect 29 0 1 0;
