#N canvas 0 22 1280 752 10;
#X obj 82 41 inlet reset-bang;
#X obj 359 45 inlet incoming-message;
#X obj 60 704 outlet reset-bang;
#X obj 332 704 outlet out-message;
#X msg 60 254 2nd-bank-enabled;
#X obj 83 75 t b b;
#X obj 111 101 s \$0-set-filter-message;
#X obj 83 135 s \$0-reset-bang;
#X obj 361 84 s \$0-incoming-messages;
#X obj 60 223 r \$0-set-filter-message;
#X obj 153 321 r \$0-incoming-messages;
#X obj 66 394 toggle-control-core;
#X obj 100 429 s \$0-out-message;
#X obj 331 676 r \$0-out-message;
#X obj 60 673 r \$0-reset-bang;
#X obj 318 222 r \$0-set-filter-message;
#X obj 405 277 r \$0-incoming-messages;
#X obj 318 385 s \$0-out-message;
#X msg 318 253 init-bang;
#X obj 318 350 bang-control-core;
#X obj 568 215 r \$0-set-filter-message;
#X obj 655 270 r \$0-incoming-messages;
#X obj 568 378 s \$0-out-message;
#X obj 568 343 bang-control-core;
#X obj 816 213 r \$0-set-filter-message;
#X obj 903 268 r \$0-incoming-messages;
#X obj 816 376 s \$0-out-message;
#X obj 816 341 bang-control-core;
#X msg 568 246 decrease-volume;
#X msg 816 244 increase-volume;
#X obj 1092 209 r \$0-set-filter-message;
#X obj 1179 264 r \$0-incoming-messages;
#X obj 1092 337 toggle-control-core;
#X obj 1092 372 s \$0-out-message;
#X msg 1092 240 mute-volume;
#X obj 66 459 list;
#X obj 66 491 unpack s f;
#X obj 123 526 s \$0-2nd-bank-enabled;
#N canvas 394 383 922 334 start-stop-events 0;
#X obj 123 117 r \$0-set-filter-message;
#X obj 123 266 s \$0-out-message;
#X obj 430 21 inlet incoming-messages;
#X msg 123 148 track-ctrl 1;
#X obj 123 188 event-filter-2;
#X obj 123 231 toggle-control-2-core;
#X obj 317 117 r \$0-set-filter-message;
#X obj 317 266 s \$0-out-message;
#X obj 317 231 toggle-control-2-core;
#X obj 487 114 r \$0-set-filter-message;
#X obj 487 263 s \$0-out-message;
#X obj 487 228 toggle-control-2-core;
#X obj 682 115 r \$0-set-filter-message;
#X obj 682 264 s \$0-out-message;
#X obj 682 229 toggle-control-2-core;
#X msg 317 148 track-ctrl 2;
#X msg 487 145 track-ctrl 3;
#X msg 682 146 track-ctrl 4;
#X obj 317 188 event-filter-2;
#X obj 487 185 event-filter-2;
#X obj 682 186 event-filter-2;
#X connect 0 0 3 0;
#X connect 2 0 4 1;
#X connect 2 0 18 1;
#X connect 2 0 19 1;
#X connect 2 0 20 1;
#X connect 3 0 4 0;
#X connect 4 0 5 0;
#X connect 4 1 5 1;
#X connect 5 0 1 0;
#X connect 6 0 15 0;
#X connect 8 0 7 0;
#X connect 9 0 16 0;
#X connect 11 0 10 0;
#X connect 12 0 17 0;
#X connect 14 0 13 0;
#X connect 15 0 18 0;
#X connect 16 0 19 0;
#X connect 17 0 20 0;
#X connect 18 0 8 0;
#X connect 18 1 8 1;
#X connect 19 0 11 0;
#X connect 19 1 11 1;
#X connect 20 0 14 0;
#X connect 20 1 14 1;
#X restore 656 569 pd start-stop-events;
#X obj 711 504 route-to-banks;
#X obj 793 464 r \$0-2nd-bank-enabled;
#X obj 66 351 event-filter;
#X obj 318 307 event-filter;
#X obj 568 300 event-filter;
#X obj 816 298 event-filter;
#X obj 1092 294 event-filter;
#X obj 714 435 r \$0-incoming-messages;
#X obj 1169 443 r \$0-set-filter-message;
#X obj 1169 592 s \$0-out-message;
#X obj 1169 514 event-filter-2;
#X obj 1424 444 r \$0-set-filter-message;
#X obj 1424 593 s \$0-out-message;
#X obj 1717 443 r \$0-set-filter-message;
#X obj 1717 592 s \$0-out-message;
#X obj 2030 450 r \$0-set-filter-message;
#X obj 2030 599 s \$0-out-message;
#X obj 1424 515 event-filter-2;
#X obj 1717 514 event-filter-2;
#X obj 2030 521 event-filter-2;
#X msg 1169 474 track-speed 1;
#X msg 1424 475 track-speed 2;
#X msg 1717 474 track-speed 3;
#X msg 2030 481 track-speed 4;
#X obj 1169 557 bang-control-2-core;
#X obj 1424 558 bang-control-2-core;
#X obj 1717 557 bang-control-2-core;
#X obj 2030 564 bang-control-2-core;
#N canvas 394 383 922 334 start-stop-events 0;
#X obj 123 117 r \$0-set-filter-message;
#X obj 123 266 s \$0-out-message;
#X obj 430 21 inlet incoming-messages;
#X msg 123 148 track-ctrl 1;
#X obj 123 231 toggle-control-2-core;
#X obj 317 117 r \$0-set-filter-message;
#X obj 317 266 s \$0-out-message;
#X obj 317 231 toggle-control-2-core;
#X obj 487 114 r \$0-set-filter-message;
#X obj 487 263 s \$0-out-message;
#X obj 487 228 toggle-control-2-core;
#X obj 682 115 r \$0-set-filter-message;
#X obj 682 264 s \$0-out-message;
#X obj 682 229 toggle-control-2-core;
#X msg 317 148 track-ctrl 2;
#X msg 487 145 track-ctrl 3;
#X msg 682 146 track-ctrl 4;
#X obj 123 188 event-filter-2;
#X obj 317 188 event-filter-2;
#X obj 487 185 event-filter-2;
#X obj 682 186 event-filter-2;
#X connect 0 0 3 0;
#X connect 2 0 17 1;
#X connect 2 0 18 1;
#X connect 2 0 19 1;
#X connect 2 0 20 1;
#X connect 3 0 17 0;
#X connect 4 0 1 0;
#X connect 5 0 14 0;
#X connect 7 0 6 0;
#X connect 8 0 15 0;
#X connect 10 0 9 0;
#X connect 11 0 16 0;
#X connect 13 0 12 0;
#X connect 14 0 18 0;
#X connect 15 0 19 0;
#X connect 16 0 20 0;
#X connect 17 0 4 0;
#X connect 17 1 4 1;
#X connect 18 0 7 0;
#X connect 18 1 7 1;
#X connect 19 0 10 0;
#X connect 19 1 10 1;
#X connect 20 0 13 0;
#X connect 20 1 13 1;
#X restore 1013 568 pd start-stop-events;
#X obj 1264 491 r \$0-incoming-messages;
#X obj 1525 485 r \$0-incoming-messages;
#X obj 1827 481 r \$0-incoming-messages;
#X obj 2131 490 r \$0-incoming-messages;
#X obj 60 292 t a a;
#X connect 0 0 5 0;
#X connect 1 0 8 0;
#X connect 4 0 72 0;
#X connect 5 0 7 0;
#X connect 5 1 6 0;
#X connect 9 0 4 0;
#X connect 10 0 41 1;
#X connect 11 0 12 0;
#X connect 11 0 35 0;
#X connect 13 0 3 0;
#X connect 14 0 2 0;
#X connect 15 0 18 0;
#X connect 16 0 42 1;
#X connect 18 0 42 0;
#X connect 19 0 17 0;
#X connect 20 0 28 0;
#X connect 21 0 43 1;
#X connect 23 0 22 0;
#X connect 24 0 29 0;
#X connect 25 0 44 1;
#X connect 27 0 26 0;
#X connect 28 0 43 0;
#X connect 29 0 44 0;
#X connect 30 0 34 0;
#X connect 31 0 45 1;
#X connect 32 0 33 0;
#X connect 34 0 45 0;
#X connect 35 0 36 0;
#X connect 36 1 37 0;
#X connect 39 0 38 0;
#X connect 39 1 67 0;
#X connect 40 0 39 1;
#X connect 41 0 11 0;
#X connect 41 1 11 1;
#X connect 42 0 19 0;
#X connect 42 1 19 1;
#X connect 43 0 23 0;
#X connect 43 1 23 1;
#X connect 44 0 27 0;
#X connect 44 1 27 1;
#X connect 45 0 32 0;
#X connect 45 1 32 1;
#X connect 46 0 39 0;
#X connect 47 0 59 0;
#X connect 49 0 63 0;
#X connect 49 1 63 1;
#X connect 50 0 60 0;
#X connect 52 0 61 0;
#X connect 54 0 62 0;
#X connect 56 0 64 0;
#X connect 56 1 64 1;
#X connect 57 0 65 0;
#X connect 57 1 65 1;
#X connect 58 0 66 0;
#X connect 58 1 66 1;
#X connect 59 0 49 0;
#X connect 60 0 56 0;
#X connect 61 0 57 0;
#X connect 62 0 58 0;
#X connect 63 0 48 0;
#X connect 64 0 51 0;
#X connect 65 0 53 0;
#X connect 66 0 55 0;
#X connect 68 0 49 1;
#X connect 69 0 56 1;
#X connect 70 0 57 1;
#X connect 71 0 58 1;
#X connect 72 0 41 1;
#X connect 72 1 41 0;
