#N canvas 10 158 840 455 10;
#X obj 172 303 tgl 15 0 empty empty empty 17 7 0 10 -262144 -1 -1 0
1;
#X obj 68 20 inlet;
#X text 107 20 input midi stream;
#X obj 168 211 select;
#X obj 168 240 bang;
#X obj 364 19 inlet;
#X text 410 18 output message;
#X obj 518 19 inlet;
#X text 568 19 config midi notes stream;
#X obj 455 155 float;
#X text 500 154 midi note;
#X obj 112 60 t f b;
#X obj 492 117 route symbol;
#X obj 168 267 t b b;
#X obj 180 453 outlet;
#X obj 180 369 pack s f;
#X msg 180 403 \$1 \$2;
#X obj 360 48 list;
#X obj 409 70 unpack s;
#X obj 238 311 list;
#X obj 238 338 unpack s;
#X connect 0 0 15 1;
#X connect 1 0 11 0;
#X connect 3 0 4 0;
#X connect 4 0 13 0;
#X connect 5 0 17 0;
#X connect 7 0 12 0;
#X connect 9 0 3 1;
#X connect 11 0 3 0;
#X connect 11 1 9 0;
#X connect 12 0 9 1;
#X connect 13 0 19 0;
#X connect 13 1 0 0;
#X connect 15 0 16 0;
#X connect 16 0 14 0;
#X connect 17 0 18 0;
#X connect 18 0 12 1;
#X connect 18 0 19 1;
#X connect 19 0 20 0;
#X connect 20 0 15 0;
