#N canvas 276 55 940 624 10;
#X text 209 41 input midi stream;
#X obj 194 317 select;
#X text 498 40 output message;
#X text 833 41 config midi notes stream;
#X obj 446 212 float;
#X text 491 211 midi note;
#X obj 196 157 t f b;
#X obj 483 174 route symbol;
#X obj 363 96 list;
#X obj 405 124 unpack s;
#X text 286 369 output bang;
#X obj 381 369 outlet output-message;
#X obj 162 370 outlet output-bang;
#X obj 63 42 inlet input-midi-stream;
#X obj 640 40 inlet config-midi-notes-stream;
#X obj 367 42 inlet output-message;
#X obj 560 129 list trim;
#X connect 1 0 12 0;
#X connect 4 0 1 1;
#X connect 6 0 1 0;
#X connect 6 1 4 0;
#X connect 7 0 4 1;
#X connect 8 0 9 0;
#X connect 8 0 11 0;
#X connect 9 0 7 1;
#X connect 13 0 6 0;
#X connect 14 0 16 0;
#X connect 15 0 8 0;
#X connect 16 0 7 0;
