#N canvas 484 296 758 438 10;
#X obj 61 33 inlet;
#X text 100 33 input midi stream;
#X obj 148 122 select;
#X obj 149 265 outlet;
#X obj 148 151 bang;
#X text 205 264 output bang;
#X obj 357 32 inlet;
#X text 403 31 output message;
#X obj 511 32 inlet;
#X text 561 32 config midi notes stream;
#X obj 364 65 tosymbol;
#X obj 153 210 symbol;
#X obj 153 238 fromsymbol;
#X obj 445 294 float;
#X text 490 293 midi note;
#X obj 105 73 t f b;
#X obj 514 163 route symbol;
#X obj 432 109 unpack s f;
#X obj 497 223 route;
#X connect 0 0 15 0;
#X connect 2 0 4 0;
#X connect 4 0 11 0;
#X connect 6 0 10 0;
#X connect 6 0 17 0;
#X connect 8 0 16 0;
#X connect 10 0 11 1;
#X connect 11 0 12 0;
#X connect 12 0 3 0;
#X connect 13 0 2 1;
#X connect 15 0 2 0;
#X connect 15 1 13 0;
#X connect 16 0 18 0;
#X connect 17 0 16 1;
#X connect 17 1 18 1;
#X connect 18 0 13 1;
