#N canvas 10 158 840 455 10;
#X text 107 20 input midi stream;
#X obj 155 130 select;
#X obj 364 19 inlet;
#X text 410 18 output message;
#X obj 518 19 inlet;
#X text 568 19 config midi notes stream;
#X obj 371 52 tosymbol;
#X obj 216 338 symbol;
#X obj 216 366 fromsymbol;
#X obj 444 128 float;
#X text 489 127 midi note;
#X obj 112 60 t f b;
#X obj 481 90 route symbol;
#X obj 166 485 outlet;
#X obj 166 401 pack s f;
#X msg 166 435 \$1 \$2;
#X obj 226 20 inlet raw-velocity;
#X obj 17 20 inlet raw-note;
#X obj 139 265 != 0;
#X obj 151 161 b;
#X obj 140 293 t b f;
#X obj 216 191 float;
#X connect 1 0 19 0;
#X connect 2 0 6 0;
#X connect 4 0 12 0;
#X connect 6 0 7 1;
#X connect 6 0 12 1;
#X connect 7 0 8 0;
#X connect 8 0 14 0;
#X connect 9 0 1 1;
#X connect 11 0 1 0;
#X connect 11 1 9 0;
#X connect 12 0 9 1;
#X connect 14 0 15 0;
#X connect 15 0 13 0;
#X connect 16 0 21 1;
#X connect 17 0 11 0;
#X connect 18 0 20 0;
#X connect 19 0 21 0;
#X connect 20 0 7 0;
#X connect 20 1 14 1;
#X connect 21 0 18 0;
