#N canvas 97 143 1043 576 10;
#X text 226 30 input midi stream;
#X obj 157 249 select;
#X text 511 26 output message;
#X text 821 23 config midi notes stream;
#X obj 568 237 float;
#X text 618 233 midi note;
#X obj 122 70 t f b;
#X obj 489 69 unpack s f;
#X obj 634 127 route symbol;
#X obj 616 190 route;
#X obj 149 383 outlet out-bang;
#X obj 443 378 outlet output-message;
#X obj 78 30 inlet input-midi-stream;
#X obj 374 29 inlet output-message;
#X obj 671 25 inlet config-midi-notes;
#X obj 659 72 list trim;
#X connect 1 0 10 0;
#X connect 4 0 1 1;
#X connect 6 0 1 0;
#X connect 6 1 4 0;
#X connect 7 0 8 1;
#X connect 7 1 9 1;
#X connect 8 0 9 0;
#X connect 9 0 4 1;
#X connect 12 0 6 0;
#X connect 13 0 7 0;
#X connect 13 0 11 0;
#X connect 14 0 15 0;
#X connect 15 0 8 0;
