#N canvas 105 33 840 455 10;
#X obj 68 20 inlet;
#X text 107 20 input midi stream;
#X obj 364 19 inlet;
#X text 410 18 output message;
#X obj 518 19 inlet;
#X text 568 19 config midi notes stream;
#X obj 180 453 outlet;
#X obj 193 214 midi-note-filter;
#X obj 178 351 toggle-control-core;
#X connect 0 0 7 0;
#X connect 2 0 7 1;
#X connect 4 0 7 2;
#X connect 7 0 8 0;
#X connect 7 1 8 1;
#X connect 8 0 6 0;
