#N canvas 187 168 758 438 10;
#X obj 61 33 inlet;
#X text 100 33 input midi stream;
#X obj 164 330 outlet;
#X text 220 329 output bang;
#X obj 357 32 inlet;
#X text 403 31 output message;
#X obj 511 32 inlet;
#X text 561 32 config midi notes stream;
#X obj 131 230 bang-control-2-core;
#X obj 168 145 midi-note-filter-2;
#X connect 0 0 9 0;
#X connect 4 0 9 1;
#X connect 6 0 9 2;
#X connect 8 0 2 0;
#X connect 9 0 8 0;
#X connect 9 1 8 1;
