#N canvas 349 159 1049 549 10;
#X obj 151 331 tgl 15 0 empty empty empty 17 7 0 10 -262144 -1 -1 0
1;
#X obj 68 20 inlet;
#X text 107 20 input midi stream;
#X obj 147 239 select;
#X obj 147 268 bang;
#X obj 364 19 inlet;
#X text 410 18 output message;
#X obj 661 46 inlet;
#X text 711 46 config midi notes stream;
#X obj 558 227 float;
#X text 608 223 midi note;
#X obj 112 60 t f b;
#X obj 147 295 t b b;
#X obj 159 505 outlet;
#X obj 479 59 unpack s f;
#X obj 624 117 route symbol;
#X obj 606 180 route;
#X obj 198 381 unpack s f;
#X obj 159 421 pack s f f;
#X msg 159 455 \$1 \$2 \$3;
#X obj 209 358 list;
#X connect 0 0 18 2;
#X connect 1 0 11 0;
#X connect 3 0 4 0;
#X connect 4 0 12 0;
#X connect 5 0 14 0;
#X connect 5 0 20 1;
#X connect 7 0 15 0;
#X connect 9 0 3 1;
#X connect 11 0 3 0;
#X connect 11 1 9 0;
#X connect 12 0 20 0;
#X connect 12 1 0 0;
#X connect 14 0 15 1;
#X connect 14 1 16 1;
#X connect 15 0 16 0;
#X connect 16 0 9 1;
#X connect 17 0 18 0;
#X connect 17 1 18 1;
#X connect 18 0 19 0;
#X connect 19 0 13 0;
#X connect 20 0 17 0;
