#N canvas 184 25 758 438 10;
#X obj 56 31 inlet;
#X text 100 33 input midi stream;
#X obj 357 32 inlet;
#X text 403 31 output message;
#X obj 511 32 inlet;
#X text 561 32 config midi notes stream;
#X obj 152 360 outlet;
#X text 208 359 output bang;
#X obj 151 277 bang-control-core;
#X obj 158 156 midi-note-filter;
#X connect 0 0 9 0;
#X connect 2 0 9 1;
#X connect 4 0 9 2;
#X connect 8 0 6 0;
#X connect 9 0 8 0;
#X connect 9 1 8 1;
