#N canvas 10 158 840 455 10;
#X obj 159 222 tgl 15 0 empty empty empty 17 7 0 10 -262144 -1 -1 0
1;
#X obj 68 20 inlet;
#X text 107 20 input midi stream;
#X obj 155 130 select;
#X obj 155 159 bang;
#X obj 364 19 inlet;
#X text 410 18 output message;
#X obj 518 19 inlet;
#X text 568 19 config midi notes stream;
#X obj 371 52 tosymbol;
#X obj 206 225 symbol;
#X obj 206 253 fromsymbol;
#X obj 444 128 float;
#X text 489 127 midi note;
#X obj 112 60 t f b;
#X obj 481 90 route symbol;
#X obj 155 186 t b b;
#X obj 167 372 outlet;
#X obj 167 288 pack s f;
#X msg 167 322 \$1 \$2;
#X connect 0 0 18 1;
#X connect 1 0 14 0;
#X connect 3 0 4 0;
#X connect 4 0 16 0;
#X connect 5 0 9 0;
#X connect 7 0 15 0;
#X connect 9 0 10 1;
#X connect 9 0 15 1;
#X connect 10 0 11 0;
#X connect 11 0 18 0;
#X connect 12 0 3 1;
#X connect 14 0 3 0;
#X connect 14 1 12 0;
#X connect 15 0 12 1;
#X connect 16 0 10 0;
#X connect 16 1 0 0;
#X connect 18 0 19 0;
#X connect 19 0 17 0;
