#N canvas 329 65 1049 549 10;
#X obj 68 20 inlet;
#X text 107 20 input midi stream;
#X obj 364 19 inlet;
#X text 410 18 output message;
#X obj 662 26 inlet;
#X text 712 26 config midi notes stream;
#X obj 159 505 outlet;
#X obj 149 359 toggle-control-2-core;
#X obj 195 147 midi-note-filter-2;
#X connect 0 0 8 0;
#X connect 2 0 8 1;
#X connect 4 0 8 2;
#X connect 7 0 6 0;
#X connect 8 0 7 0;
#X connect 8 1 7 1;
