#N canvas 246 99 1032 617 10;
#X obj 107 31 inlet;
#X obj 76 236 textfile;
#X msg 55 184 bang;
#X obj 55 156 until;
#X msg 115 163 rewind;
#X obj 106 130 t b b a;
#X text 149 30 init message with config file name;
#X msg 209 205 read \$1 cr;
#X obj 80 549 send;
#X obj 119 414 list;
#X obj 193 174 list;
#X obj 128 498 symbol;
#X obj 75 381 t b a;
#X obj 79 291 list;
#X obj 81 339 list split 1;
#X obj 171 279 print config-line;
#X obj 335 203 print using config file;
#X text 148 550 sending messages to global symbols;
#X obj 431 549 outlet done-message;
#X connect 0 0 5 0;
#X connect 1 0 13 0;
#X connect 1 0 15 0;
#X connect 1 1 3 1;
#X connect 1 1 18 0;
#X connect 2 0 1 0;
#X connect 3 0 2 0;
#X connect 4 0 1 0;
#X connect 5 0 3 0;
#X connect 5 1 4 0;
#X connect 5 2 10 0;
#X connect 7 0 1 0;
#X connect 9 0 8 0;
#X connect 10 0 7 0;
#X connect 10 0 16 0;
#X connect 11 0 8 1;
#X connect 12 0 9 0;
#X connect 12 1 11 0;
#X connect 13 0 14 0;
#X connect 14 0 12 0;
#X connect 14 1 9 1;
