#N canvas 24 68 838 461 10;
#X obj 64 44 inlet control-message;
#X obj 262 44 inlet 2nd-bank-enabled;
#X obj 72 209 spigot;
#X obj 203 208 spigot;
#X msg 244 153 1;
#X msg 289 152 0;
#X obj 243 132 b;
#X obj 289 131 b;
#X msg 346 153 1;
#X msg 387 152 0;
#X obj 345 132 b;
#X obj 387 131 b;
#X obj 263 80 select 0;
#X obj 72 279 outlet to-1st-bank;
#X obj 218 276 outlet to-2nd-bank;
#X connect 0 0 2 0;
#X connect 0 0 3 0;
#X connect 1 0 12 0;
#X connect 2 0 13 0;
#X connect 3 0 14 0;
#X connect 4 0 2 1;
#X connect 5 0 2 1;
#X connect 6 0 4 0;
#X connect 7 0 5 0;
#X connect 8 0 3 1;
#X connect 9 0 3 1;
#X connect 10 0 8 0;
#X connect 11 0 9 0;
#X connect 12 0 6 0;
#X connect 12 0 11 0;
#X connect 12 1 7 0;
#X connect 12 1 10 0;
