#N canvas 32 78 1200 670 10;
#X obj 131 459 catch~ voice;
#X obj 55 76 bng 30 250 50 0 empty empty init 17 7 0 10 -262144 -1
-1;
#N canvas 11 22 1280 752 players 0;
#X obj 134 120 simple-player-core;
#X obj 85 21 r \$0-init-bang;
#X obj 405 13 r \$0-set-player-numbers;
#X obj 767 40 r \$0-set-player-numbers;
#X msg 361 54 1;
#X msg 406 53 2;
#X msg 446 53 3;
#X msg 482 53 4;
#X msg 743 138 5;
#X msg 788 137 6;
#X msg 828 137 7;
#X msg 864 137 8;
#X obj 134 288 simple-player-core;
#X obj 134 457 simple-player-core;
#X obj 134 623 simple-player-core;
#X obj 393 120 simple-player-core;
#X obj 393 288 simple-player-core;
#X obj 393 457 simple-player-core;
#X obj 393 623 simple-player-core;
#X connect 1 0 0 0;
#X connect 1 0 12 0;
#X connect 1 0 13 0;
#X connect 1 0 14 0;
#X connect 1 0 15 0;
#X connect 1 0 16 0;
#X connect 1 0 17 0;
#X connect 1 0 18 0;
#X connect 2 0 4 0;
#X connect 2 0 5 0;
#X connect 2 0 6 0;
#X connect 2 0 7 0;
#X connect 3 0 8 0;
#X connect 3 0 9 0;
#X connect 3 0 10 0;
#X connect 3 0 11 0;
#X connect 4 0 0 1;
#X connect 5 0 12 1;
#X connect 6 0 13 1;
#X connect 7 0 14 1;
#X connect 8 0 15 1;
#X connect 9 0 16 1;
#X connect 10 0 17 1;
#X connect 11 0 18 1;
#X coords 0 -1 1 1 550 700 1 100 100;
#X restore 428 36 pd players;
#X obj 55 206 read-config-file;
#X msg 55 178 seq-accardeon-samples.config;
#X text 160 205 read sample filenames form config file;
#X obj 55 123 t b b;
#X obj 82 152 s \$0-set-player-numbers;
#X obj 55 242 s \$0-init-bang;
#X obj 127 512 dac~;
#X connect 0 0 9 0;
#X connect 0 0 9 1;
#X connect 1 0 6 0;
#X connect 3 0 8 0;
#X connect 4 0 3 0;
#X connect 6 0 4 0;
#X connect 6 1 7 0;
