#N canvas 216 174 1148 610 10;
#N canvas 99 123 1088 620 sample-player-core 0;
#X obj 54 189 soundfiler;
#X obj 50 31 inlet;
#X text 97 28 init bang;
#X obj 520 18 inlet;
#X text 564 1 start/stop;
#X text 567 19 0 - stopped;
#X text 567 39 1 - playing;
#X obj 59 130 pack s s;
#X msg 54 162 read -resize \$1 \$2;
#X obj 116 104 symbol array1-\$0;
#X obj 1026 331 table array1-\$0 10;
#X obj 681 83 inlet track-speed;
#X obj 397 214 float;
#X msg 361 171 1;
#X obj 73 54 t a b b;
#X obj 813 805 outlet track-duration;
#X obj 813 770 r \$0-track-duration;
#X obj 857 88 inlet track-delay;
#X obj 157 632 vline~;
#X obj 53 244 expr $f1 / 44.1;
#X text 176 272 duration in millis;
#X text 345 792 playing position;
#X obj 294 730 snapshot~;
#X obj 311 632 loadbang;
#X obj 310 700 metro 20;
#X obj 299 795 /;
#X obj 53 272 s \$0-track-duration;
#X obj 111 794 tabread4~ array1-\$0;
#X obj 111 823 outlet~ sound;
#X obj 298 825 outlet playing-position;
#X obj 496 47 route 0 1;
#X obj 551 78 s \$0-start;
#X obj 480 83 s \$0-stop;
#X obj 94 369 r \$0-start;
#X obj 85 218 s \$0-samples-count;
#X obj 314 763 r \$0-samples-count;
#X obj 213 311 r \$0-samples-count;
#X obj 234 342 r \$0-track-duration;
#X obj 260 384 /;
#X obj 425 320 t b b f;
#X obj 229 92 float;
#X text 266 92 current start/stop state;
#X msg 238 57 0;
#X text 270 55 init reset to 0 start/stop;
#X obj 223 25 r \$0-start-stop-bang;
#X obj 424 382 s \$0-start-stop-bang;
#N canvas 173 188 1031 597 vline-control 0;
#X obj 437 26 inlet samples-count;
#X obj 987 28 inlet track-delay;
#X text 685 28 after track speed;
#X obj 225 29 inlet start;
#X obj 324 30 inlet stop;
#X obj 348 451 outlet vline-ctrl-message;
#X obj 409 230 float;
#X obj 517 230 float;
#X obj 738 99 *;
#X obj 757 454 outlet start-stop-message;
#X obj 82 31 inlet init-bang;
#X msg 378 405 stop;
#X text 966 26 0..2;
#X obj 614 222 delay;
#X msg 621 188 stop;
#X obj 674 169 +;
#X obj 726 126 t b b f;
#X obj 597 55 t f f f f;
#X obj 331 75 t b b;
#X obj 242 92 t b b b b;
#X msg 398 323 0 \, \$1 \$2;
#X obj 397 289 pack f f;
#X obj 691 218 print delay-time;
#X obj 592 28 inlet duration;
#X obj 804 28 inlet original-duration;
#X obj 664 124 t b f;
#X connect 0 0 6 1;
#X connect 1 0 8 0;
#X connect 3 0 19 0;
#X connect 4 0 18 0;
#X connect 6 0 21 0;
#X connect 7 0 21 1;
#X connect 8 0 16 0;
#X connect 11 0 5 0;
#X connect 13 0 9 0;
#X connect 14 0 13 0;
#X connect 15 0 13 1;
#X connect 15 0 22 0;
#X connect 16 0 9 0;
#X connect 16 2 15 0;
#X connect 17 2 25 0;
#X connect 17 3 7 1;
#X connect 18 0 11 0;
#X connect 18 1 14 0;
#X connect 19 0 13 0;
#X connect 19 1 6 0;
#X connect 19 2 7 0;
#X connect 19 3 14 0;
#X connect 20 0 5 0;
#X connect 21 0 20 0;
#X connect 23 0 17 0;
#X connect 24 0 8 1;
#X connect 25 0 15 0;
#X connect 25 1 15 1;
#X restore 157 495 pd vline-control;
#X obj 121 81 s \$0-init-bang;
#X obj 77 447 r \$0-init-bang;
#X obj 182 416 r \$0-stop;
#X obj 258 542 s \$0-start-stop-bang;
#X msg 656 235 0;
#X obj 656 278 float;
#X obj 657 205 r \$0-init-bang;
#X obj 877 161 print sample-player-core-track-delay;
#X connect 0 0 19 0;
#X connect 0 0 34 0;
#X connect 1 0 14 0;
#X connect 3 0 30 0;
#X connect 3 0 40 1;
#X connect 7 0 8 0;
#X connect 8 0 0 0;
#X connect 9 0 7 1;
#X connect 11 0 12 0;
#X connect 12 0 39 0;
#X connect 13 0 12 0;
#X connect 14 0 7 0;
#X connect 14 1 9 0;
#X connect 14 2 13 0;
#X connect 14 2 42 0;
#X connect 14 2 47 0;
#X connect 16 0 15 0;
#X connect 17 0 52 0;
#X connect 17 0 54 0;
#X connect 18 0 22 0;
#X connect 18 0 27 0;
#X connect 19 0 26 0;
#X connect 22 0 25 0;
#X connect 23 0 24 0;
#X connect 24 0 22 0;
#X connect 25 0 29 0;
#X connect 27 0 28 0;
#X connect 30 0 32 0;
#X connect 30 1 31 0;
#X connect 33 0 46 1;
#X connect 35 0 25 1;
#X connect 36 0 46 3;
#X connect 37 0 38 0;
#X connect 37 0 46 5;
#X connect 38 0 46 4;
#X connect 39 0 45 0;
#X connect 39 1 38 0;
#X connect 39 2 38 1;
#X connect 40 0 30 0;
#X connect 42 0 40 1;
#X connect 44 0 40 0;
#X connect 46 0 18 0;
#X connect 46 1 50 0;
#X connect 48 0 46 0;
#X connect 49 0 46 2;
#X connect 51 0 52 0;
#X connect 52 0 46 6;
#X connect 53 0 51 0;
#X coords 0 620 1 619 250 60 0;
#X restore 119 130 pd sample-player-core;
#X obj 118 236 outlet~;
#X text 175 239 output sound;
#X obj 242 212 outlet;
#X text 295 210 playing position;
#X text 401 7 start/stop toggle;
#X text 121 4 init message with filename;
#X obj 561 30 inlet track-speed;
#X text 707 30 track speed;
#X obj 347 56 print start-stop;
#X obj 505 214 outlet track-duration;
#X obj 824 33 inlet track-delay;
#X obj 46 27 inlet init-message-with-filename;
#X obj 337 30 inlet start-stop;
#X connect 0 0 1 0;
#X connect 0 1 3 0;
#X connect 0 2 10 0;
#X connect 7 0 0 2;
#X connect 11 0 0 3;
#X connect 12 0 0 0;
#X connect 13 0 0 1;
#X connect 13 0 9 0;
