#N canvas 303 413 1117 701 10;
#N canvas 302 53 1088 620 sample-player-core 0;
#X obj 113 232 soundfiler;
#X obj 147 257 expr 44100 / $f1;
#X obj 148 316 phasor~;
#X obj 117 368 *~;
#X obj 50 31 inlet;
#X obj 52 102 tosymbol;
#X obj 119 467 outlet~;
#X obj 349 385 unsig~ 20;
#X obj 348 426 outlet;
#X text 394 424 playing position;
#X text 97 28 init bang;
#X obj 458 181 inlet;
#X text 502 164 start/stop;
#X text 505 182 0 - stopped;
#X text 505 202 1 - playing;
#X obj 162 290 *;
#X obj 350 239 t b f;
#X obj 59 130 pack s s;
#X msg 54 162 read -resize \$1 \$2;
#X obj 116 104 symbol array1-\$0;
#X obj 118 417 tabread4~ array1-\$0;
#X obj 549 252 table array1-\$0 10;
#X obj 74 65 t a b;
#X connect 0 0 1 0;
#X connect 0 0 3 0;
#X connect 1 0 15 0;
#X connect 2 0 3 1;
#X connect 2 0 7 0;
#X connect 3 0 20 0;
#X connect 4 0 22 0;
#X connect 5 0 17 0;
#X connect 7 0 8 0;
#X connect 11 0 16 0;
#X connect 15 0 2 0;
#X connect 16 0 15 0;
#X connect 16 1 15 1;
#X connect 17 0 18 0;
#X connect 18 0 0 0;
#X connect 19 0 17 1;
#X connect 20 0 6 0;
#X connect 22 0 5 0;
#X connect 22 1 19 0;
#X coords 0 620 1 619 250 60 0;
#X restore 109 120 pd sample-player-core;
#X obj 36 17 inlet;
#X obj 108 226 outlet~;
#X text 165 229 output sound;
#X obj 232 202 outlet;
#X text 285 200 playing position;
#X obj 325 33 inlet;
#X text 369 31 start/stop toggle;
#X text 78 17 init message with filename;
#X connect 0 0 2 0;
#X connect 0 1 4 0;
#X connect 1 0 0 0;
#X connect 6 0 0 1;
#X coords 0 701 1 700 250 60 0;
