#N canvas 769 283 786 391 10;
#X obj 191 50 openpanel;
#X msg 192 15 bang;
#X obj 156 291 output~;
#X obj 223 130 tgl 15 0 empty empty empty 17 7 0 10 -262144 -1 -1 0
1;
#X obj 296 45 hsl 128 15 0 2 0 0 empty empty track_speed -2 -8 0 10
-262144 -1 -1 5900 1;
#X floatatom 311 69 5 0 0 0 - - -;
#X obj 371 103 hsl 128 15 0 3 0 0 empty empty track_delay -2 -8 0 10
-262144 -1 -1 800 1;
#X floatatom 380 133 5 0 0 0 - - -;
#X obj 329 251 hsl 128 15 0 1 0 0 empty empty playing_position -2 -8
0 10 -262144 -1 -1 809 1;
#X floatatom 388 213 5 0 0 0 track_duration - -;
#X obj 172 183 sample-player-vline;
#X connect 0 0 10 0;
#X connect 1 0 0 0;
#X connect 3 0 10 1;
#X connect 4 0 5 0;
#X connect 4 0 10 2;
#X connect 6 0 7 0;
#X connect 6 0 10 3;
#X connect 10 0 2 0;
#X connect 10 1 8 0;
#X connect 10 2 9 0;
