#N canvas 283 291 1117 701 10;
#N canvas 302 53 1088 620 sample-player-core 1;
#X obj 113 232 soundfiler;
#X obj 147 257 expr 44100 / $f1;
#X obj 164 414 phasor~;
#X obj 118 445 *~;
#X obj 50 31 inlet;
#X obj 119 522 outlet~;
#X obj 344 525 outlet;
#X text 391 523 playing position;
#X text 97 28 init bang;
#X obj 438 64 inlet;
#X text 482 47 start/stop;
#X text 485 65 0 - stopped;
#X text 485 85 1 - playing;
#X obj 168 317 *;
#X obj 189 293 t b f;
#X obj 59 130 pack s s;
#X msg 54 162 read -resize \$1 \$2;
#X obj 116 104 symbol array1-\$0;
#X obj 118 472 tabread4~ array1-\$0;
#X obj 549 252 table array1-\$0 10;
#X obj 681 83 inlet track-speed;
#X obj 170 377 *;
#X obj 212 348 t b f;
#X obj 361 248 float;
#X msg 359 205 1;
#X obj 342 493 snapshot~;
#X obj 359 395 loadbang;
#X obj 358 463 metro 20;
#X obj 74 65 t a b b;
#X connect 0 0 1 0;
#X connect 0 0 3 0;
#X connect 1 0 13 0;
#X connect 2 0 3 1;
#X connect 2 0 25 0;
#X connect 3 0 18 0;
#X connect 4 0 28 0;
#X connect 9 0 14 0;
#X connect 13 0 21 0;
#X connect 14 0 13 0;
#X connect 14 1 13 1;
#X connect 15 0 16 0;
#X connect 16 0 0 0;
#X connect 17 0 15 1;
#X connect 18 0 5 0;
#X connect 20 0 23 0;
#X connect 21 0 2 0;
#X connect 22 0 21 0;
#X connect 22 1 21 1;
#X connect 23 0 22 0;
#X connect 24 0 23 0;
#X connect 25 0 6 0;
#X connect 26 0 27 0;
#X connect 27 0 25 0;
#X connect 28 0 15 0;
#X connect 28 1 17 0;
#X connect 28 2 24 0;
#X coords 0 620 1 619 250 60 0;
#X restore 109 120 pd sample-player-core;
#X obj 36 17 inlet;
#X obj 108 226 outlet~;
#X text 165 229 output sound;
#X obj 232 202 outlet;
#X text 285 200 playing position;
#X obj 327 20 inlet;
#X text 371 18 start/stop toggle;
#X text 109 15 init message with filename;
#X obj 570 19 inlet track-speed;
#X text 697 20 track speed;
#X obj 337 46 print start-stop;
#X connect 0 0 2 0;
#X connect 0 1 4 0;
#X connect 1 0 0 0;
#X connect 6 0 0 1;
#X connect 6 0 11 0;
#X connect 9 0 0 2;
#X coords 0 701 1 700 250 60 0;
