#N canvas 4 63 1170 646 10;
#X obj 144 126 tgl 30 0 empty \$0-status-0 empty 17 7 0 10 -262144
-1 -1 0 1;
#X obj 192 127 tgl 30 0 empty \$0-status-1 empty 17 7 0 10 -262144
-1 -1 0 1;
#X obj 241 126 tgl 30 0 empty \$0-status-2 empty 17 7 0 10 -262144
-1 -1 0 1;
#X obj 290 126 tgl 30 0 empty \$0-status-3 empty 17 7 0 10 -262144
-1 -1 0 1;
#X obj 336 127 tgl 30 0 empty \$0-status-4 empty 17 7 0 10 -262144
-1 -1 0 1;
#X obj 380 126 tgl 30 0 empty \$0-status-5 empty 17 7 0 10 -262144
-1 -1 0 1;
#X obj 84 -133 inlet init-bang;
#X obj 255 -132 inlet start-stop;
#X obj 380 -35 r ctrl-bus;
#X obj 378 -6 route step;
#X obj 84 -104 t b b;
#X obj 111 -73 s \$0-set-settings;
#X obj 84 -48 s \$0-init-bang;
#X obj 255 -97 s \$0-start-stop;
#X obj 67 415 outlet start-stop;
#X obj 67 387 r \$0-start-stop-out-msg;
#X obj 378 25 s \$0-step;
#X obj 294 420 outlet speed;
#X obj 475 420 outlet volume-level;
#X obj 294 394 r \$0-speed-out-msg;
#X obj 475 392 r \$0-volume-level-out-msg;
#X obj 2030 -66 r \$0-set-settings;
#X obj 2006 -98 r \$0-init-bang;
#X msg 2030 -40 5;
#X obj 2079 13 r \$0-start-stop;
#X obj 2152 180 s \$0-status-5;
#X obj 2005 260 s \$0-start-stop-out-msg;
#X obj 2055 -12 r \$0-step;
#X obj 2127 97 r \$0-increase-volume;
#X obj 2152 120 r \$0-decrease-volume;
#X obj 2054 235 s \$0-speed-out-msg;
#X obj 2103 209 s \$0-volume-level-out-msg;
#X obj 1727 -80 r \$0-set-settings;
#X obj 1703 -112 r \$0-init-bang;
#X obj 1776 -1 r \$0-start-stop;
#X obj 1703 259 s \$0-start-stop-out-msg;
#X obj 1752 -26 r \$0-step;
#X obj 1834 91 r \$0-increase-volume;
#X obj 1850 126 r \$0-decrease-volume;
#X obj 1752 234 s \$0-speed-out-msg;
#X obj 1801 208 s \$0-volume-level-out-msg;
#X obj 1435 -75 r \$0-set-settings;
#X obj 1411 -107 r \$0-init-bang;
#X obj 1484 4 r \$0-start-stop;
#X obj 1413 260 s \$0-start-stop-out-msg;
#X obj 1460 -21 r \$0-step;
#X obj 1535 85 r \$0-increase-volume;
#X obj 1560 114 r \$0-decrease-volume;
#X obj 1462 235 s \$0-speed-out-msg;
#X obj 1511 209 s \$0-volume-level-out-msg;
#X obj 1135 -58 r \$0-set-settings;
#X obj 1111 -90 r \$0-init-bang;
#X obj 1184 21 r \$0-start-stop;
#X obj 1111 259 s \$0-start-stop-out-msg;
#X obj 1160 -4 r \$0-step;
#X obj 1233 103 r \$0-increase-volume;
#X obj 1258 126 r \$0-decrease-volume;
#X obj 1160 234 s \$0-speed-out-msg;
#X obj 1209 208 s \$0-volume-level-out-msg;
#X obj 836 -50 r \$0-set-settings;
#X obj 812 -82 r \$0-init-bang;
#X obj 885 29 r \$0-start-stop;
#X obj 813 261 s \$0-start-stop-out-msg;
#X obj 861 4 r \$0-step;
#X obj 935 105 r \$0-increase-volume;
#X obj 960 128 r \$0-decrease-volume;
#X obj 862 236 s \$0-speed-out-msg;
#X obj 911 210 s \$0-volume-level-out-msg;
#X obj 535 -44 r \$0-set-settings;
#X obj 511 -76 r \$0-init-bang;
#X obj 584 35 r \$0-start-stop;
#X obj 511 260 s \$0-start-stop-out-msg;
#X obj 560 10 r \$0-step;
#X obj 633 104 r \$0-increase-volume;
#X obj 658 127 r \$0-decrease-volume;
#X obj 560 235 s \$0-speed-out-msg;
#X obj 609 209 s \$0-volume-level-out-msg;
#X msg 535 -18 0;
#X obj 658 180 s \$0-status-0;
#X msg 836 -24 1;
#X obj 960 181 s \$0-status-1;
#X msg 1134 -31 2;
#X obj 1258 179 s \$0-status-2;
#X msg 1435 -49 3;
#X obj 1560 180 s \$0-status-3;
#X msg 1727 -54 4;
#X obj 1850 179 s \$0-status-4;
#X floatatom 144 170 5 0 0 0 - #0-speed-status-0 -;
#X text 103 170 speed;
#X floatatom 142 200 5 0 0 0 - #0-volume-level-status-0 -;
#X text 101 200 volume;
#X floatatom 192 170 5 0 0 0 - #0-speed-status-1 -;
#X floatatom 190 200 5 0 0 0 - #0-volume-level-status-1 -;
#X floatatom 243 168 5 0 0 0 - #0-speed-status-2 -;
#X floatatom 241 198 5 0 0 0 - #0-volume-level-status-2 -;
#X floatatom 287 167 5 0 0 0 - #0-speed-status-3 -;
#X floatatom 285 197 5 0 0 0 - #0-volume-level-status-3 -;
#X floatatom 337 165 5 0 0 0 - #0-speed-status-4 -;
#X floatatom 335 195 5 0 0 0 - #0-volume-level-status-4 -;
#X floatatom 380 166 5 0 0 0 - #0-speed-status-5 -;
#X floatatom 378 196 5 0 0 0 - #0-volume-level-status-5 -;
#N canvas 189 243 450 300 speed-statuses-controller 0;
#X obj 80 26 r \$0-step;
#X obj 128 96 float;
#X obj 160 130 pack f f;
#X obj 192 69 t b f;
#X obj 160 186 route 0 1 2 3 4 5;
#X obj 184 25 r \$0-speed-out-msg;
#X obj 242 232 s \$0-speed-status-5;
#X obj 226 254 s \$0-speed-status-4;
#X obj 209 273 s \$0-speed-status-3;
#X obj 193 296 s \$0-speed-status-2;
#X obj 176 317 s \$0-speed-status-1;
#X obj 160 339 s \$0-speed-status-0;
#X connect 0 0 1 1;
#X connect 1 0 2 0;
#X connect 2 0 4 0;
#X connect 3 0 1 0;
#X connect 3 1 2 1;
#X connect 4 0 11 0;
#X connect 4 1 10 0;
#X connect 4 2 9 0;
#X connect 4 3 8 0;
#X connect 4 4 7 0;
#X connect 4 5 6 0;
#X connect 5 0 3 0;
#X restore 102 259 pd speed-statuses-controller;
#N canvas 260 284 683 365 volume-levels-controller 0;
#X obj 155 48 r \$0-step;
#X obj 259 47 r \$0-volume-level-out-msg;
#X obj 203 118 float;
#X obj 235 361 s \$0-volume-level-status-0;
#X obj 235 152 pack f f;
#X obj 267 91 t b f;
#X obj 235 208 route 0 1 2 3 4 5;
#X obj 317 254 s \$0-volume-level-status-5;
#X obj 301 274 s \$0-volume-level-status-4;
#X obj 284 295 s \$0-volume-level-status-3;
#X obj 268 318 s \$0-volume-level-status-2;
#X obj 251 339 s \$0-volume-level-status-1;
#X connect 0 0 2 1;
#X connect 1 0 5 0;
#X connect 2 0 4 0;
#X connect 4 0 6 0;
#X connect 5 0 2 0;
#X connect 5 1 4 1;
#X connect 6 0 3 0;
#X connect 6 1 11 0;
#X connect 6 2 10 0;
#X connect 6 3 9 0;
#X connect 6 4 8 0;
#X connect 6 5 7 0;
#X restore 102 291 pd volume-levels-controller;
#X obj 749 -133 inlet increase-volume;
#X obj 961 -129 inlet decrease-volume;
#X obj 960 -100 s \$0-decrease-volume;
#X obj 750 -106 s \$0-increase-volume;
#X obj 813 155 seq-player-sequencer-step;
#X obj 447 -131 inlet decrease-speed;
#X obj 594 -129 inlet increase-speed;
#X obj 594 -98 s \$0-increase-speed;
#X obj 447 -100 s \$0-decrease-speed;
#X obj 511 154 seq-player-sequencer-step;
#X obj 2005 154 seq-player-sequencer-step;
#X obj 1703 153 seq-player-sequencer-step;
#X obj 1413 154 seq-player-sequencer-step;
#X obj 1111 153 seq-player-sequencer-step;
#X obj 1209 48 r \$0-decrease-speed;
#X obj 905 49 r \$0-decrease-speed;
#X obj 601 55 r \$0-decrease-speed;
#X obj 917 75 r \$0-increase-speed;
#X obj 1221 74 r \$0-increase-speed;
#X obj 612 81 r \$0-increase-speed;
#X obj 1504 35 r \$0-decrease-speed;
#X obj 1516 61 r \$0-increase-speed;
#X obj 1804 35 r \$0-decrease-speed;
#X obj 1816 61 r \$0-increase-speed;
#X obj 2099 44 r \$0-decrease-speed;
#X obj 2111 70 r \$0-increase-speed;
#X connect 6 0 10 0;
#X connect 7 0 13 0;
#X connect 8 0 9 0;
#X connect 9 0 16 0;
#X connect 10 0 12 0;
#X connect 10 1 11 0;
#X connect 15 0 14 0;
#X connect 19 0 17 0;
#X connect 20 0 18 0;
#X connect 21 0 23 0;
#X connect 22 0 113 0;
#X connect 23 0 113 1;
#X connect 24 0 113 3;
#X connect 27 0 113 2;
#X connect 28 0 113 6;
#X connect 29 0 113 7;
#X connect 32 0 85 0;
#X connect 33 0 114 0;
#X connect 34 0 114 3;
#X connect 36 0 114 2;
#X connect 37 0 114 6;
#X connect 38 0 114 7;
#X connect 41 0 83 0;
#X connect 42 0 115 0;
#X connect 43 0 115 3;
#X connect 45 0 115 2;
#X connect 46 0 115 6;
#X connect 47 0 115 7;
#X connect 50 0 81 0;
#X connect 51 0 116 0;
#X connect 52 0 116 3;
#X connect 54 0 116 2;
#X connect 55 0 116 6;
#X connect 56 0 116 7;
#X connect 59 0 79 0;
#X connect 60 0 107 0;
#X connect 61 0 107 3;
#X connect 63 0 107 2;
#X connect 64 0 107 6;
#X connect 65 0 107 7;
#X connect 68 0 77 0;
#X connect 69 0 112 0;
#X connect 70 0 112 3;
#X connect 72 0 112 2;
#X connect 73 0 112 6;
#X connect 74 0 112 7;
#X connect 77 0 112 1;
#X connect 79 0 107 1;
#X connect 81 0 116 1;
#X connect 83 0 115 1;
#X connect 85 0 114 1;
#X connect 103 0 106 0;
#X connect 104 0 105 0;
#X connect 107 0 62 0;
#X connect 107 1 66 0;
#X connect 107 2 67 0;
#X connect 107 3 80 0;
#X connect 108 0 111 0;
#X connect 109 0 110 0;
#X connect 112 0 71 0;
#X connect 112 1 75 0;
#X connect 112 2 76 0;
#X connect 112 3 78 0;
#X connect 113 0 26 0;
#X connect 113 1 30 0;
#X connect 113 2 31 0;
#X connect 113 3 25 0;
#X connect 114 0 35 0;
#X connect 114 1 39 0;
#X connect 114 2 40 0;
#X connect 114 3 86 0;
#X connect 115 0 44 0;
#X connect 115 1 48 0;
#X connect 115 2 49 0;
#X connect 115 3 84 0;
#X connect 116 0 53 0;
#X connect 116 1 57 0;
#X connect 116 2 58 0;
#X connect 116 3 82 0;
#X connect 117 0 116 4;
#X connect 118 0 107 4;
#X connect 119 0 112 4;
#X connect 120 0 107 5;
#X connect 121 0 116 5;
#X connect 122 0 112 5;
#X connect 123 0 115 4;
#X connect 124 0 115 5;
#X connect 125 0 114 4;
#X connect 126 0 114 5;
#X connect 127 0 113 4;
#X connect 128 0 113 5;
#X coords 0 -1 1 1 320 130 1 100 100;
