#N canvas 241 22 1280 752 10;
#N canvas 222 210 815 481 voice-output 0;
#X obj 222 -21 catch~ voice;
#X obj 101 220 output~;
#X msg 350 11 exponential 8 50 175;
#X obj 358 69 fdn~ 64 40000;
#X msg 322 -45 linear 8 75 100;
#N canvas 318 282 761 419 post-effects 0;
#X obj 85 4 inlet~ plain;
#X obj 125 202 spigot~;
#X obj 239 201 spigot~;
#X obj 125 117 tgl 30 0 empty empty plain 34 7 0 14 -262144 -1 -1 0
1;
#X obj 216 117 tgl 30 0 empty empty fdn 34 7 0 14 -262144 -1 -1 0 1
;
#X obj 209 3 inlet~ reverb-l;
#X obj 344 6 inlet~ reverb-r;
#X obj 320 201 spigot~;
#X obj 320 354 outlet~ out-r;
#X obj 165 354 outlet~ out-l;
#X connect 0 0 1 0;
#X connect 1 1 9 0;
#X connect 1 1 8 0;
#X connect 2 1 9 0;
#X connect 3 0 1 1;
#X connect 4 0 2 1;
#X connect 4 0 7 1;
#X connect 5 0 2 0;
#X connect 6 0 7 0;
#X connect 7 1 8 0;
#X coords 0 -1 1 1 200 60 1 100 100;
#X restore 101 139 pd post-effects;
#X msg 367 32 exponential 2 50 175;
#X msg 486 59 reset;
#X msg 340 -15 linear 2 20 50;
#X msg 509 96 print;
#X obj 315 136 bng 15 250 50 0 empty empty linear_2 17 7 0 10 -262144
-1 -1;
#X obj 315 159 bng 15 250 50 0 empty empty exponentional_2 17 7 0 10
-262144 -1 -1;
#X obj 315 179 bng 15 250 50 0 empty empty reset 17 7 0 10 -262144
-1 -1;
#X connect 0 0 5 0;
#X connect 0 0 3 0;
#X connect 2 0 3 0;
#X connect 3 0 5 1;
#X connect 3 1 5 2;
#X connect 4 0 3 0;
#X connect 5 0 1 0;
#X connect 5 1 1 1;
#X connect 6 0 3 0;
#X connect 7 0 3 0;
#X connect 8 0 3 0;
#X connect 9 0 3 0;
#X connect 10 0 8 0;
#X connect 11 0 6 0;
#X connect 12 0 7 0;
#X coords 0 -1 1 1 350 160 1 100 100;
#X restore 18 25 pd voice-output;
#X obj 18 206 bng 30 250 50 0 empty empty init 17 7 0 10 -262144 -1
-1;
#X obj 18 241 io-seq-midi-controller;
#X obj 279 574 noteout;
#X msg 278 536 48 100;
#X msg 246 489 69 100;
#X text 299 488 start-stop;
#X text 330 534 decrease-volume;
#X text 360 508 2nd bank;
#X msg 308 510 47 100;
#X msg 200 460 60 100;
#X text 253 459 select track 1;
#X text 215 435 select track 4;
#X msg 162 436 67 100;
#N canvas 178 151 846 490 seq-machine 0;
#X obj 19 27 inlet init-bang;
#X obj 111 241 metro;
#X obj 111 217 tgl 15 0 empty empty empty 17 7 0 10 -262144 -1 -1 0
1;
#X floatatom 154 156 5 0 0 0 - - -;
#X obj 154 211 * 1000;
#X obj 110 282 float;
#X obj 176 281 + 1;
#X obj 94 383 bng 15 250 50 0 empty empty empty 17 7 0 10 -262144 -1
-1;
#X obj 126 382 bng 15 250 50 0 empty empty empty 17 7 0 10 -262144
-1 -1;
#X obj 155 383 bng 15 250 50 0 empty empty empty 17 7 0 10 -262144
-1 -1;
#X obj 182 383 bng 15 250 50 0 empty empty empty 17 7 0 10 -262144
-1 -1;
#X obj 213 383 bng 15 250 50 0 empty empty empty 17 7 0 10 -262144
-1 -1;
#X obj 154 183 / 6;
#X obj 253 383 bng 15 250 50 0 empty empty empty 17 7 0 10 -262144
-1 -1;
#X obj 109 308 % 6;
#X obj 30 492 s ctrl-bus;
#X msg 234 64 bang;
#X obj 49 364 t b f;
#X obj 39 427 list;
#X msg 20 391 step;
#X obj 33 451 list trim;
#X obj 108 343 select 0 1 2 3 4 5;
#X msg 187 124 30;
#X msg 277 52 bang;
#X obj 270 213 s \$0-set-ui-params;
#X obj 230 112 s \$0-global-init-bang;
#X obj 367 135 r \$0-global-init-bang;
#X obj 486 208 s \$0-set-settings;
#X obj 280 23 inlet loop-length;
#X obj 145 28 inlet start-stop;
#X obj 369 173 t b b b b;
#X obj 429 474 outlet out-init-bang;
#X connect 0 0 16 0;
#X connect 1 0 5 0;
#X connect 2 0 1 0;
#X connect 3 0 12 0;
#X connect 4 0 1 1;
#X connect 5 0 6 0;
#X connect 5 0 14 0;
#X connect 6 0 5 1;
#X connect 12 0 4 0;
#X connect 14 0 17 0;
#X connect 14 0 21 0;
#X connect 16 0 22 0;
#X connect 16 0 25 0;
#X connect 17 0 19 0;
#X connect 17 1 18 1;
#X connect 18 0 20 0;
#X connect 19 0 18 0;
#X connect 20 0 15 0;
#X connect 21 0 7 0;
#X connect 21 1 8 0;
#X connect 21 2 9 0;
#X connect 21 3 10 0;
#X connect 21 4 11 0;
#X connect 21 5 13 0;
#X connect 22 0 3 0;
#X connect 23 0 25 0;
#X connect 26 0 30 0;
#X connect 28 0 3 0;
#X connect 29 0 2 0;
#X connect 30 0 24 0;
#X connect 30 1 31 0;
#X connect 30 3 27 0;
#X restore 16 353 pd seq-machine;
#X obj 56 311 bng 30 250 50 0 empty empty start-stop 17 7 0 10 -262144
-1 -1;
#X obj 16 411 read-config-file;
#X msg 16 383 seq-accardeon-samples.config;
#X text 121 410 read sample filenames form config file;
#X obj 16 444 s \$0-init-bang;
#N canvas 0 22 1280 752 player-1 0;
#N canvas 332 191 865 479 player 0;
#X obj 117 130 hsl 128 15 0 1 0 0 empty empty playing_position -2 -8
0 10 -262144 -1 -1 0 1;
#X floatatom 609 255 5 0 0 0 track_duration - -;
#X obj 384 311 throw~ voice;
#X obj 271 55 inlet init-bang;
#X obj 419 56 inlet start-stop;
#X obj 393 225 seq-sample-player;
#X obj 561 53 inlet track-speed;
#X floatatom 144 160 5 0 0 0 speed - -;
#X floatatom 146 181 5 0 0 0 volume - -;
#X obj 712 54 inlet volume-level;
#X connect 3 0 5 0;
#X connect 4 0 5 1;
#X connect 5 0 2 0;
#X connect 5 1 0 0;
#X connect 5 2 1 0;
#X connect 6 0 5 2;
#X connect 6 0 7 0;
#X connect 9 0 5 3;
#X connect 9 0 8 0;
#X coords 0 -1 1 1 160 100 1 100 100;
#X restore 110 161 pd player;
#X obj 393 99 seq-player-controller;
#X obj 393 68 r \$0-init-bang;
#X obj 271 132 seq-player-sequencer;
#X obj 271 101 r \$0-init-bang;
#X obj 515 -18 r \$0-set-settings;
#X floatatom 202 137 5 0 0 0 track-no - -;
#X obj 110 -52 r \$0-init-bang;
#X obj 109 24 file-name-selector;
#X obj 214 -6 r config-sample-filename;
#X msg 516 70 1;
#X connect 1 0 3 1;
#X connect 1 1 3 2;
#X connect 1 2 3 3;
#X connect 1 3 3 4;
#X connect 1 4 3 5;
#X connect 2 0 1 0;
#X connect 3 0 0 1;
#X connect 3 1 0 2;
#X connect 3 2 0 3;
#X connect 4 0 3 0;
#X connect 5 0 10 0;
#X connect 7 0 8 0;
#X connect 8 0 0 0;
#X connect 9 0 8 2;
#X connect 10 0 1 1;
#X connect 10 0 6 0;
#X connect 10 0 8 1;
#X coords 0 -1 1 1 500 170 1 100 100;
#X restore 490 26 pd player-1;
#X obj 206 265 r \$0-init-bang;
#N canvas 0 22 1280 752 player-2 0;
#N canvas 332 191 865 479 player 0;
#X obj 117 130 hsl 128 15 0 1 0 0 empty empty playing_position -2 -8
0 10 -262144 -1 -1 0 1;
#X floatatom 609 255 5 0 0 0 track_duration - -;
#X obj 384 311 throw~ voice;
#X obj 271 55 inlet init-bang;
#X obj 419 56 inlet start-stop;
#X obj 393 225 seq-sample-player;
#X obj 561 53 inlet track-speed;
#X floatatom 144 160 5 0 0 0 speed - -;
#X floatatom 146 181 5 0 0 0 volume - -;
#X obj 712 54 inlet volume-level;
#X connect 3 0 5 0;
#X connect 4 0 5 1;
#X connect 5 0 2 0;
#X connect 5 1 0 0;
#X connect 5 2 1 0;
#X connect 6 0 5 2;
#X connect 6 0 7 0;
#X connect 9 0 5 3;
#X connect 9 0 8 0;
#X coords 0 -1 1 1 160 100 1 100 100;
#X restore 110 161 pd player;
#X obj 393 99 seq-player-controller;
#X obj 393 68 r \$0-init-bang;
#X obj 271 132 seq-player-sequencer;
#X obj 271 101 r \$0-init-bang;
#X obj 515 -18 r \$0-set-settings;
#X floatatom 202 137 5 0 0 0 track-no - -;
#X obj 110 -52 r \$0-init-bang;
#X obj 109 24 file-name-selector;
#X obj 214 -6 r config-sample-filename;
#X msg 516 70 2;
#X connect 1 0 3 1;
#X connect 1 1 3 2;
#X connect 1 2 3 3;
#X connect 1 3 3 4;
#X connect 1 4 3 5;
#X connect 2 0 1 0;
#X connect 3 0 0 1;
#X connect 3 1 0 2;
#X connect 3 2 0 3;
#X connect 4 0 3 0;
#X connect 5 0 10 0;
#X connect 7 0 8 0;
#X connect 8 0 0 0;
#X connect 9 0 8 2;
#X connect 10 0 1 1;
#X connect 10 0 6 0;
#X connect 10 0 8 1;
#X coords 0 -1 1 1 500 170 1 100 100;
#X restore 490 203 pd player-2;
#N canvas 0 22 1280 752 player-3 0;
#N canvas 332 191 865 479 player 0;
#X obj 117 130 hsl 128 15 0 1 0 0 empty empty playing_position -2 -8
0 10 -262144 -1 -1 0 1;
#X floatatom 609 255 5 0 0 0 track_duration - -;
#X obj 384 311 throw~ voice;
#X obj 271 55 inlet init-bang;
#X obj 419 56 inlet start-stop;
#X obj 393 225 seq-sample-player;
#X obj 561 53 inlet track-speed;
#X floatatom 144 160 5 0 0 0 speed - -;
#X floatatom 146 181 5 0 0 0 volume - -;
#X obj 712 54 inlet volume-level;
#X connect 3 0 5 0;
#X connect 4 0 5 1;
#X connect 5 0 2 0;
#X connect 5 1 0 0;
#X connect 5 2 1 0;
#X connect 6 0 5 2;
#X connect 6 0 7 0;
#X connect 9 0 5 3;
#X connect 9 0 8 0;
#X coords 0 -1 1 1 160 100 1 100 100;
#X restore 110 161 pd player;
#X obj 393 99 seq-player-controller;
#X obj 393 68 r \$0-init-bang;
#X obj 271 132 seq-player-sequencer;
#X obj 271 101 r \$0-init-bang;
#X obj 515 -18 r \$0-set-settings;
#X floatatom 202 137 5 0 0 0 track-no - -;
#X obj 110 -52 r \$0-init-bang;
#X obj 109 24 file-name-selector;
#X obj 214 -6 r config-sample-filename;
#X msg 516 70 3;
#X connect 1 0 3 1;
#X connect 1 1 3 2;
#X connect 1 2 3 3;
#X connect 1 3 3 4;
#X connect 1 4 3 5;
#X connect 2 0 1 0;
#X connect 3 0 0 1;
#X connect 3 1 0 2;
#X connect 3 2 0 3;
#X connect 4 0 3 0;
#X connect 5 0 10 0;
#X connect 7 0 8 0;
#X connect 8 0 0 0;
#X connect 9 0 8 2;
#X connect 10 0 1 1;
#X connect 10 0 6 0;
#X connect 10 0 8 1;
#X coords 0 -1 1 1 500 170 1 100 100;
#X restore 490 381 pd player-3;
#N canvas 0 22 1280 752 player-4 0;
#N canvas 332 191 865 479 player 0;
#X obj 117 130 hsl 128 15 0 1 0 0 empty empty playing_position -2 -8
0 10 -262144 -1 -1 0 1;
#X floatatom 609 255 5 0 0 0 track_duration - -;
#X obj 384 311 throw~ voice;
#X obj 271 55 inlet init-bang;
#X obj 419 56 inlet start-stop;
#X obj 393 225 seq-sample-player;
#X obj 561 53 inlet track-speed;
#X floatatom 144 160 5 0 0 0 speed - -;
#X floatatom 146 181 5 0 0 0 volume - -;
#X obj 712 54 inlet volume-level;
#X connect 3 0 5 0;
#X connect 4 0 5 1;
#X connect 5 0 2 0;
#X connect 5 1 0 0;
#X connect 5 2 1 0;
#X connect 6 0 5 2;
#X connect 6 0 7 0;
#X connect 9 0 5 3;
#X connect 9 0 8 0;
#X coords 0 -1 1 1 160 100 1 100 100;
#X restore 110 161 pd player;
#X obj 393 99 seq-player-controller;
#X obj 393 68 r \$0-init-bang;
#X obj 271 132 seq-player-sequencer;
#X obj 271 101 r \$0-init-bang;
#X obj 515 -18 r \$0-set-settings;
#X floatatom 202 137 5 0 0 0 track-no - -;
#X obj 110 -52 r \$0-init-bang;
#X obj 109 24 file-name-selector;
#X obj 214 -6 r config-sample-filename;
#X msg 516 70 4;
#X connect 1 0 3 1;
#X connect 1 1 3 2;
#X connect 1 2 3 3;
#X connect 1 3 3 4;
#X connect 1 4 3 5;
#X connect 2 0 1 0;
#X connect 3 0 0 1;
#X connect 3 1 0 2;
#X connect 3 2 0 3;
#X connect 4 0 3 0;
#X connect 5 0 10 0;
#X connect 7 0 8 0;
#X connect 8 0 0 0;
#X connect 9 0 8 2;
#X connect 10 0 1 1;
#X connect 10 0 6 0;
#X connect 10 0 8 1;
#X coords 0 -1 1 1 500 170 1 100 100;
#X restore 490 558 pd player-4;
#N canvas 0 22 1280 752 player-5 0;
#N canvas 332 191 865 479 player 0;
#X obj 117 130 hsl 128 15 0 1 0 0 empty empty playing_position -2 -8
0 10 -262144 -1 -1 0 1;
#X floatatom 609 255 5 0 0 0 track_duration - -;
#X obj 384 311 throw~ voice;
#X obj 271 55 inlet init-bang;
#X obj 419 56 inlet start-stop;
#X obj 393 225 seq-sample-player;
#X obj 561 53 inlet track-speed;
#X floatatom 144 160 5 0 0 0 speed - -;
#X floatatom 146 181 5 0 0 0 volume - -;
#X obj 712 54 inlet volume-level;
#X connect 3 0 5 0;
#X connect 4 0 5 1;
#X connect 5 0 2 0;
#X connect 5 1 0 0;
#X connect 5 2 1 0;
#X connect 6 0 5 2;
#X connect 6 0 7 0;
#X connect 9 0 5 3;
#X connect 9 0 8 0;
#X coords 0 -1 1 1 160 100 1 100 100;
#X restore 110 161 pd player;
#X obj 393 99 seq-player-controller;
#X obj 393 68 r \$0-init-bang;
#X obj 271 132 seq-player-sequencer;
#X obj 271 101 r \$0-init-bang;
#X obj 515 -18 r \$0-set-settings;
#X floatatom 202 137 5 0 0 0 track-no - -;
#X obj 110 -52 r \$0-init-bang;
#X obj 109 24 file-name-selector;
#X obj 214 -6 r config-sample-filename;
#X msg 516 70 5;
#X connect 1 0 3 1;
#X connect 1 1 3 2;
#X connect 1 2 3 3;
#X connect 1 3 3 4;
#X connect 1 4 3 5;
#X connect 2 0 1 0;
#X connect 3 0 0 1;
#X connect 3 1 0 2;
#X connect 3 2 0 3;
#X connect 4 0 3 0;
#X connect 5 0 10 0;
#X connect 7 0 8 0;
#X connect 8 0 0 0;
#X connect 9 0 8 2;
#X connect 10 0 1 1;
#X connect 10 0 6 0;
#X connect 10 0 8 1;
#X coords 0 -1 1 1 500 170 1 100 100;
#X restore 999 26 pd player-5;
#N canvas 0 22 1280 752 player-6 0;
#N canvas 332 191 865 479 player 0;
#X obj 117 130 hsl 128 15 0 1 0 0 empty empty playing_position -2 -8
0 10 -262144 -1 -1 0 1;
#X floatatom 609 255 5 0 0 0 track_duration - -;
#X obj 384 311 throw~ voice;
#X obj 271 55 inlet init-bang;
#X obj 419 56 inlet start-stop;
#X obj 393 225 seq-sample-player;
#X obj 561 53 inlet track-speed;
#X floatatom 144 160 5 0 0 0 speed - -;
#X floatatom 146 181 5 0 0 0 volume - -;
#X obj 712 54 inlet volume-level;
#X connect 3 0 5 0;
#X connect 4 0 5 1;
#X connect 5 0 2 0;
#X connect 5 1 0 0;
#X connect 5 2 1 0;
#X connect 6 0 5 2;
#X connect 6 0 7 0;
#X connect 9 0 5 3;
#X connect 9 0 8 0;
#X coords 0 -1 1 1 160 100 1 100 100;
#X restore 110 161 pd player;
#X obj 393 99 seq-player-controller;
#X obj 393 68 r \$0-init-bang;
#X obj 271 132 seq-player-sequencer;
#X obj 271 101 r \$0-init-bang;
#X obj 515 -18 r \$0-set-settings;
#X floatatom 202 137 5 0 0 0 track-no - -;
#X obj 110 -52 r \$0-init-bang;
#X obj 109 24 file-name-selector;
#X obj 214 -6 r config-sample-filename;
#X msg 516 70 6;
#X connect 1 0 3 1;
#X connect 1 1 3 2;
#X connect 1 2 3 3;
#X connect 1 3 3 4;
#X connect 1 4 3 5;
#X connect 2 0 1 0;
#X connect 3 0 0 1;
#X connect 3 1 0 2;
#X connect 3 2 0 3;
#X connect 4 0 3 0;
#X connect 5 0 10 0;
#X connect 7 0 8 0;
#X connect 8 0 0 0;
#X connect 9 0 8 2;
#X connect 10 0 1 1;
#X connect 10 0 6 0;
#X connect 10 0 8 1;
#X coords 0 -1 1 1 500 170 1 100 100;
#X restore 999 203 pd player-6;
#N canvas 0 22 1280 752 player-7 0;
#N canvas 332 191 865 479 player 0;
#X obj 117 130 hsl 128 15 0 1 0 0 empty empty playing_position -2 -8
0 10 -262144 -1 -1 0 1;
#X floatatom 609 255 5 0 0 0 track_duration - -;
#X obj 384 311 throw~ voice;
#X obj 271 55 inlet init-bang;
#X obj 419 56 inlet start-stop;
#X obj 393 225 seq-sample-player;
#X obj 561 53 inlet track-speed;
#X floatatom 144 160 5 0 0 0 speed - -;
#X floatatom 146 181 5 0 0 0 volume - -;
#X obj 712 54 inlet volume-level;
#X connect 3 0 5 0;
#X connect 4 0 5 1;
#X connect 5 0 2 0;
#X connect 5 1 0 0;
#X connect 5 2 1 0;
#X connect 6 0 5 2;
#X connect 6 0 7 0;
#X connect 9 0 5 3;
#X connect 9 0 8 0;
#X coords 0 -1 1 1 160 100 1 100 100;
#X restore 110 161 pd player;
#X obj 393 99 seq-player-controller;
#X obj 393 68 r \$0-init-bang;
#X obj 271 132 seq-player-sequencer;
#X obj 271 101 r \$0-init-bang;
#X obj 515 -18 r \$0-set-settings;
#X floatatom 202 137 5 0 0 0 track-no - -;
#X obj 110 -52 r \$0-init-bang;
#X obj 109 24 file-name-selector;
#X obj 214 -6 r config-sample-filename;
#X msg 516 70 7;
#X connect 1 0 3 1;
#X connect 1 1 3 2;
#X connect 1 2 3 3;
#X connect 1 3 3 4;
#X connect 1 4 3 5;
#X connect 2 0 1 0;
#X connect 3 0 0 1;
#X connect 3 1 0 2;
#X connect 3 2 0 3;
#X connect 4 0 3 0;
#X connect 5 0 10 0;
#X connect 7 0 8 0;
#X connect 8 0 0 0;
#X connect 9 0 8 2;
#X connect 10 0 1 1;
#X connect 10 0 6 0;
#X connect 10 0 8 1;
#X coords 0 -1 1 1 500 170 1 100 100;
#X restore 999 381 pd player-7;
#N canvas 0 22 1280 752 player-8 0;
#N canvas 332 191 865 479 player 0;
#X obj 117 130 hsl 128 15 0 1 0 0 empty empty playing_position -2 -8
0 10 -262144 -1 -1 0 1;
#X floatatom 609 255 5 0 0 0 track_duration - -;
#X obj 384 311 throw~ voice;
#X obj 271 55 inlet init-bang;
#X obj 419 56 inlet start-stop;
#X obj 393 225 seq-sample-player;
#X obj 561 53 inlet track-speed;
#X floatatom 144 160 5 0 0 0 speed - -;
#X floatatom 146 181 5 0 0 0 volume - -;
#X obj 712 54 inlet volume-level;
#X connect 3 0 5 0;
#X connect 4 0 5 1;
#X connect 5 0 2 0;
#X connect 5 1 0 0;
#X connect 5 2 1 0;
#X connect 6 0 5 2;
#X connect 6 0 7 0;
#X connect 9 0 5 3;
#X connect 9 0 8 0;
#X coords 0 -1 1 1 160 100 1 100 100;
#X restore 110 161 pd player;
#X obj 393 99 seq-player-controller;
#X obj 393 68 r \$0-init-bang;
#X obj 271 132 seq-player-sequencer;
#X obj 271 101 r \$0-init-bang;
#X obj 515 -18 r \$0-set-settings;
#X floatatom 202 137 5 0 0 0 track-no - -;
#X obj 110 -52 r \$0-init-bang;
#X obj 109 24 file-name-selector;
#X obj 214 -6 r config-sample-filename;
#X msg 516 70 8;
#X connect 1 0 3 1;
#X connect 1 1 3 2;
#X connect 1 2 3 3;
#X connect 1 3 3 4;
#X connect 1 4 3 5;
#X connect 2 0 1 0;
#X connect 3 0 0 1;
#X connect 3 1 0 2;
#X connect 3 2 0 3;
#X connect 4 0 3 0;
#X connect 5 0 10 0;
#X connect 7 0 8 0;
#X connect 8 0 0 0;
#X connect 9 0 8 2;
#X connect 10 0 1 1;
#X connect 10 0 6 0;
#X connect 10 0 8 1;
#X coords 0 -1 1 1 500 170 1 100 100;
#X restore 999 558 pd player-8;
#X obj 417 193 loadbang;
#X obj 419 230 delay 1000;
#X msg 419 272 \; pd dsp 1;
#X obj 18 267 io-seq-serial-controller;
#X obj 18 189 loadbang;
#X connect 1 0 2 0;
#X connect 2 0 32 0;
#X connect 4 0 3 0;
#X connect 5 0 3 0;
#X connect 9 0 3 0;
#X connect 10 0 3 0;
#X connect 13 0 3 0;
#X connect 14 0 17 0;
#X connect 15 0 14 1;
#X connect 16 0 19 0;
#X connect 17 0 16 0;
#X connect 21 0 15 0;
#X connect 29 0 30 0;
#X connect 30 0 31 0;
#X connect 32 0 14 0;
#X connect 33 0 1 0;
