#N canvas 0 22 990 585 10;
#X obj 47 47 inlet init-bang;
#X obj 184 48 inlet step-no;
#X obj 301 50 inlet step;
#X obj 391 51 inlet start-stop;
#X obj 77 519 outlet start-stop;
#X obj 857 530 outlet status;
#N canvas 361 194 450 300 step-catcher 0;
#X obj 38 28 inlet init-bang;
#X obj 161 30 inlet step-no;
#X obj 309 32 inlet current-step;
#X obj 261 119 ==;
#X obj 224 268 outlet step-cought;
#X connect 1 0 3 1;
#X connect 2 0 3 0;
#X connect 3 0 4 0;
#X restore 204 104 pd step-catcher;
#X obj 204 136 s \$0-step-cought;
#N canvas 402 140 763 501 start-stop-step 0;
#X obj 38 34 inlet init-bang;
#X obj 509 34 inlet start-stop;
#X obj 287 458 outlet start-stop-msg;
#X obj 233 35 inlet step-cought;
#X obj 246 110 route 0 1;
#X obj 489 237 tgl 15 0 empty empty empty 17 7 0 10 -262144 -1 -1 0
1;
#X obj 509 162 spigot;
#X msg 502 198 bang;
#X msg 455 212 0;
#X text 384 210 init state;
#X obj 586 454 outlet status;
#X obj 403 280 float;
#X obj 387 248 bang;
#X connect 0 0 8 0;
#X connect 1 0 6 0;
#X connect 3 0 4 0;
#X connect 3 0 6 1;
#X connect 4 1 12 0;
#X connect 5 0 2 0;
#X connect 5 0 10 0;
#X connect 5 0 11 1;
#X connect 6 0 7 0;
#X connect 7 0 5 0;
#X connect 8 0 5 0;
#X connect 11 0 2 0;
#X connect 12 0 11 0;
#X restore 300 254 pd start-stop-step;
#X obj 47 89 s \$0-init-bang;
#X obj 301 165 r \$0-init-bang;
#X obj 353 215 r \$0-step-cought;
#X obj 871 150 r \$0-init-bang;
#X obj 853 51 inlet increase-volume;
#X obj 1022 51 inlet decrease-volume;
#X obj 405 282 s \$0-start-stop-status;
#X obj 857 501 r \$0-start-stop-status;
#N canvas 290 326 738 323 volume-step 0;
#X obj 29 26 inlet init-bang;
#X obj 175 26 inlet increase-volume;
#X obj 357 27 inlet decrease-volume;
#X obj 571 29 inlet step-cought;
#X obj 242 293 outlet volume-level;
#N canvas 639 22 635 432 volume-control 0;
#X obj 38 42 inlet;
#X text 34 19 increase volume;
#X obj 155 44 inlet;
#X text 156 19 decrease volume;
#X obj 209 381 outlet;
#X obj 480 54 inlet;
#X text 477 28 init bang;
#X obj 202 188 float;
#X msg 525 126 0.5;
#N canvas 808 287 450 300 do-decrease-volume 0;
#X obj 101 38 inlet;
#X obj 112 241 outlet;
#X text 87 11 bang to change;
#X obj 205 40 inlet;
#X text 200 15 current level;
#X text 174 239 output level;
#X obj 112 211 clip 0 1;
#X obj 110 110 float;
#X obj 111 182 - 0.2;
#X obj 314 39 inlet;
#X text 314 17 muted;
#X obj 295 81 select 0;
#X text 334 64 comment;
#X msg 271 110 0.2;
#X msg 343 112 0;
#X connect 0 0 7 0;
#X connect 3 0 7 1;
#X connect 6 0 1 0;
#X connect 7 0 8 0;
#X connect 8 0 6 0;
#X connect 9 0 11 0;
#X connect 11 0 13 0;
#X connect 11 1 14 0;
#X connect 13 0 8 1;
#X connect 14 0 8 1;
#X restore 151 69 pd do-decrease-volume;
#N canvas 587 381 450 300 do-increase-volume 0;
#X obj 111 48 inlet;
#X obj 122 251 outlet;
#X text 97 21 bang to change;
#X obj 235 50 inlet;
#X text 230 25 current level;
#X text 184 249 output level;
#X obj 122 218 clip 0 1;
#X obj 122 187 + 0.2;
#X obj 122 136 float;
#X obj 340 51 inlet;
#X text 341 27 muted;
#X obj 338 84 select 0;
#X msg 328 115 0.2;
#X msg 381 115 0;
#X connect 0 0 8 0;
#X connect 3 0 8 1;
#X connect 6 0 1 0;
#X connect 7 0 6 0;
#X connect 8 0 7 0;
#X connect 9 0 11 0;
#X connect 11 0 12 0;
#X connect 11 1 13 0;
#X connect 12 0 7 1;
#X connect 13 0 7 1;
#X restore 43 145 pd do-increase-volume;
#X obj 389 33 inlet;
#X text 395 16 mute;
#X obj 490 86 t b b b;
#N canvas 202 323 450 300 mute-control 0;
#X obj 150 78 inlet;
#X obj 320 86 inlet;
#X text 151 21 mute control;
#X text 151 39 1 -mute;
#X text 149 58 0 - no;
#X text 317 67 init bang;
#X obj 62 81 inlet;
#X text 59 43 volume;
#X obj 113 270 outlet;
#X text 172 267 out volume;
#X obj 113 238 *;
#X obj 145 108 select 0;
#X obj 146 184 float;
#X obj 140 212 t b f;
#X msg 134 152 1;
#X msg 186 153 0;
#X connect 0 0 11 0;
#X connect 1 0 14 0;
#X connect 6 0 10 0;
#X connect 10 0 8 0;
#X connect 11 0 14 0;
#X connect 11 1 15 0;
#X connect 12 0 13 0;
#X connect 13 0 10 0;
#X connect 13 1 10 1;
#X connect 14 0 12 0;
#X connect 15 0 12 0;
#X restore 241 276 pd mute-control;
#X connect 0 0 10 0;
#X connect 2 0 9 0;
#X connect 5 0 13 0;
#X connect 7 0 9 1;
#X connect 7 0 10 1;
#X connect 7 0 14 0;
#X connect 8 0 7 1;
#X connect 9 0 7 0;
#X connect 10 0 7 0;
#X connect 11 0 14 1;
#X connect 11 0 9 2;
#X connect 11 0 10 2;
#X connect 13 0 7 0;
#X connect 13 1 8 0;
#X connect 13 2 14 2;
#X connect 14 0 4 0;
#X restore 237 205 pd volume-control;
#X obj 362 128 spigot;
#X obj 235 128 spigot;
#X obj 245 256 float;
#X obj 552 111 route 1;
#X obj 536 150 bang;
#X connect 0 0 5 3;
#X connect 1 0 7 0;
#X connect 2 0 6 0;
#X connect 3 0 6 1;
#X connect 3 0 7 1;
#X connect 3 0 9 0;
#X connect 5 0 8 0;
#X connect 6 0 5 1;
#X connect 7 0 5 0;
#X connect 8 0 4 0;
#X connect 9 0 10 0;
#X connect 10 0 8 0;
#X restore 871 210 pd volume-step;
#X obj 952 176 r \$0-step-cought;
#X obj 871 251 s \$0-volume-level;
#X obj 588 524 outlet volume-level;
#X obj 588 494 r \$0-volume-level;
#X obj 357 521 outlet speed;
#X obj 357 492 r \$0-speed;
#N canvas 507 119 588 332 track-speed-step 0;
#X obj 37 26 inlet init-bang;
#X obj 555 32 inlet step-cought-0-1;
#X obj 213 306 outlet track-speed;
#N canvas 469 197 787 577 track-speed 0;
#X obj 625 47 inlet init-bang;
#X obj 567 436 outlet track-speed;
#X msg 622 86 1;
#X obj 577 205 float;
#X obj 573 114 t b f;
#X obj 265 187 b;
#X obj 135 201 b;
#X obj 160 317 +;
#X msg 265 212 0.4;
#X msg 135 226 -0.4;
#X obj 30 22 inlet decrease-speed;
#X obj 223 22 inlet increase-speed;
#X obj 161 353 clip 0.2 2;
#X connect 0 0 2 0;
#X connect 2 0 4 0;
#X connect 3 0 1 0;
#X connect 3 0 7 1;
#X connect 4 0 3 0;
#X connect 4 1 3 1;
#X connect 5 0 8 0;
#X connect 6 0 9 0;
#X connect 7 0 12 0;
#X connect 8 0 7 0;
#X connect 9 0 7 0;
#X connect 10 0 6 0;
#X connect 11 0 5 0;
#X connect 12 0 3 0;
#X restore 167 184 pd track-speed;
#X obj 177 108 spigot;
#X obj 553 133 route 1;
#X obj 200 264 float;
#X obj 548 182 bang;
#X obj 174 27 inlet decrease-speed-bang;
#X obj 344 29 inlet increase-speed-bang;
#X obj 329 114 spigot;
#X connect 0 0 3 2;
#X connect 1 0 4 1;
#X connect 1 0 5 0;
#X connect 1 0 10 1;
#X connect 3 0 6 0;
#X connect 4 0 3 0;
#X connect 5 0 7 0;
#X connect 6 0 2 0;
#X connect 7 0 6 0;
#X connect 8 0 4 0;
#X connect 9 0 10 0;
#X connect 10 0 3 1;
#X restore 487 207 pd track-speed-step;
#X obj 487 167 r \$0-init-bang;
#X obj 598 179 r \$0-step-cought;
#X obj 487 240 s \$0-speed;
#X obj 543 52 inlet decrease-speed;
#X obj 686 52 inlet increase-speed;
#X connect 0 0 9 0;
#X connect 1 0 6 1;
#X connect 2 0 6 2;
#X connect 3 0 8 2;
#X connect 6 0 7 0;
#X connect 8 0 4 0;
#X connect 8 1 15 0;
#X connect 10 0 8 0;
#X connect 11 0 8 1;
#X connect 12 0 17 0;
#X connect 13 0 17 1;
#X connect 14 0 17 2;
#X connect 16 0 5 0;
#X connect 17 0 19 0;
#X connect 18 0 17 3;
#X connect 21 0 20 0;
#X connect 23 0 22 0;
#X connect 24 0 27 0;
#X connect 25 0 24 0;
#X connect 26 0 24 3;
#X connect 28 0 24 1;
#X connect 29 0 24 2;
