#N canvas -8 22 1276 745 10;
#X obj 39 101 bng 30 250 50 0 empty empty init 17 7 0 10 -262144 -1
-1;
#X obj 39 136 io-seq-midi-controller;
#N canvas 178 151 846 490 seq-machine 0;
#X obj 19 27 inlet init-bang;
#X obj 111 241 metro;
#X obj 111 217 tgl 15 0 empty empty empty 17 7 0 10 -262144 -1 -1 1
1;
#X floatatom 154 156 5 0 0 0 - - -, f 5;
#X obj 154 211 * 1000;
#X obj 110 282 float;
#X obj 176 281 + 1;
#X obj 94 383 bng 15 250 50 0 empty empty empty 17 7 0 10 -262144 -1
-1;
#X obj 126 382 bng 15 250 50 0 empty empty empty 17 7 0 10 -262144
-1 -1;
#X obj 155 383 bng 15 250 50 0 empty empty empty 17 7 0 10 -262144
-1 -1;
#X obj 182 383 bng 15 250 50 0 empty empty empty 17 7 0 10 -262144
-1 -1;
#X obj 213 383 bng 15 250 50 0 empty empty empty 17 7 0 10 -262144
-1 -1;
#X obj 154 183 / 6;
#X obj 253 383 bng 15 250 50 0 empty empty empty 17 7 0 10 -262144
-1 -1;
#X obj 109 308 % 6;
#X obj 30 492 s ctrl-bus;
#X msg 234 64 bang;
#X obj 49 364 t b f;
#X obj 39 427 list;
#X msg 20 391 step;
#X obj 33 451 list trim;
#X obj 108 343 select 0 1 2 3 4 5;
#X msg 187 124 30;
#X msg 277 52 bang;
#X obj 270 213 s \$0-set-ui-params;
#X obj 230 112 s \$0-global-init-bang;
#X obj 367 135 r \$0-global-init-bang;
#X obj 486 208 s \$0-set-settings;
#X obj 280 23 inlet loop-length;
#X obj 145 28 inlet start-stop;
#X obj 369 173 t b b b b;
#X obj 429 474 outlet out-init-bang;
#X connect 0 0 16 0;
#X connect 1 0 5 0;
#X connect 2 0 1 0;
#X connect 3 0 12 0;
#X connect 4 0 1 1;
#X connect 5 0 6 0;
#X connect 5 0 14 0;
#X connect 6 0 5 1;
#X connect 12 0 4 0;
#X connect 14 0 17 0;
#X connect 14 0 21 0;
#X connect 16 0 22 0;
#X connect 16 0 25 0;
#X connect 17 0 19 0;
#X connect 17 1 18 1;
#X connect 18 0 20 0;
#X connect 19 0 18 0;
#X connect 20 0 15 0;
#X connect 21 0 7 0;
#X connect 21 1 8 0;
#X connect 21 2 9 0;
#X connect 21 3 10 0;
#X connect 21 4 11 0;
#X connect 21 5 13 0;
#X connect 22 0 3 0;
#X connect 23 0 25 0;
#X connect 26 0 30 0;
#X connect 28 0 3 0;
#X connect 29 0 2 0;
#X connect 30 0 24 0;
#X connect 30 1 31 0;
#X connect 30 3 27 0;
#X restore 37 248 pd seq-machine;
#X obj 77 206 bng 30 250 50 0 empty empty start-stop 17 7 0 10 -262144
-1 -1;
#X obj 37 306 read-config-file;
#X msg 37 278 seq-accardeon-samples.config;
#X text 142 305 read sample filenames form config file;
#X obj 37 339 s \$0-init-bang;
#N canvas 0 22 1280 752 player-1 0;
#N canvas 332 191 865 479 player 0;
#X obj 117 130 hsl 128 15 0 1 0 0 empty empty playing_position -2 -8
0 10 -262144 -1 -1 0 1;
#X floatatom 609 255 5 0 0 0 track_duration - -, f 5;
#X obj 384 311 throw~ voice;
#X obj 271 55 inlet init-bang;
#X obj 419 56 inlet start-stop;
#X obj 393 225 seq-sample-player;
#X obj 561 53 inlet track-speed;
#X floatatom 144 160 5 0 0 0 speed - -, f 5;
#X floatatom 146 181 5 0 0 0 volume - -, f 5;
#X obj 712 54 inlet volume-level;
#X connect 3 0 5 0;
#X connect 4 0 5 1;
#X connect 5 0 2 0;
#X connect 5 1 0 0;
#X connect 5 2 1 0;
#X connect 6 0 5 2;
#X connect 6 0 7 0;
#X connect 9 0 5 3;
#X connect 9 0 8 0;
#X coords 0 -1 1 1 160 100 1 100 100;
#X restore 110 161 pd player;
#X obj 393 99 seq-player-controller;
#X obj 393 68 r \$0-init-bang;
#X obj 271 132 seq-player-sequencer;
#X obj 271 101 r \$0-init-bang;
#X obj 515 -18 r \$0-set-settings;
#X floatatom 202 137 5 0 0 0 track-no - -, f 5;
#X obj 110 -52 r \$0-init-bang;
#X obj 109 24 file-name-selector;
#X obj 214 -6 r config-sample-filename;
#X msg 516 70 1;
#X connect 1 0 3 1;
#X connect 1 1 3 2;
#X connect 1 2 3 3;
#X connect 1 3 3 4;
#X connect 1 4 3 5;
#X connect 2 0 1 0;
#X connect 3 0 0 1;
#X connect 3 1 0 2;
#X connect 3 2 0 3;
#X connect 4 0 3 0;
#X connect 5 0 10 0;
#X connect 7 0 8 0;
#X connect 8 0 0 0;
#X connect 9 0 8 2;
#X connect 10 0 1 1;
#X connect 10 0 6 0;
#X connect 10 0 8 1;
#X coords 0 -1 1 1 500 170 1 100 100;
#X restore 500 36 pd player-1;
#X obj 227 160 r \$0-init-bang;
#N canvas 0 22 1280 752 player-2 0;
#N canvas 332 191 865 479 player 0;
#X obj 117 130 hsl 128 15 0 1 0 0 empty empty playing_position -2 -8
0 10 -262144 -1 -1 0 1;
#X floatatom 609 255 5 0 0 0 track_duration - -, f 5;
#X obj 384 311 throw~ voice;
#X obj 271 55 inlet init-bang;
#X obj 419 56 inlet start-stop;
#X obj 393 225 seq-sample-player;
#X obj 561 53 inlet track-speed;
#X floatatom 144 160 5 0 0 0 speed - -, f 5;
#X floatatom 146 181 5 0 0 0 volume - -, f 5;
#X obj 712 54 inlet volume-level;
#X connect 3 0 5 0;
#X connect 4 0 5 1;
#X connect 5 0 2 0;
#X connect 5 1 0 0;
#X connect 5 2 1 0;
#X connect 6 0 5 2;
#X connect 6 0 7 0;
#X connect 9 0 5 3;
#X connect 9 0 8 0;
#X coords 0 -1 1 1 160 100 1 100 100;
#X restore 110 161 pd player;
#X obj 393 99 seq-player-controller;
#X obj 393 68 r \$0-init-bang;
#X obj 271 132 seq-player-sequencer;
#X obj 271 101 r \$0-init-bang;
#X obj 515 -18 r \$0-set-settings;
#X floatatom 202 137 5 0 0 0 track-no - -, f 5;
#X obj 110 -52 r \$0-init-bang;
#X obj 109 24 file-name-selector;
#X obj 214 -6 r config-sample-filename;
#X msg 516 70 2;
#X connect 1 0 3 1;
#X connect 1 1 3 2;
#X connect 1 2 3 3;
#X connect 1 3 3 4;
#X connect 1 4 3 5;
#X connect 2 0 1 0;
#X connect 3 0 0 1;
#X connect 3 1 0 2;
#X connect 3 2 0 3;
#X connect 4 0 3 0;
#X connect 5 0 10 0;
#X connect 7 0 8 0;
#X connect 8 0 0 0;
#X connect 9 0 8 2;
#X connect 10 0 1 1;
#X connect 10 0 6 0;
#X connect 10 0 8 1;
#X coords 0 -1 1 1 500 170 1 100 100;
#X restore 500 213 pd player-2;
#N canvas 0 22 1280 752 player-3 0;
#N canvas 332 191 865 479 player 0;
#X obj 117 130 hsl 128 15 0 1 0 0 empty empty playing_position -2 -8
0 10 -262144 -1 -1 0 1;
#X floatatom 609 255 5 0 0 0 track_duration - -, f 5;
#X obj 384 311 throw~ voice;
#X obj 271 55 inlet init-bang;
#X obj 419 56 inlet start-stop;
#X obj 393 225 seq-sample-player;
#X obj 561 53 inlet track-speed;
#X floatatom 144 160 5 0 0 0 speed - -, f 5;
#X floatatom 146 181 5 0 0 0 volume - -, f 5;
#X obj 712 54 inlet volume-level;
#X connect 3 0 5 0;
#X connect 4 0 5 1;
#X connect 5 0 2 0;
#X connect 5 1 0 0;
#X connect 5 2 1 0;
#X connect 6 0 5 2;
#X connect 6 0 7 0;
#X connect 9 0 5 3;
#X connect 9 0 8 0;
#X coords 0 -1 1 1 160 100 1 100 100;
#X restore 110 161 pd player;
#X obj 393 99 seq-player-controller;
#X obj 393 68 r \$0-init-bang;
#X obj 271 132 seq-player-sequencer;
#X obj 271 101 r \$0-init-bang;
#X obj 515 -18 r \$0-set-settings;
#X floatatom 202 137 5 0 0 0 track-no - -, f 5;
#X obj 110 -52 r \$0-init-bang;
#X obj 109 24 file-name-selector;
#X obj 214 -6 r config-sample-filename;
#X msg 516 70 3;
#X connect 1 0 3 1;
#X connect 1 1 3 2;
#X connect 1 2 3 3;
#X connect 1 3 3 4;
#X connect 1 4 3 5;
#X connect 2 0 1 0;
#X connect 3 0 0 1;
#X connect 3 1 0 2;
#X connect 3 2 0 3;
#X connect 4 0 3 0;
#X connect 5 0 10 0;
#X connect 7 0 8 0;
#X connect 8 0 0 0;
#X connect 9 0 8 2;
#X connect 10 0 1 1;
#X connect 10 0 6 0;
#X connect 10 0 8 1;
#X coords 0 -1 1 1 500 170 1 100 100;
#X restore 500 391 pd player-3;
#N canvas 0 22 1280 752 player-4 0;
#N canvas 332 191 865 479 player 0;
#X obj 117 130 hsl 128 15 0 1 0 0 empty empty playing_position -2 -8
0 10 -262144 -1 -1 0 1;
#X floatatom 609 255 5 0 0 0 track_duration - -, f 5;
#X obj 384 311 throw~ voice;
#X obj 271 55 inlet init-bang;
#X obj 419 56 inlet start-stop;
#X obj 393 225 seq-sample-player;
#X obj 561 53 inlet track-speed;
#X floatatom 144 160 5 0 0 0 speed - -, f 5;
#X floatatom 146 181 5 0 0 0 volume - -, f 5;
#X obj 712 54 inlet volume-level;
#X connect 3 0 5 0;
#X connect 4 0 5 1;
#X connect 5 0 2 0;
#X connect 5 1 0 0;
#X connect 5 2 1 0;
#X connect 6 0 5 2;
#X connect 6 0 7 0;
#X connect 9 0 5 3;
#X connect 9 0 8 0;
#X coords 0 -1 1 1 160 100 1 100 100;
#X restore 110 161 pd player;
#X obj 393 99 seq-player-controller;
#X obj 393 68 r \$0-init-bang;
#X obj 271 132 seq-player-sequencer;
#X obj 271 101 r \$0-init-bang;
#X obj 515 -18 r \$0-set-settings;
#X floatatom 202 137 5 0 0 0 track-no - -, f 5;
#X obj 110 -52 r \$0-init-bang;
#X obj 109 24 file-name-selector;
#X obj 214 -6 r config-sample-filename;
#X msg 516 70 4;
#X connect 1 0 3 1;
#X connect 1 1 3 2;
#X connect 1 2 3 3;
#X connect 1 3 3 4;
#X connect 1 4 3 5;
#X connect 2 0 1 0;
#X connect 3 0 0 1;
#X connect 3 1 0 2;
#X connect 3 2 0 3;
#X connect 4 0 3 0;
#X connect 5 0 10 0;
#X connect 7 0 8 0;
#X connect 8 0 0 0;
#X connect 9 0 8 2;
#X connect 10 0 1 1;
#X connect 10 0 6 0;
#X connect 10 0 8 1;
#X coords 0 -1 1 1 500 170 1 100 100;
#X restore 500 568 pd player-4;
#N canvas 0 22 1280 752 player-5 0;
#N canvas 332 191 865 479 player 0;
#X obj 117 130 hsl 128 15 0 1 0 0 empty empty playing_position -2 -8
0 10 -262144 -1 -1 0 1;
#X floatatom 609 255 5 0 0 0 track_duration - -, f 5;
#X obj 384 311 throw~ voice;
#X obj 271 55 inlet init-bang;
#X obj 419 56 inlet start-stop;
#X obj 393 225 seq-sample-player;
#X obj 561 53 inlet track-speed;
#X floatatom 144 160 5 0 0 0 speed - -, f 5;
#X floatatom 146 181 5 0 0 0 volume - -, f 5;
#X obj 712 54 inlet volume-level;
#X connect 3 0 5 0;
#X connect 4 0 5 1;
#X connect 5 0 2 0;
#X connect 5 1 0 0;
#X connect 5 2 1 0;
#X connect 6 0 5 2;
#X connect 6 0 7 0;
#X connect 9 0 5 3;
#X connect 9 0 8 0;
#X coords 0 -1 1 1 160 100 1 100 100;
#X restore 110 161 pd player;
#X obj 393 99 seq-player-controller;
#X obj 393 68 r \$0-init-bang;
#X obj 271 132 seq-player-sequencer;
#X obj 271 101 r \$0-init-bang;
#X obj 515 -18 r \$0-set-settings;
#X floatatom 202 137 5 0 0 0 track-no - -, f 5;
#X obj 110 -52 r \$0-init-bang;
#X obj 109 24 file-name-selector;
#X obj 214 -6 r config-sample-filename;
#X msg 516 70 5;
#X connect 1 0 3 1;
#X connect 1 1 3 2;
#X connect 1 2 3 3;
#X connect 1 3 3 4;
#X connect 1 4 3 5;
#X connect 2 0 1 0;
#X connect 3 0 0 1;
#X connect 3 1 0 2;
#X connect 3 2 0 3;
#X connect 4 0 3 0;
#X connect 5 0 10 0;
#X connect 7 0 8 0;
#X connect 8 0 0 0;
#X connect 9 0 8 2;
#X connect 10 0 1 1;
#X connect 10 0 6 0;
#X connect 10 0 8 1;
#X coords 0 -1 1 1 500 170 1 100 100;
#X restore 1009 36 pd player-5;
#N canvas 0 22 1280 752 player-6 0;
#N canvas 332 191 865 479 player 0;
#X obj 117 130 hsl 128 15 0 1 0 0 empty empty playing_position -2 -8
0 10 -262144 -1 -1 0 1;
#X floatatom 609 255 5 0 0 0 track_duration - -, f 5;
#X obj 384 311 throw~ voice;
#X obj 271 55 inlet init-bang;
#X obj 419 56 inlet start-stop;
#X obj 393 225 seq-sample-player;
#X obj 561 53 inlet track-speed;
#X floatatom 144 160 5 0 0 0 speed - -, f 5;
#X floatatom 146 181 5 0 0 0 volume - -, f 5;
#X obj 712 54 inlet volume-level;
#X connect 3 0 5 0;
#X connect 4 0 5 1;
#X connect 5 0 2 0;
#X connect 5 1 0 0;
#X connect 5 2 1 0;
#X connect 6 0 5 2;
#X connect 6 0 7 0;
#X connect 9 0 5 3;
#X connect 9 0 8 0;
#X coords 0 -1 1 1 160 100 1 100 100;
#X restore 110 161 pd player;
#X obj 393 99 seq-player-controller;
#X obj 393 68 r \$0-init-bang;
#X obj 271 132 seq-player-sequencer;
#X obj 271 101 r \$0-init-bang;
#X obj 515 -18 r \$0-set-settings;
#X floatatom 202 137 5 0 0 0 track-no - -, f 5;
#X obj 110 -52 r \$0-init-bang;
#X obj 109 24 file-name-selector;
#X obj 214 -6 r config-sample-filename;
#X msg 516 70 6;
#X connect 1 0 3 1;
#X connect 1 1 3 2;
#X connect 1 2 3 3;
#X connect 1 3 3 4;
#X connect 1 4 3 5;
#X connect 2 0 1 0;
#X connect 3 0 0 1;
#X connect 3 1 0 2;
#X connect 3 2 0 3;
#X connect 4 0 3 0;
#X connect 5 0 10 0;
#X connect 7 0 8 0;
#X connect 8 0 0 0;
#X connect 9 0 8 2;
#X connect 10 0 1 1;
#X connect 10 0 6 0;
#X connect 10 0 8 1;
#X coords 0 -1 1 1 500 170 1 100 100;
#X restore 1009 213 pd player-6;
#N canvas 0 22 1280 752 player-7 0;
#N canvas 332 191 865 479 player 0;
#X obj 117 130 hsl 128 15 0 1 0 0 empty empty playing_position -2 -8
0 10 -262144 -1 -1 0 1;
#X floatatom 609 255 5 0 0 0 track_duration - -, f 5;
#X obj 384 311 throw~ voice;
#X obj 271 55 inlet init-bang;
#X obj 419 56 inlet start-stop;
#X obj 393 225 seq-sample-player;
#X obj 561 53 inlet track-speed;
#X floatatom 144 160 5 0 0 0 speed - -, f 5;
#X floatatom 146 181 5 0 0 0 volume - -, f 5;
#X obj 712 54 inlet volume-level;
#X connect 3 0 5 0;
#X connect 4 0 5 1;
#X connect 5 0 2 0;
#X connect 5 1 0 0;
#X connect 5 2 1 0;
#X connect 6 0 5 2;
#X connect 6 0 7 0;
#X connect 9 0 5 3;
#X connect 9 0 8 0;
#X coords 0 -1 1 1 160 100 1 100 100;
#X restore 110 161 pd player;
#X obj 393 99 seq-player-controller;
#X obj 393 68 r \$0-init-bang;
#X obj 271 132 seq-player-sequencer;
#X obj 271 101 r \$0-init-bang;
#X obj 515 -18 r \$0-set-settings;
#X floatatom 202 137 5 0 0 0 track-no - -, f 5;
#X obj 110 -52 r \$0-init-bang;
#X obj 109 24 file-name-selector;
#X obj 214 -6 r config-sample-filename;
#X msg 516 70 7;
#X connect 1 0 3 1;
#X connect 1 1 3 2;
#X connect 1 2 3 3;
#X connect 1 3 3 4;
#X connect 1 4 3 5;
#X connect 2 0 1 0;
#X connect 3 0 0 1;
#X connect 3 1 0 2;
#X connect 3 2 0 3;
#X connect 4 0 3 0;
#X connect 5 0 10 0;
#X connect 7 0 8 0;
#X connect 8 0 0 0;
#X connect 9 0 8 2;
#X connect 10 0 1 1;
#X connect 10 0 6 0;
#X connect 10 0 8 1;
#X coords 0 -1 1 1 500 170 1 100 100;
#X restore 1009 391 pd player-7;
#N canvas 0 22 1280 752 player-8 0;
#N canvas 332 191 865 479 player 0;
#X obj 117 130 hsl 128 15 0 1 0 0 empty empty playing_position -2 -8
0 10 -262144 -1 -1 0 1;
#X floatatom 609 255 5 0 0 0 track_duration - -, f 5;
#X obj 384 311 throw~ voice;
#X obj 271 55 inlet init-bang;
#X obj 419 56 inlet start-stop;
#X obj 393 225 seq-sample-player;
#X obj 561 53 inlet track-speed;
#X floatatom 144 160 5 0 0 0 speed - -, f 5;
#X floatatom 146 181 5 0 0 0 volume - -, f 5;
#X obj 712 54 inlet volume-level;
#X connect 3 0 5 0;
#X connect 4 0 5 1;
#X connect 5 0 2 0;
#X connect 5 1 0 0;
#X connect 5 2 1 0;
#X connect 6 0 5 2;
#X connect 6 0 7 0;
#X connect 9 0 5 3;
#X connect 9 0 8 0;
#X coords 0 -1 1 1 160 100 1 100 100;
#X restore 110 161 pd player;
#X obj 393 99 seq-player-controller;
#X obj 393 68 r \$0-init-bang;
#X obj 271 132 seq-player-sequencer;
#X obj 271 101 r \$0-init-bang;
#X obj 515 -18 r \$0-set-settings;
#X floatatom 202 137 5 0 0 0 track-no - -, f 5;
#X obj 110 -52 r \$0-init-bang;
#X obj 109 24 file-name-selector;
#X obj 214 -6 r config-sample-filename;
#X msg 516 70 8;
#X connect 1 0 3 1;
#X connect 1 1 3 2;
#X connect 1 2 3 3;
#X connect 1 3 3 4;
#X connect 1 4 3 5;
#X connect 2 0 1 0;
#X connect 3 0 0 1;
#X connect 3 1 0 2;
#X connect 3 2 0 3;
#X connect 4 0 3 0;
#X connect 5 0 10 0;
#X connect 7 0 8 0;
#X connect 8 0 0 0;
#X connect 9 0 8 2;
#X connect 10 0 1 1;
#X connect 10 0 6 0;
#X connect 10 0 8 1;
#X coords 0 -1 1 1 500 170 1 100 100;
#X restore 1009 568 pd player-8;
#X obj 1527 12 loadbang;
#X obj 1527 40 delay 1000;
#X msg 1527 70 \; pd dsp 1;
#X obj 39 162 io-seq-serial-controller;
#X obj 39 84 loadbang;
#X obj 267 443 catch~ voice;
#X obj 256 490 dac~;
#X obj 52 212 bng 15 250 50 0 empty empty empty 17 7 0 10 -262144 -1
-1;
#X obj 88 427 r ctrl-bus;
#X obj 88 458 print ctrl-bus-debug;
#X connect 0 0 1 0;
#X connect 1 0 20 0;
#X connect 2 0 5 0;
#X connect 3 0 2 1;
#X connect 4 0 7 0;
#X connect 5 0 4 0;
#X connect 9 0 3 0;
#X connect 17 0 18 0;
#X connect 18 0 19 0;
#X connect 20 0 2 0;
#X connect 21 0 0 0;
#X connect 22 0 23 0;
#X connect 22 0 23 1;
#X connect 24 0 2 0;
#X connect 25 0 26 0;
