#N canvas 107 28 931 660 10;
#X obj 68 39 inlet init-bang;
#X obj 308 37 inlet track-no;
#X obj 308 92 float;
#X text 360 91 track no;
#N canvas 702 216 450 300 player-catch-controller 0;
#X obj 183 25 inlet track-no;
#X obj 81 71 r ctrl-bus;
#X obj 66 119 route io;
#X obj 56 158 route select-track;
#X obj 178 211 ==;
#X obj 171 269 outlet track-cought;
#X obj 38 26 inlet init-bang;
#X connect 0 0 4 1;
#X connect 1 0 2 0;
#X connect 2 0 3 0;
#X connect 3 0 4 0;
#X connect 4 0 5 0;
#X restore 154 169 pd player-catch-controller;
#X obj 67 84 s \$0-init-bang;
#X obj 154 133 r \$0-init-bang;
#X obj 154 198 s \$0-cought;
#N canvas 381 383 718 292 start-stop-controller 0;
#X obj 30 22 inlet init-bang;
#X obj 183 25 inlet player-cought;
#X obj 130 124 r ctrl-bus;
#X obj 130 150 route io;
#X obj 130 177 route start-stop;
#X obj 291 219 spigot;
#X obj 290 268 outlet start-stop-message;
#X connect 1 0 5 1;
#X connect 2 0 3 0;
#X connect 3 0 4 0;
#X connect 4 0 5 0;
#X connect 5 0 6 0;
#X restore 18 383 pd start-stop-controller;
#X obj 18 346 r \$0-init-bang;
#X obj 248 348 r \$0-init-bang;
#X obj 159 349 r \$0-cought;
#X obj 413 353 r \$0-cought;
#X obj 17 576 outlet start-stop-msg;
#X obj 846 354 r \$0-init-bang;
#X obj 1017 356 r \$0-cought;
#X obj 852 586 outlet increase-volume;
#X obj 1108 359 r \$0-init-bang;
#X obj 1279 361 r \$0-cought;
#X obj 1116 589 outlet decrease-volume;
#N canvas 313 222 548 334 increase-volume-controller 0;
#X obj 40 32 inlet init-bang;
#X obj 399 37 inlet player-cought;
#X obj 177 100 r ctrl-bus;
#X obj 177 126 route io;
#X obj 301 229 spigot;
#X obj 177 153 route increase-volume;
#X obj 300 278 outlet message;
#X connect 1 0 4 1;
#X connect 2 0 3 0;
#X connect 3 0 5 0;
#X connect 4 0 6 0;
#X connect 5 0 4 0;
#X restore 846 389 pd increase-volume-controller;
#N canvas 313 222 548 334 decrease-volume-controller 0;
#X obj 40 32 inlet init-bang;
#X obj 399 37 inlet player-cought;
#X obj 177 100 r ctrl-bus;
#X obj 177 126 route io;
#X obj 301 229 spigot;
#X obj 177 153 route decrease-volume;
#X obj 300 278 outlet message;
#X connect 1 0 4 1;
#X connect 2 0 3 0;
#X connect 3 0 5 0;
#X connect 4 0 6 0;
#X connect 5 0 4 0;
#X restore 1108 392 pd decrease-volume-controller;
#X obj 529 346 r \$0-init-bang;
#X obj 694 349 r \$0-cought;
#N canvas 313 222 548 334 decrease-speed-controller 0;
#X obj 40 32 inlet init-bang;
#X obj 399 37 inlet player-cought;
#X obj 177 100 r ctrl-bus;
#X obj 177 126 route io;
#X obj 301 229 spigot;
#X obj 300 278 outlet decrease-speed-message;
#X obj 177 153 route decrease-speed;
#X connect 1 0 4 1;
#X connect 2 0 3 0;
#X connect 3 0 6 0;
#X connect 4 0 5 0;
#X connect 6 0 4 0;
#X restore 248 383 pd decrease-speed-controller;
#N canvas 313 222 548 334 increase-speed-controller 0;
#X obj 40 32 inlet init-bang;
#X obj 399 37 inlet player-cought;
#X obj 177 100 r ctrl-bus;
#X obj 177 126 route io;
#X obj 301 229 spigot;
#X obj 300 278 outlet increase-speed-message;
#X obj 177 153 route increase-speed;
#X connect 1 0 4 1;
#X connect 2 0 3 0;
#X connect 3 0 6 0;
#X connect 4 0 5 0;
#X connect 6 0 4 0;
#X restore 529 381 pd increase-speed-controller;
#X obj 530 578 outlet increase-speed;
#X obj 249 580 outlet decrease-speed;
#X connect 0 0 5 0;
#X connect 1 0 2 0;
#X connect 2 0 4 1;
#X connect 4 0 7 0;
#X connect 6 0 4 0;
#X connect 8 0 13 0;
#X connect 9 0 8 0;
#X connect 10 0 24 0;
#X connect 11 0 8 1;
#X connect 12 0 24 1;
#X connect 14 0 20 0;
#X connect 15 0 20 1;
#X connect 17 0 21 0;
#X connect 18 0 21 1;
#X connect 20 0 16 0;
#X connect 21 0 19 0;
#X connect 22 0 25 0;
#X connect 23 0 25 1;
#X connect 24 0 27 0;
#X connect 25 0 26 0;
