#N canvas 194 31 1145 669 10;
#N canvas 247 255 865 479 player 0;
#X obj 117 130 hsl 128 15 0 1 0 0 empty empty playing_position -2 -8
0 10 -262144 -1 -1 0 1;
#X floatatom 228 171 5 0 0 0 duration - -;
#X obj 384 311 throw~ voice;
#X obj 271 55 inlet init-bang;
#X obj 419 56 inlet start-stop;
#X obj 393 225 seq-sample-player;
#X obj 561 53 inlet track-speed;
#X floatatom 144 160 5 0 0 0 speed - -;
#X floatatom 146 181 5 0 0 0 volume - -;
#X obj 712 54 inlet volume-level;
#X connect 3 0 5 0;
#X connect 4 0 5 1;
#X connect 5 0 2 0;
#X connect 5 1 0 0;
#X connect 5 2 1 0;
#X connect 6 0 5 2;
#X connect 6 0 7 0;
#X connect 9 0 5 3;
#X connect 9 0 8 0;
#X coords 0 -1 1 1 160 100 1 100 100;
#X restore 124 158 pd player;
#X floatatom 216 134 5 0 0 0 track-no - -;
#X obj 124 67 file-name-selector;
#X obj 229 37 r config-sample-filename;
#X obj 291 129 vsl 15 128 0.2 2 0 0 empty empty empty 0 -9 0 10 -262144
-1 -1 5644 1;
#X obj 326 129 vsl 15 128 0.1 1 0 0 empty empty empty 0 -9 0 10 -262144
-1 -1 5644 1;
#X obj 273 -31 t b b;
#X text 282 107 speed;
#X text 324 105 vol;
#X obj 131 114 tgl 30 0 empty empty start/stop 17 7 0 10 -262144 -1
-1 0 1;
#X msg 259 4 1;
#X msg 326 1 0.5;
#X obj 486 -26 inlet track-no;
#X obj 125 -49 inlet init-bang;
#X connect 1 0 2 1;
#X connect 2 0 0 0;
#X connect 3 0 2 2;
#X connect 4 0 0 2;
#X connect 5 0 0 3;
#X connect 6 0 10 0;
#X connect 6 1 11 0;
#X connect 9 0 0 1;
#X connect 10 0 4 0;
#X connect 11 0 5 0;
#X connect 12 0 1 0;
#X connect 13 0 2 0;
#X connect 13 0 6 0;
#X coords 0 -1 1 1 250 160 1 100 100;
