#N canvas 207 22 729 451 10;
#X obj 50 -44 r ctrl-bus;
#X obj 25 40 float;
#X text 62 38 step number;
#X obj 117 129 bng 30 250 50 0 empty empty empty 17 7 0 10 -262144
-1 -1;
#X msg -29 201 toggle-start-stop;
#X obj -5 168 t b b b;
#X obj 120 299 s ctrl-bus;
#X floatatom 118 112 5 0 0 0 - - -;
#X obj 51 -5 route step;
#X obj 181 31 float;
#X obj 210 -101 inlet track-no;
#X obj 48 -134 inlet init-bang;
#X obj 57 -107 t b b;
#X msg -11 -62 0;
#X obj 119 234 pack s f f;
#X connect 0 0 8 0;
#X connect 1 0 14 2;
#X connect 3 0 5 0;
#X connect 4 0 14 0;
#X connect 5 0 4 0;
#X connect 5 1 9 0;
#X connect 5 2 1 0;
#X connect 8 0 1 1;
#X connect 9 0 7 0;
#X connect 9 0 14 1;
#X connect 10 0 9 1;
#X connect 11 0 12 0;
#X connect 12 0 13 0;
#X connect 12 1 9 0;
#X connect 13 0 1 1;
#X connect 14 0 6 0;
#X coords 0 -1 1 1 85 60 1 100 100;
