#N canvas 542 94 683 615 10;
#X obj 176 293 tgl 15 0 empty empty empty 17 7 0 10 -262144 -1 -1 1
1;
#X obj 172 230 bang;
#X obj 172 257 t b b;
#X obj 184 359 pack s f;
#X msg 184 393 \$1 \$2;
#X obj 242 301 list;
#X obj 242 328 unpack s;
#X obj 184 443 outlet output-message;
#X obj 114 88 inlet input-bang;
#X obj 420 87 inlet output-message;
#X obj 388 446 outlet out-value;
#X msg 357 238 set 0;
#X text 405 236 reset to 0;
#X connect 0 0 3 1;
#X connect 0 0 10 0;
#X connect 1 0 2 0;
#X connect 2 0 5 0;
#X connect 2 1 0 0;
#X connect 3 0 4 0;
#X connect 4 0 7 0;
#X connect 5 0 6 0;
#X connect 6 0 3 0;
#X connect 8 0 1 0;
#X connect 9 0 5 1;
#X connect 9 0 11 0;
#X connect 11 0 0 0;
